G04 #@! TF.FileFunction,Profile,NP*
%FSLAX46Y46*%
G04 Gerber Fmt 4.6, Leading zero omitted, Abs format (unit mm)*
G04 Created by KiCad (PCBNEW 4.0.5-e0-6337~52~ubuntu16.10.1) date Sat Feb 25 11:48:19 2017*
%MOMM*%
%LPD*%
G01*
G04 APERTURE LIST*
%ADD10C,0.100000*%
%ADD11C,0.150000*%
G04 APERTURE END LIST*
D10*
D11*
X156486903Y-136525000D02*
G75*
G03X156486903Y-136525000I-1419903J0D01*
G01*
X155978903Y-115951000D02*
G75*
G03X155978903Y-115951000I-1419903J0D01*
G01*
X126895903Y-105156000D02*
G75*
G03X126895903Y-105156000I-1419903J0D01*
G01*
X155529562Y-138734800D02*
G75*
G03X155529562Y-138734800I-183162J0D01*
G01*
X154970762Y-140665200D02*
G75*
G03X154970762Y-140665200I-183162J0D01*
G01*
X155529562Y-140665200D02*
G75*
G03X155529562Y-140665200I-183162J0D01*
G01*
X154970762Y-138734800D02*
G75*
G03X154970762Y-138734800I-183162J0D01*
G01*
X154411962Y-138734800D02*
G75*
G03X154411962Y-138734800I-183162J0D01*
G01*
X132212362Y-140665200D02*
G75*
G03X132212362Y-140665200I-183162J0D01*
G01*
X154411962Y-140665200D02*
G75*
G03X154411962Y-140665200I-183162J0D01*
G01*
X131653562Y-140665200D02*
G75*
G03X131653562Y-140665200I-183162J0D01*
G01*
X131602762Y-138734800D02*
G75*
G03X131602762Y-138734800I-183162J0D01*
G01*
X132161562Y-138734800D02*
G75*
G03X132161562Y-138734800I-183162J0D01*
G01*
X131094762Y-140665200D02*
G75*
G03X131094762Y-140665200I-183162J0D01*
G01*
X131043962Y-138734800D02*
G75*
G03X131043962Y-138734800I-183162J0D01*
G01*
X164947600Y-151130000D02*
G75*
G03X166217600Y-149860000I0J1270000D01*
G01*
X166217600Y-142240000D02*
G75*
G03X164947600Y-140970000I-1270000J0D01*
G01*
X124561600Y-140970000D02*
G75*
G03X123240800Y-142290800I0J-1320800D01*
G01*
X123240800Y-149910800D02*
G75*
G03X124561600Y-151130000I1270000J50800D01*
G01*
X129540000Y-140970000D02*
G75*
G03X130810000Y-139700000I0J1270000D01*
G01*
X130810000Y-139700000D02*
G75*
G03X129540000Y-138430000I-1270000J0D01*
G01*
X132080000Y-139700000D02*
G75*
G03X133350000Y-140970000I1270000J0D01*
G01*
X133350000Y-138430000D02*
G75*
G03X132080000Y-139700000I0J-1270000D01*
G01*
X123190000Y-137160000D02*
G75*
G03X124460000Y-138430000I1270000J0D01*
G01*
X124460000Y-102870000D02*
G75*
G03X123190000Y-104140000I0J-1270000D01*
G01*
X161290000Y-104140000D02*
G75*
G03X160020000Y-102870000I-1270000J0D01*
G01*
X160020000Y-138430000D02*
G75*
G03X161290000Y-137160000I0J1270000D01*
G01*
X155448000Y-139700000D02*
G75*
G03X156718000Y-140970000I1270000J0D01*
G01*
X156718000Y-138430000D02*
G75*
G03X155448000Y-139700000I0J-1270000D01*
G01*
X154178000Y-139700000D02*
G75*
G03X152908000Y-138430000I-1270000J0D01*
G01*
X152908000Y-140970000D02*
G75*
G03X154178000Y-139700000I0J1270000D01*
G01*
X133286500Y-138430000D02*
X152781000Y-138430000D01*
X133350000Y-140970000D02*
X143065500Y-140970000D01*
X146431000Y-151130000D02*
X164973000Y-151130000D01*
X164973000Y-140970000D02*
X156591000Y-140970000D01*
X156591000Y-138430000D02*
X160020000Y-138430000D01*
X146431000Y-140970000D02*
X152781000Y-140970000D01*
X124460000Y-138430000D02*
X129540000Y-138430000D01*
X124587000Y-140970000D02*
X129540000Y-140970000D01*
X124523500Y-151130000D02*
X143065500Y-151130000D01*
X162306000Y-144145000D02*
X162306000Y-147955000D01*
X166243000Y-142240000D02*
X166243000Y-144145000D01*
X166243000Y-147955000D02*
X166243000Y-149860000D01*
X162306000Y-144145000D02*
X166243000Y-144145000D01*
X162306000Y-147955000D02*
X166243000Y-147955000D01*
X127190500Y-144145000D02*
X123253500Y-144145000D01*
X127190500Y-147955000D02*
X123253500Y-147955000D01*
X146431000Y-151130000D02*
X146431000Y-140970000D01*
X123253500Y-144145000D02*
X123253500Y-142240000D01*
X123253500Y-149860000D02*
X123253500Y-147955000D01*
X127190500Y-147955000D02*
X127190500Y-144145000D01*
X143065500Y-140970000D02*
X143065500Y-151130000D01*
X123190000Y-137160000D02*
X123190000Y-104140000D01*
X161290000Y-104140000D02*
X161290000Y-137160000D01*
X124460000Y-102870000D02*
X160020000Y-102870000D01*
M02*
