G04 #@! TF.GenerationSoftware,KiCad,Pcbnew,no-vcs-found-7452~57~ubuntu16.10.1*
G04 #@! TF.CreationDate,2017-01-19T15:17:35+09:00*
G04 #@! TF.ProjectId,halakekit_first_break,68616C616B656B69745F66697273745F,rev?*
G04 #@! TF.FileFunction,Legend,Top*
G04 #@! TF.FilePolarity,Positive*
%FSLAX46Y46*%
G04 Gerber Fmt 4.6, Leading zero omitted, Abs format (unit mm)*
G04 Created by KiCad (PCBNEW no-vcs-found-7452~57~ubuntu16.10.1) date Thu Jan 19 15:17:35 2017*
%MOMM*%
%LPD*%
G01*
G04 APERTURE LIST*
%ADD10C,0.100000*%
%ADD11C,0.200000*%
%ADD12C,0.150000*%
%ADD13C,0.175000*%
%ADD14C,0.010000*%
%ADD15C,1.924000*%
%ADD16O,2.432000X2.127200*%
%ADD17O,2.127200X2.432000*%
%ADD18O,2.400000X2.100000*%
%ADD19O,2.400000X1.400000*%
%ADD20C,2.100000*%
G04 APERTURE END LIST*
D10*
D11*
X149843380Y-149502380D02*
X148843380Y-149502380D01*
X149319571Y-149502380D02*
X149319571Y-148930952D01*
X149843380Y-148930952D02*
X148843380Y-148930952D01*
X149843380Y-148026190D02*
X149319571Y-148026190D01*
X149224333Y-148073809D01*
X149176714Y-148169047D01*
X149176714Y-148359523D01*
X149224333Y-148454761D01*
X149795761Y-148026190D02*
X149843380Y-148121428D01*
X149843380Y-148359523D01*
X149795761Y-148454761D01*
X149700523Y-148502380D01*
X149605285Y-148502380D01*
X149510047Y-148454761D01*
X149462428Y-148359523D01*
X149462428Y-148121428D01*
X149414809Y-148026190D01*
X149843380Y-147073809D02*
X149843380Y-147550000D01*
X148843380Y-147550000D01*
X149843380Y-146311904D02*
X149319571Y-146311904D01*
X149224333Y-146359523D01*
X149176714Y-146454761D01*
X149176714Y-146645238D01*
X149224333Y-146740476D01*
X149795761Y-146311904D02*
X149843380Y-146407142D01*
X149843380Y-146645238D01*
X149795761Y-146740476D01*
X149700523Y-146788095D01*
X149605285Y-146788095D01*
X149510047Y-146740476D01*
X149462428Y-146645238D01*
X149462428Y-146407142D01*
X149414809Y-146311904D01*
X149843380Y-145835714D02*
X148843380Y-145835714D01*
X149462428Y-145740476D02*
X149843380Y-145454761D01*
X149176714Y-145454761D02*
X149557666Y-145835714D01*
X149795761Y-144645238D02*
X149843380Y-144740476D01*
X149843380Y-144930952D01*
X149795761Y-145026190D01*
X149700523Y-145073809D01*
X149319571Y-145073809D01*
X149224333Y-145026190D01*
X149176714Y-144930952D01*
X149176714Y-144740476D01*
X149224333Y-144645238D01*
X149319571Y-144597619D01*
X149414809Y-144597619D01*
X149510047Y-145073809D01*
X149843380Y-144169047D02*
X148843380Y-144169047D01*
X149843380Y-143597619D02*
X149271952Y-144026190D01*
X148843380Y-143597619D02*
X149414809Y-144169047D01*
X149843380Y-143169047D02*
X149176714Y-143169047D01*
X148843380Y-143169047D02*
X148891000Y-143216666D01*
X148938619Y-143169047D01*
X148891000Y-143121428D01*
X148843380Y-143169047D01*
X148938619Y-143169047D01*
X149176714Y-142835714D02*
X149176714Y-142454761D01*
X148843380Y-142692857D02*
X149700523Y-142692857D01*
X149795761Y-142645238D01*
X149843380Y-142550000D01*
X149843380Y-142454761D01*
X151019571Y-147145238D02*
X151019571Y-147478571D01*
X151543380Y-147478571D02*
X150543380Y-147478571D01*
X150543380Y-147002380D01*
X151543380Y-146621428D02*
X150876714Y-146621428D01*
X150543380Y-146621428D02*
X150591000Y-146669047D01*
X150638619Y-146621428D01*
X150591000Y-146573809D01*
X150543380Y-146621428D01*
X150638619Y-146621428D01*
X151543380Y-146145238D02*
X150876714Y-146145238D01*
X151067190Y-146145238D02*
X150971952Y-146097619D01*
X150924333Y-146050000D01*
X150876714Y-145954761D01*
X150876714Y-145859523D01*
X151495761Y-145573809D02*
X151543380Y-145478571D01*
X151543380Y-145288095D01*
X151495761Y-145192857D01*
X151400523Y-145145238D01*
X151352904Y-145145238D01*
X151257666Y-145192857D01*
X151210047Y-145288095D01*
X151210047Y-145430952D01*
X151162428Y-145526190D01*
X151067190Y-145573809D01*
X151019571Y-145573809D01*
X150924333Y-145526190D01*
X150876714Y-145430952D01*
X150876714Y-145288095D01*
X150924333Y-145192857D01*
X150876714Y-144859523D02*
X150876714Y-144478571D01*
X150543380Y-144716666D02*
X151400523Y-144716666D01*
X151495761Y-144669047D01*
X151543380Y-144573809D01*
X151543380Y-144478571D01*
D12*
X161175714Y-147626428D02*
X160890000Y-147626428D01*
X160861428Y-147912142D01*
X160890000Y-147883571D01*
X160947142Y-147855000D01*
X161090000Y-147855000D01*
X161147142Y-147883571D01*
X161175714Y-147912142D01*
X161204285Y-147969285D01*
X161204285Y-148112142D01*
X161175714Y-148169285D01*
X161147142Y-148197857D01*
X161090000Y-148226428D01*
X160947142Y-148226428D01*
X160890000Y-148197857D01*
X160861428Y-148169285D01*
X161375714Y-147626428D02*
X161575714Y-148226428D01*
X161775714Y-147626428D01*
X160832857Y-143845000D02*
X160775714Y-143816428D01*
X160690000Y-143816428D01*
X160604285Y-143845000D01*
X160547142Y-143902142D01*
X160518571Y-143959285D01*
X160490000Y-144073571D01*
X160490000Y-144159285D01*
X160518571Y-144273571D01*
X160547142Y-144330714D01*
X160604285Y-144387857D01*
X160690000Y-144416428D01*
X160747142Y-144416428D01*
X160832857Y-144387857D01*
X160861428Y-144359285D01*
X160861428Y-144159285D01*
X160747142Y-144159285D01*
X161118571Y-144416428D02*
X161118571Y-143816428D01*
X161461428Y-144416428D01*
X161461428Y-143816428D01*
X161747142Y-144416428D02*
X161747142Y-143816428D01*
X161890000Y-143816428D01*
X161975714Y-143845000D01*
X162032857Y-143902142D01*
X162061428Y-143959285D01*
X162090000Y-144073571D01*
X162090000Y-144159285D01*
X162061428Y-144273571D01*
X162032857Y-144330714D01*
X161975714Y-144387857D01*
X161890000Y-144416428D01*
X161747142Y-144416428D01*
X160832857Y-145086428D02*
X161175714Y-145086428D01*
X161004285Y-145686428D02*
X161004285Y-145086428D01*
X161318571Y-145086428D02*
X161718571Y-145686428D01*
X161718571Y-145086428D02*
X161318571Y-145686428D01*
X161190000Y-146956428D02*
X160990000Y-146670714D01*
X160847142Y-146956428D02*
X160847142Y-146356428D01*
X161075714Y-146356428D01*
X161132857Y-146385000D01*
X161161428Y-146413571D01*
X161190000Y-146470714D01*
X161190000Y-146556428D01*
X161161428Y-146613571D01*
X161132857Y-146642142D01*
X161075714Y-146670714D01*
X160847142Y-146670714D01*
X161390000Y-146356428D02*
X161790000Y-146956428D01*
X161790000Y-146356428D02*
X161390000Y-146956428D01*
X128306500Y-145143571D02*
X128506500Y-145429285D01*
X128649357Y-145143571D02*
X128649357Y-145743571D01*
X128420785Y-145743571D01*
X128363642Y-145715000D01*
X128335071Y-145686428D01*
X128306500Y-145629285D01*
X128306500Y-145543571D01*
X128335071Y-145486428D01*
X128363642Y-145457857D01*
X128420785Y-145429285D01*
X128649357Y-145429285D01*
X128106500Y-145743571D02*
X127706500Y-145143571D01*
X127706500Y-145743571D02*
X128106500Y-145143571D01*
X128663642Y-147013571D02*
X128320785Y-147013571D01*
X128492214Y-146413571D02*
X128492214Y-147013571D01*
X128177928Y-147013571D02*
X127777928Y-146413571D01*
X127777928Y-147013571D02*
X128177928Y-146413571D01*
X128663642Y-148255000D02*
X128720785Y-148283571D01*
X128806500Y-148283571D01*
X128892214Y-148255000D01*
X128949357Y-148197857D01*
X128977928Y-148140714D01*
X129006500Y-148026428D01*
X129006500Y-147940714D01*
X128977928Y-147826428D01*
X128949357Y-147769285D01*
X128892214Y-147712142D01*
X128806500Y-147683571D01*
X128749357Y-147683571D01*
X128663642Y-147712142D01*
X128635071Y-147740714D01*
X128635071Y-147940714D01*
X128749357Y-147940714D01*
X128377928Y-147683571D02*
X128377928Y-148283571D01*
X128035071Y-147683571D01*
X128035071Y-148283571D01*
X127749357Y-147683571D02*
X127749357Y-148283571D01*
X127606500Y-148283571D01*
X127520785Y-148255000D01*
X127463642Y-148197857D01*
X127435071Y-148140714D01*
X127406500Y-148026428D01*
X127406500Y-147940714D01*
X127435071Y-147826428D01*
X127463642Y-147769285D01*
X127520785Y-147712142D01*
X127606500Y-147683571D01*
X127749357Y-147683571D01*
X128320785Y-144473571D02*
X128606500Y-144473571D01*
X128635071Y-144187857D01*
X128606500Y-144216428D01*
X128549357Y-144245000D01*
X128406500Y-144245000D01*
X128349357Y-144216428D01*
X128320785Y-144187857D01*
X128292214Y-144130714D01*
X128292214Y-143987857D01*
X128320785Y-143930714D01*
X128349357Y-143902142D01*
X128406500Y-143873571D01*
X128549357Y-143873571D01*
X128606500Y-143902142D01*
X128635071Y-143930714D01*
X128120785Y-144473571D02*
X127920785Y-143873571D01*
X127720785Y-144473571D01*
D11*
X146050000Y-110490000D02*
X146050000Y-102870000D01*
X148590000Y-110490000D02*
X148590000Y-102870000D01*
X151130000Y-110490000D02*
X151130000Y-102870000D01*
X153670000Y-102870000D02*
X153670000Y-110490000D01*
X138430000Y-102870000D02*
X138430000Y-110490000D01*
X135890000Y-110490000D02*
X135890000Y-102870000D01*
X133350000Y-110490000D02*
X133350000Y-102870000D01*
X130810000Y-110490000D02*
X130810000Y-102870000D01*
X128270000Y-115570000D02*
X138430000Y-115570000D01*
X128270000Y-118110000D02*
X138430000Y-118110000D01*
X128270000Y-120650000D02*
X138430000Y-120650000D01*
X128270000Y-123190000D02*
X138430000Y-123190000D01*
X128270000Y-125730000D02*
X138430000Y-125730000D01*
X128270000Y-128270000D02*
X138430000Y-128270000D01*
X128270000Y-130810000D02*
X138430000Y-130810000D01*
X128270000Y-133350000D02*
X138430000Y-133350000D01*
X128270000Y-135890000D02*
X138430000Y-135890000D01*
X128270000Y-113030000D02*
X128270000Y-138430000D01*
X123190000Y-113030000D02*
X138430000Y-113030000D01*
X125730000Y-138430000D02*
X125730000Y-113030000D01*
X138430000Y-113030000D02*
X138430000Y-138430000D01*
X139653119Y-142597619D02*
X140653119Y-142597619D01*
X140176928Y-142597619D02*
X140176928Y-143169047D01*
X139653119Y-143169047D02*
X140653119Y-143169047D01*
X139653119Y-144073809D02*
X140176928Y-144073809D01*
X140272166Y-144026190D01*
X140319785Y-143930952D01*
X140319785Y-143740476D01*
X140272166Y-143645238D01*
X139700738Y-144073809D02*
X139653119Y-143978571D01*
X139653119Y-143740476D01*
X139700738Y-143645238D01*
X139795976Y-143597619D01*
X139891214Y-143597619D01*
X139986452Y-143645238D01*
X140034071Y-143740476D01*
X140034071Y-143978571D01*
X140081690Y-144073809D01*
X139653119Y-145026190D02*
X139653119Y-144550000D01*
X140653119Y-144550000D01*
X139653119Y-145788095D02*
X140176928Y-145788095D01*
X140272166Y-145740476D01*
X140319785Y-145645238D01*
X140319785Y-145454761D01*
X140272166Y-145359523D01*
X139700738Y-145788095D02*
X139653119Y-145692857D01*
X139653119Y-145454761D01*
X139700738Y-145359523D01*
X139795976Y-145311904D01*
X139891214Y-145311904D01*
X139986452Y-145359523D01*
X140034071Y-145454761D01*
X140034071Y-145692857D01*
X140081690Y-145788095D01*
X139653119Y-146264285D02*
X140653119Y-146264285D01*
X140034071Y-146359523D02*
X139653119Y-146645238D01*
X140319785Y-146645238D02*
X139938833Y-146264285D01*
X139700738Y-147454761D02*
X139653119Y-147359523D01*
X139653119Y-147169047D01*
X139700738Y-147073809D01*
X139795976Y-147026190D01*
X140176928Y-147026190D01*
X140272166Y-147073809D01*
X140319785Y-147169047D01*
X140319785Y-147359523D01*
X140272166Y-147454761D01*
X140176928Y-147502380D01*
X140081690Y-147502380D01*
X139986452Y-147026190D01*
X139653119Y-147930952D02*
X140653119Y-147930952D01*
X139653119Y-148502380D02*
X140224547Y-148073809D01*
X140653119Y-148502380D02*
X140081690Y-147930952D01*
X139653119Y-148930952D02*
X140319785Y-148930952D01*
X140653119Y-148930952D02*
X140605500Y-148883333D01*
X140557880Y-148930952D01*
X140605500Y-148978571D01*
X140653119Y-148930952D01*
X140557880Y-148930952D01*
X140319785Y-149264285D02*
X140319785Y-149645238D01*
X140653119Y-149407142D02*
X139795976Y-149407142D01*
X139700738Y-149454761D01*
X139653119Y-149550000D01*
X139653119Y-149645238D01*
X138476928Y-144954761D02*
X138476928Y-144621428D01*
X137953119Y-144621428D02*
X138953119Y-144621428D01*
X138953119Y-145097619D01*
X137953119Y-145478571D02*
X138619785Y-145478571D01*
X138953119Y-145478571D02*
X138905500Y-145430952D01*
X138857880Y-145478571D01*
X138905500Y-145526190D01*
X138953119Y-145478571D01*
X138857880Y-145478571D01*
X137953119Y-145954761D02*
X138619785Y-145954761D01*
X138429309Y-145954761D02*
X138524547Y-146002380D01*
X138572166Y-146050000D01*
X138619785Y-146145238D01*
X138619785Y-146240476D01*
X138000738Y-146526190D02*
X137953119Y-146621428D01*
X137953119Y-146811904D01*
X138000738Y-146907142D01*
X138095976Y-146954761D01*
X138143595Y-146954761D01*
X138238833Y-146907142D01*
X138286452Y-146811904D01*
X138286452Y-146669047D01*
X138334071Y-146573809D01*
X138429309Y-146526190D01*
X138476928Y-146526190D01*
X138572166Y-146573809D01*
X138619785Y-146669047D01*
X138619785Y-146811904D01*
X138572166Y-146907142D01*
X138619785Y-147240476D02*
X138619785Y-147621428D01*
X138953119Y-147383333D02*
X138095976Y-147383333D01*
X138000738Y-147430952D01*
X137953119Y-147526190D01*
X137953119Y-147621428D01*
D13*
X157566666Y-137476666D02*
X157333333Y-137143333D01*
X157166666Y-137476666D02*
X157166666Y-136776666D01*
X157433333Y-136776666D01*
X157500000Y-136810000D01*
X157533333Y-136843333D01*
X157566666Y-136910000D01*
X157566666Y-137010000D01*
X157533333Y-137076666D01*
X157500000Y-137110000D01*
X157433333Y-137143333D01*
X157166666Y-137143333D01*
X158133333Y-137443333D02*
X158066666Y-137476666D01*
X157933333Y-137476666D01*
X157866666Y-137443333D01*
X157833333Y-137376666D01*
X157833333Y-137110000D01*
X157866666Y-137043333D01*
X157933333Y-137010000D01*
X158066666Y-137010000D01*
X158133333Y-137043333D01*
X158166666Y-137110000D01*
X158166666Y-137176666D01*
X157833333Y-137243333D01*
X158400000Y-137010000D02*
X158566666Y-137476666D01*
X158733333Y-137010000D01*
X159366666Y-137476666D02*
X158966666Y-137476666D01*
X159166666Y-137476666D02*
X159166666Y-136776666D01*
X159100000Y-136876666D01*
X159033333Y-136943333D01*
X158966666Y-136976666D01*
X159666666Y-137410000D02*
X159700000Y-137443333D01*
X159666666Y-137476666D01*
X159633333Y-137443333D01*
X159666666Y-137410000D01*
X159666666Y-137476666D01*
X160366666Y-137476666D02*
X159966666Y-137476666D01*
X160166666Y-137476666D02*
X160166666Y-136776666D01*
X160100000Y-136876666D01*
X160033333Y-136943333D01*
X159966666Y-136976666D01*
D11*
X142835952Y-137612380D02*
X142835952Y-136612380D01*
X142835952Y-137088571D02*
X143407380Y-137088571D01*
X143407380Y-137612380D02*
X143407380Y-136612380D01*
X144312142Y-137612380D02*
X144312142Y-137088571D01*
X144264523Y-136993333D01*
X144169285Y-136945714D01*
X143978809Y-136945714D01*
X143883571Y-136993333D01*
X144312142Y-137564761D02*
X144216904Y-137612380D01*
X143978809Y-137612380D01*
X143883571Y-137564761D01*
X143835952Y-137469523D01*
X143835952Y-137374285D01*
X143883571Y-137279047D01*
X143978809Y-137231428D01*
X144216904Y-137231428D01*
X144312142Y-137183809D01*
X145264523Y-137612380D02*
X144788333Y-137612380D01*
X144788333Y-136612380D01*
X146026428Y-137612380D02*
X146026428Y-137088571D01*
X145978809Y-136993333D01*
X145883571Y-136945714D01*
X145693095Y-136945714D01*
X145597857Y-136993333D01*
X146026428Y-137564761D02*
X145931190Y-137612380D01*
X145693095Y-137612380D01*
X145597857Y-137564761D01*
X145550238Y-137469523D01*
X145550238Y-137374285D01*
X145597857Y-137279047D01*
X145693095Y-137231428D01*
X145931190Y-137231428D01*
X146026428Y-137183809D01*
X146502619Y-137612380D02*
X146502619Y-136612380D01*
X146597857Y-137231428D02*
X146883571Y-137612380D01*
X146883571Y-136945714D02*
X146502619Y-137326666D01*
X147693095Y-137564761D02*
X147597857Y-137612380D01*
X147407380Y-137612380D01*
X147312142Y-137564761D01*
X147264523Y-137469523D01*
X147264523Y-137088571D01*
X147312142Y-136993333D01*
X147407380Y-136945714D01*
X147597857Y-136945714D01*
X147693095Y-136993333D01*
X147740714Y-137088571D01*
X147740714Y-137183809D01*
X147264523Y-137279047D01*
X148169285Y-137612380D02*
X148169285Y-136612380D01*
X148740714Y-137612380D02*
X148312142Y-137040952D01*
X148740714Y-136612380D02*
X148169285Y-137183809D01*
X149169285Y-137612380D02*
X149169285Y-136945714D01*
X149169285Y-136612380D02*
X149121666Y-136660000D01*
X149169285Y-136707619D01*
X149216904Y-136660000D01*
X149169285Y-136612380D01*
X149169285Y-136707619D01*
X149502619Y-136945714D02*
X149883571Y-136945714D01*
X149645476Y-136612380D02*
X149645476Y-137469523D01*
X149693095Y-137564761D01*
X149788333Y-137612380D01*
X149883571Y-137612380D01*
X150550238Y-137088571D02*
X150216904Y-137088571D01*
X150216904Y-137612380D02*
X150216904Y-136612380D01*
X150693095Y-136612380D01*
X151074047Y-137612380D02*
X151074047Y-136945714D01*
X151074047Y-136612380D02*
X151026428Y-136660000D01*
X151074047Y-136707619D01*
X151121666Y-136660000D01*
X151074047Y-136612380D01*
X151074047Y-136707619D01*
X151550238Y-137612380D02*
X151550238Y-136945714D01*
X151550238Y-137136190D02*
X151597857Y-137040952D01*
X151645476Y-136993333D01*
X151740714Y-136945714D01*
X151835952Y-136945714D01*
X152121666Y-137564761D02*
X152216904Y-137612380D01*
X152407380Y-137612380D01*
X152502619Y-137564761D01*
X152550238Y-137469523D01*
X152550238Y-137421904D01*
X152502619Y-137326666D01*
X152407380Y-137279047D01*
X152264523Y-137279047D01*
X152169285Y-137231428D01*
X152121666Y-137136190D01*
X152121666Y-137088571D01*
X152169285Y-136993333D01*
X152264523Y-136945714D01*
X152407380Y-136945714D01*
X152502619Y-136993333D01*
X152835952Y-136945714D02*
X153216904Y-136945714D01*
X152978809Y-136612380D02*
X152978809Y-137469523D01*
X153026428Y-137564761D01*
X153121666Y-137612380D01*
X153216904Y-137612380D01*
D10*
X141916095Y-136956819D02*
X141916095Y-136575866D01*
X141535142Y-136537771D01*
X141573238Y-136575866D01*
X141611333Y-136652057D01*
X141611333Y-136842533D01*
X141573238Y-136918723D01*
X141535142Y-136956819D01*
X141458952Y-136994914D01*
X141268476Y-136994914D01*
X141192285Y-136956819D01*
X141154190Y-136918723D01*
X141116095Y-136842533D01*
X141116095Y-136652057D01*
X141154190Y-136575866D01*
X141192285Y-136537771D01*
X141916095Y-137223485D02*
X141116095Y-137490152D01*
X141916095Y-137756819D01*
X124307619Y-136721904D02*
X123926666Y-136721904D01*
X123888571Y-137102857D01*
X123926666Y-137064761D01*
X124002857Y-137026666D01*
X124193333Y-137026666D01*
X124269523Y-137064761D01*
X124307619Y-137102857D01*
X124345714Y-137179047D01*
X124345714Y-137369523D01*
X124307619Y-137445714D01*
X124269523Y-137483809D01*
X124193333Y-137521904D01*
X124002857Y-137521904D01*
X123926666Y-137483809D01*
X123888571Y-137445714D01*
X124574285Y-136721904D02*
X124840952Y-137521904D01*
X125107619Y-136721904D01*
X126390476Y-111995000D02*
X126314285Y-111956904D01*
X126200000Y-111956904D01*
X126085714Y-111995000D01*
X126009523Y-112071190D01*
X125971428Y-112147380D01*
X125933333Y-112299761D01*
X125933333Y-112414047D01*
X125971428Y-112566428D01*
X126009523Y-112642619D01*
X126085714Y-112718809D01*
X126200000Y-112756904D01*
X126276190Y-112756904D01*
X126390476Y-112718809D01*
X126428571Y-112680714D01*
X126428571Y-112414047D01*
X126276190Y-112414047D01*
X126771428Y-112756904D02*
X126771428Y-111956904D01*
X127228571Y-112756904D01*
X127228571Y-111956904D01*
X127609523Y-112756904D02*
X127609523Y-111956904D01*
X127800000Y-111956904D01*
X127914285Y-111995000D01*
X127990476Y-112071190D01*
X128028571Y-112147380D01*
X128066666Y-112299761D01*
X128066666Y-112414047D01*
X128028571Y-112566428D01*
X127990476Y-112642619D01*
X127914285Y-112718809D01*
X127800000Y-112756904D01*
X127609523Y-112756904D01*
X124307619Y-111956904D02*
X123926666Y-111956904D01*
X123888571Y-112337857D01*
X123926666Y-112299761D01*
X124002857Y-112261666D01*
X124193333Y-112261666D01*
X124269523Y-112299761D01*
X124307619Y-112337857D01*
X124345714Y-112414047D01*
X124345714Y-112604523D01*
X124307619Y-112680714D01*
X124269523Y-112718809D01*
X124193333Y-112756904D01*
X124002857Y-112756904D01*
X123926666Y-112718809D01*
X123888571Y-112680714D01*
X124574285Y-111956904D02*
X124840952Y-112756904D01*
X125107619Y-111956904D01*
D14*
G36*
X153366520Y-149483072D02*
X153412146Y-149395234D01*
X153480900Y-149335547D01*
X153555170Y-149306846D01*
X153661632Y-149302209D01*
X153810833Y-149322571D01*
X154013322Y-149368867D01*
X154093054Y-149389839D01*
X154183043Y-149419824D01*
X154222574Y-149461897D01*
X154232257Y-149542862D01*
X154232428Y-149571113D01*
X154230615Y-149646940D01*
X154216038Y-149691063D01*
X154174991Y-149707465D01*
X154093767Y-149700127D01*
X153958659Y-149673034D01*
X153914363Y-149663534D01*
X153794758Y-149642535D01*
X153706047Y-149635672D01*
X153669316Y-149643391D01*
X153663925Y-149707585D01*
X153718621Y-149763929D01*
X153821064Y-149800047D01*
X153826454Y-149800974D01*
X153958327Y-149827254D01*
X154092309Y-149860255D01*
X154096357Y-149861388D01*
X154184521Y-149892327D01*
X154223053Y-149935827D01*
X154232302Y-150019067D01*
X154232428Y-150043135D01*
X154221735Y-150144614D01*
X154191738Y-150186331D01*
X154187071Y-150186851D01*
X154134573Y-150179988D01*
X154027823Y-150161202D01*
X153883575Y-150133563D01*
X153755455Y-150107762D01*
X153369195Y-150028393D01*
X153352880Y-149789982D01*
X153348254Y-149609365D01*
X153366520Y-149483072D01*
X153366520Y-149483072D01*
G37*
X153366520Y-149483072D02*
X153412146Y-149395234D01*
X153480900Y-149335547D01*
X153555170Y-149306846D01*
X153661632Y-149302209D01*
X153810833Y-149322571D01*
X154013322Y-149368867D01*
X154093054Y-149389839D01*
X154183043Y-149419824D01*
X154222574Y-149461897D01*
X154232257Y-149542862D01*
X154232428Y-149571113D01*
X154230615Y-149646940D01*
X154216038Y-149691063D01*
X154174991Y-149707465D01*
X154093767Y-149700127D01*
X153958659Y-149673034D01*
X153914363Y-149663534D01*
X153794758Y-149642535D01*
X153706047Y-149635672D01*
X153669316Y-149643391D01*
X153663925Y-149707585D01*
X153718621Y-149763929D01*
X153821064Y-149800047D01*
X153826454Y-149800974D01*
X153958327Y-149827254D01*
X154092309Y-149860255D01*
X154096357Y-149861388D01*
X154184521Y-149892327D01*
X154223053Y-149935827D01*
X154232302Y-150019067D01*
X154232428Y-150043135D01*
X154221735Y-150144614D01*
X154191738Y-150186331D01*
X154187071Y-150186851D01*
X154134573Y-150179988D01*
X154027823Y-150161202D01*
X153883575Y-150133563D01*
X153755455Y-150107762D01*
X153369195Y-150028393D01*
X153352880Y-149789982D01*
X153348254Y-149609365D01*
X153366520Y-149483072D01*
G36*
X153297377Y-146040751D02*
X153379607Y-145915858D01*
X153407447Y-145892230D01*
X153463727Y-145854920D01*
X153519229Y-145837076D01*
X153595251Y-145837000D01*
X153713093Y-145852989D01*
X153773681Y-145862993D01*
X153926740Y-145890680D01*
X154070454Y-145919988D01*
X154172834Y-145944347D01*
X154251465Y-145970032D01*
X154290418Y-146005334D01*
X154303620Y-146073035D01*
X154305000Y-146160563D01*
X154300056Y-146263626D01*
X154287429Y-146328865D01*
X154277785Y-146340751D01*
X154231386Y-146333234D01*
X154134398Y-146312985D01*
X154006804Y-146284200D01*
X153991943Y-146280735D01*
X153818445Y-146246493D01*
X153705662Y-146240774D01*
X153647164Y-146264569D01*
X153636521Y-146318870D01*
X153639960Y-146334998D01*
X153668982Y-146379098D01*
X153739074Y-146416729D01*
X153863566Y-146454238D01*
X153918358Y-146467554D01*
X154055152Y-146499917D01*
X154169986Y-146527645D01*
X154239231Y-146545028D01*
X154241500Y-146545639D01*
X154281540Y-146573785D01*
X154300773Y-146641475D01*
X154305000Y-146741874D01*
X154298576Y-146844567D01*
X154282174Y-146909306D01*
X154269745Y-146920858D01*
X154219457Y-146913503D01*
X154118436Y-146894042D01*
X153986729Y-146866380D01*
X153959956Y-146860533D01*
X153802009Y-146830182D01*
X153702129Y-146822399D01*
X153649641Y-146836485D01*
X153645678Y-146839951D01*
X153616875Y-146899623D01*
X153656395Y-146954481D01*
X153765728Y-147005682D01*
X153912016Y-147046572D01*
X154050261Y-147079301D01*
X154166551Y-147107376D01*
X154237701Y-147125193D01*
X154241500Y-147126211D01*
X154281540Y-147154356D01*
X154300773Y-147222046D01*
X154305000Y-147322446D01*
X154296118Y-147445685D01*
X154269472Y-147498573D01*
X154259643Y-147500802D01*
X154204119Y-147492543D01*
X154098138Y-147471024D01*
X153957980Y-147440101D01*
X153799926Y-147403628D01*
X153640255Y-147365461D01*
X153495247Y-147329454D01*
X153381184Y-147299463D01*
X153314345Y-147279342D01*
X153303979Y-147274504D01*
X153289437Y-147225632D01*
X153278513Y-147125595D01*
X153271734Y-146995733D01*
X153269626Y-146857387D01*
X153272717Y-146731897D01*
X153281532Y-146640604D01*
X153287724Y-146615783D01*
X153300852Y-146509341D01*
X153282332Y-146382891D01*
X153263456Y-146202294D01*
X153297377Y-146040751D01*
X153297377Y-146040751D01*
G37*
X153297377Y-146040751D02*
X153379607Y-145915858D01*
X153407447Y-145892230D01*
X153463727Y-145854920D01*
X153519229Y-145837076D01*
X153595251Y-145837000D01*
X153713093Y-145852989D01*
X153773681Y-145862993D01*
X153926740Y-145890680D01*
X154070454Y-145919988D01*
X154172834Y-145944347D01*
X154251465Y-145970032D01*
X154290418Y-146005334D01*
X154303620Y-146073035D01*
X154305000Y-146160563D01*
X154300056Y-146263626D01*
X154287429Y-146328865D01*
X154277785Y-146340751D01*
X154231386Y-146333234D01*
X154134398Y-146312985D01*
X154006804Y-146284200D01*
X153991943Y-146280735D01*
X153818445Y-146246493D01*
X153705662Y-146240774D01*
X153647164Y-146264569D01*
X153636521Y-146318870D01*
X153639960Y-146334998D01*
X153668982Y-146379098D01*
X153739074Y-146416729D01*
X153863566Y-146454238D01*
X153918358Y-146467554D01*
X154055152Y-146499917D01*
X154169986Y-146527645D01*
X154239231Y-146545028D01*
X154241500Y-146545639D01*
X154281540Y-146573785D01*
X154300773Y-146641475D01*
X154305000Y-146741874D01*
X154298576Y-146844567D01*
X154282174Y-146909306D01*
X154269745Y-146920858D01*
X154219457Y-146913503D01*
X154118436Y-146894042D01*
X153986729Y-146866380D01*
X153959956Y-146860533D01*
X153802009Y-146830182D01*
X153702129Y-146822399D01*
X153649641Y-146836485D01*
X153645678Y-146839951D01*
X153616875Y-146899623D01*
X153656395Y-146954481D01*
X153765728Y-147005682D01*
X153912016Y-147046572D01*
X154050261Y-147079301D01*
X154166551Y-147107376D01*
X154237701Y-147125193D01*
X154241500Y-147126211D01*
X154281540Y-147154356D01*
X154300773Y-147222046D01*
X154305000Y-147322446D01*
X154296118Y-147445685D01*
X154269472Y-147498573D01*
X154259643Y-147500802D01*
X154204119Y-147492543D01*
X154098138Y-147471024D01*
X153957980Y-147440101D01*
X153799926Y-147403628D01*
X153640255Y-147365461D01*
X153495247Y-147329454D01*
X153381184Y-147299463D01*
X153314345Y-147279342D01*
X153303979Y-147274504D01*
X153289437Y-147225632D01*
X153278513Y-147125595D01*
X153271734Y-146995733D01*
X153269626Y-146857387D01*
X153272717Y-146731897D01*
X153281532Y-146640604D01*
X153287724Y-146615783D01*
X153300852Y-146509341D01*
X153282332Y-146382891D01*
X153263456Y-146202294D01*
X153297377Y-146040751D01*
G36*
X153290077Y-147495751D02*
X153300943Y-147456833D01*
X153333049Y-147437736D01*
X153397848Y-147437095D01*
X153506792Y-147453542D01*
X153671331Y-147485713D01*
X153747648Y-147501136D01*
X153952594Y-147542312D01*
X154096787Y-147572489D01*
X154190341Y-147596304D01*
X154243371Y-147618397D01*
X154265989Y-147643403D01*
X154268311Y-147675960D01*
X154260450Y-147720707D01*
X154257951Y-147735124D01*
X154252164Y-147861403D01*
X154265327Y-147978244D01*
X154275436Y-148101771D01*
X154261955Y-148215789D01*
X154192756Y-148356047D01*
X154075953Y-148443387D01*
X153917104Y-148474289D01*
X153857797Y-148471636D01*
X153788091Y-148454870D01*
X153788091Y-148116996D01*
X153858603Y-148097834D01*
X153892981Y-148062791D01*
X153918324Y-147980978D01*
X153889406Y-147908674D01*
X153820327Y-147871015D01*
X153785473Y-147871156D01*
X153726691Y-147897746D01*
X153706818Y-147967941D01*
X153706285Y-147990789D01*
X153730264Y-148078594D01*
X153788091Y-148116996D01*
X153788091Y-148454870D01*
X153673716Y-148427360D01*
X153521689Y-148327514D01*
X153403696Y-148187521D01*
X153350896Y-148093017D01*
X153330697Y-147995053D01*
X153334110Y-147873357D01*
X153337471Y-147767189D01*
X153329761Y-147698033D01*
X153319199Y-147682857D01*
X153299233Y-147650941D01*
X153289259Y-147572467D01*
X153289000Y-147555857D01*
X153290077Y-147495751D01*
X153290077Y-147495751D01*
G37*
X153290077Y-147495751D02*
X153300943Y-147456833D01*
X153333049Y-147437736D01*
X153397848Y-147437095D01*
X153506792Y-147453542D01*
X153671331Y-147485713D01*
X153747648Y-147501136D01*
X153952594Y-147542312D01*
X154096787Y-147572489D01*
X154190341Y-147596304D01*
X154243371Y-147618397D01*
X154265989Y-147643403D01*
X154268311Y-147675960D01*
X154260450Y-147720707D01*
X154257951Y-147735124D01*
X154252164Y-147861403D01*
X154265327Y-147978244D01*
X154275436Y-148101771D01*
X154261955Y-148215789D01*
X154192756Y-148356047D01*
X154075953Y-148443387D01*
X153917104Y-148474289D01*
X153857797Y-148471636D01*
X153788091Y-148454870D01*
X153788091Y-148116996D01*
X153858603Y-148097834D01*
X153892981Y-148062791D01*
X153918324Y-147980978D01*
X153889406Y-147908674D01*
X153820327Y-147871015D01*
X153785473Y-147871156D01*
X153726691Y-147897746D01*
X153706818Y-147967941D01*
X153706285Y-147990789D01*
X153730264Y-148078594D01*
X153788091Y-148116996D01*
X153788091Y-148454870D01*
X153673716Y-148427360D01*
X153521689Y-148327514D01*
X153403696Y-148187521D01*
X153350896Y-148093017D01*
X153330697Y-147995053D01*
X153334110Y-147873357D01*
X153337471Y-147767189D01*
X153329761Y-147698033D01*
X153319199Y-147682857D01*
X153299233Y-147650941D01*
X153289259Y-147572467D01*
X153289000Y-147555857D01*
X153290077Y-147495751D01*
G36*
X153308134Y-142063748D02*
X153352165Y-141960549D01*
X153431964Y-141895653D01*
X153477709Y-141884003D01*
X153543025Y-141884997D01*
X153578427Y-141920471D01*
X153602345Y-142009148D01*
X153602716Y-142011003D01*
X153618687Y-142109381D01*
X153623313Y-142177653D01*
X153622389Y-142185572D01*
X153635720Y-142184749D01*
X153678643Y-142137261D01*
X153692705Y-142119238D01*
X153806408Y-142010127D01*
X153930215Y-141971662D01*
X154064786Y-141999984D01*
X154208160Y-142089139D01*
X154299843Y-142207390D01*
X154334707Y-142340892D01*
X154307623Y-142475796D01*
X154266080Y-142543535D01*
X154200386Y-142599897D01*
X154121495Y-142634438D01*
X154052386Y-142641520D01*
X154016035Y-142615504D01*
X154014714Y-142605220D01*
X154002779Y-142548550D01*
X153996571Y-142529958D01*
X153996571Y-142348858D01*
X154014714Y-142330715D01*
X153996571Y-142312572D01*
X153978428Y-142330715D01*
X153996571Y-142348858D01*
X153996571Y-142529958D01*
X153979079Y-142477569D01*
X153943444Y-142383842D01*
X153866009Y-142461277D01*
X153766139Y-142514374D01*
X153637868Y-142520362D01*
X153505923Y-142481571D01*
X153412989Y-142418600D01*
X153336311Y-142311231D01*
X153302105Y-142186795D01*
X153308134Y-142063748D01*
X153308134Y-142063748D01*
G37*
X153308134Y-142063748D02*
X153352165Y-141960549D01*
X153431964Y-141895653D01*
X153477709Y-141884003D01*
X153543025Y-141884997D01*
X153578427Y-141920471D01*
X153602345Y-142009148D01*
X153602716Y-142011003D01*
X153618687Y-142109381D01*
X153623313Y-142177653D01*
X153622389Y-142185572D01*
X153635720Y-142184749D01*
X153678643Y-142137261D01*
X153692705Y-142119238D01*
X153806408Y-142010127D01*
X153930215Y-141971662D01*
X154064786Y-141999984D01*
X154208160Y-142089139D01*
X154299843Y-142207390D01*
X154334707Y-142340892D01*
X154307623Y-142475796D01*
X154266080Y-142543535D01*
X154200386Y-142599897D01*
X154121495Y-142634438D01*
X154052386Y-142641520D01*
X154016035Y-142615504D01*
X154014714Y-142605220D01*
X154002779Y-142548550D01*
X153996571Y-142529958D01*
X153996571Y-142348858D01*
X154014714Y-142330715D01*
X153996571Y-142312572D01*
X153978428Y-142330715D01*
X153996571Y-142348858D01*
X153996571Y-142529958D01*
X153979079Y-142477569D01*
X153943444Y-142383842D01*
X153866009Y-142461277D01*
X153766139Y-142514374D01*
X153637868Y-142520362D01*
X153505923Y-142481571D01*
X153412989Y-142418600D01*
X153336311Y-142311231D01*
X153302105Y-142186795D01*
X153308134Y-142063748D01*
G36*
X153304108Y-143389166D02*
X153313690Y-143311289D01*
X153323367Y-143292286D01*
X153369360Y-143299553D01*
X153469385Y-143318974D01*
X153606627Y-143346984D01*
X153764269Y-143380015D01*
X153925497Y-143414502D01*
X154073493Y-143446876D01*
X154191442Y-143473571D01*
X154262528Y-143491021D01*
X154268714Y-143492803D01*
X154295493Y-143516704D01*
X154313469Y-143577036D01*
X154324683Y-143685748D01*
X154331176Y-143854791D01*
X154331274Y-143858943D01*
X154339405Y-144208567D01*
X154216974Y-144330998D01*
X154119487Y-144413026D01*
X154026472Y-144447962D01*
X153954843Y-144452632D01*
X153869939Y-144437865D01*
X153869939Y-144036026D01*
X153927099Y-143995704D01*
X153935181Y-143915100D01*
X153914467Y-143845391D01*
X153858741Y-143820381D01*
X153815143Y-143818429D01*
X153731911Y-143832078D01*
X153697798Y-143881323D01*
X153695463Y-143894176D01*
X153712935Y-143981968D01*
X153778856Y-144035156D01*
X153869939Y-144036026D01*
X153869939Y-144437865D01*
X153758298Y-144418446D01*
X153571702Y-144326998D01*
X153421676Y-144191655D01*
X153412959Y-144180525D01*
X153365877Y-144113795D01*
X153335153Y-144049824D01*
X153316754Y-143970293D01*
X153306646Y-143856886D01*
X153300797Y-143691286D01*
X153300227Y-143668575D01*
X153299311Y-143513283D01*
X153304108Y-143389166D01*
X153304108Y-143389166D01*
G37*
X153304108Y-143389166D02*
X153313690Y-143311289D01*
X153323367Y-143292286D01*
X153369360Y-143299553D01*
X153469385Y-143318974D01*
X153606627Y-143346984D01*
X153764269Y-143380015D01*
X153925497Y-143414502D01*
X154073493Y-143446876D01*
X154191442Y-143473571D01*
X154262528Y-143491021D01*
X154268714Y-143492803D01*
X154295493Y-143516704D01*
X154313469Y-143577036D01*
X154324683Y-143685748D01*
X154331176Y-143854791D01*
X154331274Y-143858943D01*
X154339405Y-144208567D01*
X154216974Y-144330998D01*
X154119487Y-144413026D01*
X154026472Y-144447962D01*
X153954843Y-144452632D01*
X153869939Y-144437865D01*
X153869939Y-144036026D01*
X153927099Y-143995704D01*
X153935181Y-143915100D01*
X153914467Y-143845391D01*
X153858741Y-143820381D01*
X153815143Y-143818429D01*
X153731911Y-143832078D01*
X153697798Y-143881323D01*
X153695463Y-143894176D01*
X153712935Y-143981968D01*
X153778856Y-144035156D01*
X153869939Y-144036026D01*
X153869939Y-144437865D01*
X153758298Y-144418446D01*
X153571702Y-144326998D01*
X153421676Y-144191655D01*
X153412959Y-144180525D01*
X153365877Y-144113795D01*
X153335153Y-144049824D01*
X153316754Y-143970293D01*
X153306646Y-143856886D01*
X153300797Y-143691286D01*
X153300227Y-143668575D01*
X153299311Y-143513283D01*
X153304108Y-143389166D01*
G36*
X153327843Y-142720185D02*
X153364205Y-142662180D01*
X153449103Y-142581280D01*
X153520672Y-142571659D01*
X153579177Y-142633386D01*
X153614979Y-142727741D01*
X153660103Y-142888911D01*
X153749920Y-142782170D01*
X153852319Y-142696803D01*
X153947170Y-142675429D01*
X154099352Y-142703110D01*
X154225346Y-142776855D01*
X154317220Y-142882711D01*
X154367044Y-143006728D01*
X154366884Y-143134956D01*
X154308811Y-143253444D01*
X154288506Y-143275793D01*
X154188384Y-143350940D01*
X154107162Y-143356207D01*
X154043482Y-143291397D01*
X154019433Y-143237245D01*
X153996571Y-143174022D01*
X153996571Y-143074572D01*
X154014714Y-143056429D01*
X153996571Y-143038286D01*
X153978428Y-143056429D01*
X153996571Y-143074572D01*
X153996571Y-143174022D01*
X153973288Y-143109633D01*
X153880250Y-143182817D01*
X153779921Y-143241280D01*
X153675455Y-143250196D01*
X153542271Y-143211064D01*
X153526101Y-143204430D01*
X153400213Y-143118540D01*
X153321476Y-142996707D01*
X153295487Y-142857675D01*
X153327843Y-142720185D01*
X153327843Y-142720185D01*
G37*
X153327843Y-142720185D02*
X153364205Y-142662180D01*
X153449103Y-142581280D01*
X153520672Y-142571659D01*
X153579177Y-142633386D01*
X153614979Y-142727741D01*
X153660103Y-142888911D01*
X153749920Y-142782170D01*
X153852319Y-142696803D01*
X153947170Y-142675429D01*
X154099352Y-142703110D01*
X154225346Y-142776855D01*
X154317220Y-142882711D01*
X154367044Y-143006728D01*
X154366884Y-143134956D01*
X154308811Y-143253444D01*
X154288506Y-143275793D01*
X154188384Y-143350940D01*
X154107162Y-143356207D01*
X154043482Y-143291397D01*
X154019433Y-143237245D01*
X153996571Y-143174022D01*
X153996571Y-143074572D01*
X154014714Y-143056429D01*
X153996571Y-143038286D01*
X153978428Y-143056429D01*
X153996571Y-143074572D01*
X153996571Y-143174022D01*
X153973288Y-143109633D01*
X153880250Y-143182817D01*
X153779921Y-143241280D01*
X153675455Y-143250196D01*
X153542271Y-143211064D01*
X153526101Y-143204430D01*
X153400213Y-143118540D01*
X153321476Y-142996707D01*
X153295487Y-142857675D01*
X153327843Y-142720185D01*
G36*
X153326784Y-148450713D02*
X153336542Y-148407733D01*
X153362453Y-148387652D01*
X153412410Y-148392643D01*
X153494306Y-148424878D01*
X153616035Y-148486530D01*
X153785489Y-148579772D01*
X153997700Y-148699496D01*
X154522714Y-148996625D01*
X154522714Y-149156170D01*
X154518916Y-149252282D01*
X154509332Y-149309116D01*
X154504021Y-149315715D01*
X154465106Y-149299212D01*
X154382075Y-149256164D01*
X154284141Y-149202171D01*
X154082953Y-149088628D01*
X153719305Y-149161148D01*
X153544285Y-149194587D01*
X153428854Y-149208914D01*
X153361587Y-149199962D01*
X153331057Y-149163563D01*
X153325837Y-149095550D01*
X153331800Y-149019812D01*
X153351234Y-148932320D01*
X153398295Y-148893837D01*
X153434142Y-148886285D01*
X153528047Y-148862677D01*
X153551005Y-148825417D01*
X153503248Y-148772860D01*
X153454595Y-148741314D01*
X153370251Y-148682465D01*
X153333465Y-148618795D01*
X153325287Y-148517057D01*
X153325285Y-148514421D01*
X153326784Y-148450713D01*
X153326784Y-148450713D01*
G37*
X153326784Y-148450713D02*
X153336542Y-148407733D01*
X153362453Y-148387652D01*
X153412410Y-148392643D01*
X153494306Y-148424878D01*
X153616035Y-148486530D01*
X153785489Y-148579772D01*
X153997700Y-148699496D01*
X154522714Y-148996625D01*
X154522714Y-149156170D01*
X154518916Y-149252282D01*
X154509332Y-149309116D01*
X154504021Y-149315715D01*
X154465106Y-149299212D01*
X154382075Y-149256164D01*
X154284141Y-149202171D01*
X154082953Y-149088628D01*
X153719305Y-149161148D01*
X153544285Y-149194587D01*
X153428854Y-149208914D01*
X153361587Y-149199962D01*
X153331057Y-149163563D01*
X153325837Y-149095550D01*
X153331800Y-149019812D01*
X153351234Y-148932320D01*
X153398295Y-148893837D01*
X153434142Y-148886285D01*
X153528047Y-148862677D01*
X153551005Y-148825417D01*
X153503248Y-148772860D01*
X153454595Y-148741314D01*
X153370251Y-148682465D01*
X153333465Y-148618795D01*
X153325287Y-148517057D01*
X153325285Y-148514421D01*
X153326784Y-148450713D01*
G36*
X153193727Y-145555046D02*
X153203263Y-145531720D01*
X153215924Y-145455396D01*
X153222719Y-145333362D01*
X153222240Y-145195401D01*
X153232855Y-144990655D01*
X153285565Y-144831172D01*
X153389019Y-144697809D01*
X153482160Y-144620051D01*
X153607896Y-144563617D01*
X153767858Y-144540761D01*
X153932586Y-144551534D01*
X154072617Y-144595989D01*
X154109597Y-144618957D01*
X154258527Y-144770512D01*
X154348982Y-144951846D01*
X154376839Y-145148952D01*
X154337978Y-145347821D01*
X154329981Y-145367946D01*
X154302915Y-145435213D01*
X154296164Y-145480640D01*
X154320362Y-145511477D01*
X154386144Y-145534975D01*
X154504146Y-145558382D01*
X154644022Y-145582039D01*
X154921857Y-145628723D01*
X154921857Y-146001004D01*
X154140558Y-145829574D01*
X154087285Y-145817916D01*
X154087285Y-144930663D01*
X154087285Y-144839330D01*
X154077702Y-144764766D01*
X154060071Y-144733429D01*
X154006700Y-144730543D01*
X153957113Y-144740359D01*
X153911366Y-144757733D01*
X153913103Y-144782538D01*
X153966684Y-144831736D01*
X153984327Y-144846260D01*
X154087285Y-144930663D01*
X154087285Y-145817916D01*
X153852632Y-145766561D01*
X153627945Y-145717255D01*
X153575450Y-145705453D01*
X153575450Y-145507280D01*
X153709311Y-145493171D01*
X153759234Y-145480859D01*
X153808785Y-145464234D01*
X153808709Y-145446121D01*
X153751954Y-145416385D01*
X153702348Y-145394967D01*
X153702348Y-145318120D01*
X153798792Y-145302060D01*
X153858584Y-145242863D01*
X153871638Y-145162157D01*
X153827871Y-145081568D01*
X153817140Y-145071944D01*
X153740822Y-145041768D01*
X153681068Y-145040286D01*
X153623357Y-145061627D01*
X153600292Y-145118136D01*
X153597428Y-145179143D01*
X153604685Y-145265979D01*
X153638575Y-145304814D01*
X153702348Y-145318120D01*
X153702348Y-145394967D01*
X153698227Y-145393187D01*
X153584053Y-145325551D01*
X153501328Y-145241537D01*
X153492517Y-145227047D01*
X153437048Y-145124715D01*
X153436091Y-145233572D01*
X153447584Y-145384172D01*
X153491122Y-145473178D01*
X153575450Y-145507280D01*
X153575450Y-145705453D01*
X153458971Y-145679265D01*
X153338186Y-145650199D01*
X153258065Y-145627667D01*
X153211084Y-145609276D01*
X153189717Y-145592637D01*
X153186440Y-145575357D01*
X153193727Y-145555046D01*
X153193727Y-145555046D01*
G37*
X153193727Y-145555046D02*
X153203263Y-145531720D01*
X153215924Y-145455396D01*
X153222719Y-145333362D01*
X153222240Y-145195401D01*
X153232855Y-144990655D01*
X153285565Y-144831172D01*
X153389019Y-144697809D01*
X153482160Y-144620051D01*
X153607896Y-144563617D01*
X153767858Y-144540761D01*
X153932586Y-144551534D01*
X154072617Y-144595989D01*
X154109597Y-144618957D01*
X154258527Y-144770512D01*
X154348982Y-144951846D01*
X154376839Y-145148952D01*
X154337978Y-145347821D01*
X154329981Y-145367946D01*
X154302915Y-145435213D01*
X154296164Y-145480640D01*
X154320362Y-145511477D01*
X154386144Y-145534975D01*
X154504146Y-145558382D01*
X154644022Y-145582039D01*
X154921857Y-145628723D01*
X154921857Y-146001004D01*
X154140558Y-145829574D01*
X154087285Y-145817916D01*
X154087285Y-144930663D01*
X154087285Y-144839330D01*
X154077702Y-144764766D01*
X154060071Y-144733429D01*
X154006700Y-144730543D01*
X153957113Y-144740359D01*
X153911366Y-144757733D01*
X153913103Y-144782538D01*
X153966684Y-144831736D01*
X153984327Y-144846260D01*
X154087285Y-144930663D01*
X154087285Y-145817916D01*
X153852632Y-145766561D01*
X153627945Y-145717255D01*
X153575450Y-145705453D01*
X153575450Y-145507280D01*
X153709311Y-145493171D01*
X153759234Y-145480859D01*
X153808785Y-145464234D01*
X153808709Y-145446121D01*
X153751954Y-145416385D01*
X153702348Y-145394967D01*
X153702348Y-145318120D01*
X153798792Y-145302060D01*
X153858584Y-145242863D01*
X153871638Y-145162157D01*
X153827871Y-145081568D01*
X153817140Y-145071944D01*
X153740822Y-145041768D01*
X153681068Y-145040286D01*
X153623357Y-145061627D01*
X153600292Y-145118136D01*
X153597428Y-145179143D01*
X153604685Y-145265979D01*
X153638575Y-145304814D01*
X153702348Y-145318120D01*
X153702348Y-145394967D01*
X153698227Y-145393187D01*
X153584053Y-145325551D01*
X153501328Y-145241537D01*
X153492517Y-145227047D01*
X153437048Y-145124715D01*
X153436091Y-145233572D01*
X153447584Y-145384172D01*
X153491122Y-145473178D01*
X153575450Y-145507280D01*
X153575450Y-145705453D01*
X153458971Y-145679265D01*
X153338186Y-145650199D01*
X153258065Y-145627667D01*
X153211084Y-145609276D01*
X153189717Y-145592637D01*
X153186440Y-145575357D01*
X153193727Y-145555046D01*
G36*
X136302773Y-146544954D02*
X136293237Y-146568280D01*
X136280576Y-146644604D01*
X136273781Y-146766638D01*
X136274260Y-146904599D01*
X136263645Y-147109345D01*
X136210935Y-147268828D01*
X136107481Y-147402191D01*
X136014340Y-147479949D01*
X135888604Y-147536383D01*
X135728642Y-147559239D01*
X135563914Y-147548466D01*
X135423883Y-147504011D01*
X135386903Y-147481043D01*
X135237973Y-147329488D01*
X135147518Y-147148154D01*
X135119661Y-146951048D01*
X135158522Y-146752179D01*
X135166519Y-146732054D01*
X135193585Y-146664787D01*
X135200336Y-146619360D01*
X135176138Y-146588523D01*
X135110356Y-146565025D01*
X134992354Y-146541618D01*
X134852478Y-146517961D01*
X134574643Y-146471277D01*
X134574643Y-146098996D01*
X135355942Y-146270426D01*
X135409215Y-146282084D01*
X135409215Y-147169337D01*
X135409215Y-147260670D01*
X135418798Y-147335234D01*
X135436429Y-147366571D01*
X135489800Y-147369457D01*
X135539387Y-147359641D01*
X135585134Y-147342267D01*
X135583397Y-147317462D01*
X135529816Y-147268264D01*
X135512173Y-147253740D01*
X135409215Y-147169337D01*
X135409215Y-146282084D01*
X135643868Y-146333439D01*
X135868555Y-146382745D01*
X135921050Y-146394547D01*
X135921050Y-146592720D01*
X135787189Y-146606829D01*
X135737266Y-146619141D01*
X135687715Y-146635766D01*
X135687791Y-146653879D01*
X135744546Y-146683615D01*
X135794152Y-146705033D01*
X135794152Y-146781880D01*
X135697708Y-146797940D01*
X135637916Y-146857137D01*
X135624862Y-146937843D01*
X135668629Y-147018432D01*
X135679360Y-147028056D01*
X135755678Y-147058232D01*
X135815432Y-147059714D01*
X135873143Y-147038373D01*
X135896208Y-146981864D01*
X135899072Y-146920857D01*
X135891815Y-146834021D01*
X135857925Y-146795186D01*
X135794152Y-146781880D01*
X135794152Y-146705033D01*
X135798273Y-146706813D01*
X135912447Y-146774449D01*
X135995172Y-146858463D01*
X136003983Y-146872953D01*
X136059452Y-146975285D01*
X136060409Y-146866428D01*
X136048916Y-146715828D01*
X136005378Y-146626822D01*
X135921050Y-146592720D01*
X135921050Y-146394547D01*
X136037529Y-146420735D01*
X136158314Y-146449801D01*
X136238435Y-146472333D01*
X136285416Y-146490724D01*
X136306783Y-146507363D01*
X136310060Y-146524643D01*
X136302773Y-146544954D01*
X136302773Y-146544954D01*
G37*
X136302773Y-146544954D02*
X136293237Y-146568280D01*
X136280576Y-146644604D01*
X136273781Y-146766638D01*
X136274260Y-146904599D01*
X136263645Y-147109345D01*
X136210935Y-147268828D01*
X136107481Y-147402191D01*
X136014340Y-147479949D01*
X135888604Y-147536383D01*
X135728642Y-147559239D01*
X135563914Y-147548466D01*
X135423883Y-147504011D01*
X135386903Y-147481043D01*
X135237973Y-147329488D01*
X135147518Y-147148154D01*
X135119661Y-146951048D01*
X135158522Y-146752179D01*
X135166519Y-146732054D01*
X135193585Y-146664787D01*
X135200336Y-146619360D01*
X135176138Y-146588523D01*
X135110356Y-146565025D01*
X134992354Y-146541618D01*
X134852478Y-146517961D01*
X134574643Y-146471277D01*
X134574643Y-146098996D01*
X135355942Y-146270426D01*
X135409215Y-146282084D01*
X135409215Y-147169337D01*
X135409215Y-147260670D01*
X135418798Y-147335234D01*
X135436429Y-147366571D01*
X135489800Y-147369457D01*
X135539387Y-147359641D01*
X135585134Y-147342267D01*
X135583397Y-147317462D01*
X135529816Y-147268264D01*
X135512173Y-147253740D01*
X135409215Y-147169337D01*
X135409215Y-146282084D01*
X135643868Y-146333439D01*
X135868555Y-146382745D01*
X135921050Y-146394547D01*
X135921050Y-146592720D01*
X135787189Y-146606829D01*
X135737266Y-146619141D01*
X135687715Y-146635766D01*
X135687791Y-146653879D01*
X135744546Y-146683615D01*
X135794152Y-146705033D01*
X135794152Y-146781880D01*
X135697708Y-146797940D01*
X135637916Y-146857137D01*
X135624862Y-146937843D01*
X135668629Y-147018432D01*
X135679360Y-147028056D01*
X135755678Y-147058232D01*
X135815432Y-147059714D01*
X135873143Y-147038373D01*
X135896208Y-146981864D01*
X135899072Y-146920857D01*
X135891815Y-146834021D01*
X135857925Y-146795186D01*
X135794152Y-146781880D01*
X135794152Y-146705033D01*
X135798273Y-146706813D01*
X135912447Y-146774449D01*
X135995172Y-146858463D01*
X136003983Y-146872953D01*
X136059452Y-146975285D01*
X136060409Y-146866428D01*
X136048916Y-146715828D01*
X136005378Y-146626822D01*
X135921050Y-146592720D01*
X135921050Y-146394547D01*
X136037529Y-146420735D01*
X136158314Y-146449801D01*
X136238435Y-146472333D01*
X136285416Y-146490724D01*
X136306783Y-146507363D01*
X136310060Y-146524643D01*
X136302773Y-146544954D01*
G36*
X136169716Y-143649287D02*
X136159958Y-143692267D01*
X136134047Y-143712348D01*
X136084090Y-143707357D01*
X136002194Y-143675122D01*
X135880465Y-143613470D01*
X135711011Y-143520228D01*
X135498800Y-143400504D01*
X134973786Y-143103375D01*
X134973786Y-142943830D01*
X134977584Y-142847718D01*
X134987168Y-142790884D01*
X134992479Y-142784285D01*
X135031394Y-142800788D01*
X135114425Y-142843836D01*
X135212359Y-142897829D01*
X135413547Y-143011372D01*
X135777195Y-142938852D01*
X135952215Y-142905413D01*
X136067646Y-142891086D01*
X136134913Y-142900038D01*
X136165443Y-142936437D01*
X136170663Y-143004450D01*
X136164700Y-143080188D01*
X136145266Y-143167680D01*
X136098205Y-143206163D01*
X136062358Y-143213715D01*
X135968453Y-143237323D01*
X135945495Y-143274583D01*
X135993252Y-143327140D01*
X136041905Y-143358686D01*
X136126249Y-143417535D01*
X136163035Y-143481205D01*
X136171213Y-143582943D01*
X136171215Y-143585579D01*
X136169716Y-143649287D01*
X136169716Y-143649287D01*
G37*
X136169716Y-143649287D02*
X136159958Y-143692267D01*
X136134047Y-143712348D01*
X136084090Y-143707357D01*
X136002194Y-143675122D01*
X135880465Y-143613470D01*
X135711011Y-143520228D01*
X135498800Y-143400504D01*
X134973786Y-143103375D01*
X134973786Y-142943830D01*
X134977584Y-142847718D01*
X134987168Y-142790884D01*
X134992479Y-142784285D01*
X135031394Y-142800788D01*
X135114425Y-142843836D01*
X135212359Y-142897829D01*
X135413547Y-143011372D01*
X135777195Y-142938852D01*
X135952215Y-142905413D01*
X136067646Y-142891086D01*
X136134913Y-142900038D01*
X136165443Y-142936437D01*
X136170663Y-143004450D01*
X136164700Y-143080188D01*
X136145266Y-143167680D01*
X136098205Y-143206163D01*
X136062358Y-143213715D01*
X135968453Y-143237323D01*
X135945495Y-143274583D01*
X135993252Y-143327140D01*
X136041905Y-143358686D01*
X136126249Y-143417535D01*
X136163035Y-143481205D01*
X136171213Y-143582943D01*
X136171215Y-143585579D01*
X136169716Y-143649287D01*
G36*
X136168657Y-149379815D02*
X136132295Y-149437820D01*
X136047397Y-149518720D01*
X135975828Y-149528341D01*
X135917323Y-149466614D01*
X135881521Y-149372259D01*
X135836397Y-149211089D01*
X135746580Y-149317830D01*
X135644181Y-149403197D01*
X135549330Y-149424571D01*
X135397148Y-149396890D01*
X135271154Y-149323145D01*
X135179280Y-149217289D01*
X135129456Y-149093272D01*
X135129616Y-148965044D01*
X135187689Y-148846556D01*
X135207994Y-148824207D01*
X135308116Y-148749060D01*
X135389338Y-148743793D01*
X135453018Y-148808603D01*
X135477067Y-148862755D01*
X135499929Y-148925978D01*
X135499929Y-149025428D01*
X135481786Y-149043571D01*
X135499929Y-149061714D01*
X135518072Y-149043571D01*
X135499929Y-149025428D01*
X135499929Y-148925978D01*
X135523212Y-148990367D01*
X135616250Y-148917183D01*
X135716579Y-148858720D01*
X135821045Y-148849804D01*
X135954229Y-148888936D01*
X135970399Y-148895570D01*
X136096287Y-148981460D01*
X136175024Y-149103293D01*
X136201013Y-149242325D01*
X136168657Y-149379815D01*
X136168657Y-149379815D01*
G37*
X136168657Y-149379815D02*
X136132295Y-149437820D01*
X136047397Y-149518720D01*
X135975828Y-149528341D01*
X135917323Y-149466614D01*
X135881521Y-149372259D01*
X135836397Y-149211089D01*
X135746580Y-149317830D01*
X135644181Y-149403197D01*
X135549330Y-149424571D01*
X135397148Y-149396890D01*
X135271154Y-149323145D01*
X135179280Y-149217289D01*
X135129456Y-149093272D01*
X135129616Y-148965044D01*
X135187689Y-148846556D01*
X135207994Y-148824207D01*
X135308116Y-148749060D01*
X135389338Y-148743793D01*
X135453018Y-148808603D01*
X135477067Y-148862755D01*
X135499929Y-148925978D01*
X135499929Y-149025428D01*
X135481786Y-149043571D01*
X135499929Y-149061714D01*
X135518072Y-149043571D01*
X135499929Y-149025428D01*
X135499929Y-148925978D01*
X135523212Y-148990367D01*
X135616250Y-148917183D01*
X135716579Y-148858720D01*
X135821045Y-148849804D01*
X135954229Y-148888936D01*
X135970399Y-148895570D01*
X136096287Y-148981460D01*
X136175024Y-149103293D01*
X136201013Y-149242325D01*
X136168657Y-149379815D01*
G36*
X136192392Y-148710834D02*
X136182810Y-148788711D01*
X136173133Y-148807714D01*
X136127140Y-148800447D01*
X136027115Y-148781026D01*
X135889873Y-148753016D01*
X135732231Y-148719985D01*
X135571003Y-148685498D01*
X135423007Y-148653124D01*
X135305058Y-148626429D01*
X135233972Y-148608979D01*
X135227786Y-148607197D01*
X135201007Y-148583296D01*
X135183031Y-148522964D01*
X135171817Y-148414252D01*
X135165324Y-148245209D01*
X135165226Y-148241057D01*
X135157095Y-147891433D01*
X135279526Y-147769002D01*
X135377013Y-147686974D01*
X135470028Y-147652038D01*
X135541657Y-147647368D01*
X135626561Y-147662135D01*
X135626561Y-148063974D01*
X135569401Y-148104296D01*
X135561319Y-148184900D01*
X135582033Y-148254609D01*
X135637759Y-148279619D01*
X135681357Y-148281571D01*
X135764589Y-148267922D01*
X135798702Y-148218677D01*
X135801037Y-148205824D01*
X135783565Y-148118032D01*
X135717644Y-148064844D01*
X135626561Y-148063974D01*
X135626561Y-147662135D01*
X135738202Y-147681554D01*
X135924798Y-147773002D01*
X136074824Y-147908345D01*
X136083541Y-147919475D01*
X136130623Y-147986205D01*
X136161347Y-148050176D01*
X136179746Y-148129707D01*
X136189854Y-148243114D01*
X136195703Y-148408714D01*
X136196273Y-148431425D01*
X136197189Y-148586717D01*
X136192392Y-148710834D01*
X136192392Y-148710834D01*
G37*
X136192392Y-148710834D02*
X136182810Y-148788711D01*
X136173133Y-148807714D01*
X136127140Y-148800447D01*
X136027115Y-148781026D01*
X135889873Y-148753016D01*
X135732231Y-148719985D01*
X135571003Y-148685498D01*
X135423007Y-148653124D01*
X135305058Y-148626429D01*
X135233972Y-148608979D01*
X135227786Y-148607197D01*
X135201007Y-148583296D01*
X135183031Y-148522964D01*
X135171817Y-148414252D01*
X135165324Y-148245209D01*
X135165226Y-148241057D01*
X135157095Y-147891433D01*
X135279526Y-147769002D01*
X135377013Y-147686974D01*
X135470028Y-147652038D01*
X135541657Y-147647368D01*
X135626561Y-147662135D01*
X135626561Y-148063974D01*
X135569401Y-148104296D01*
X135561319Y-148184900D01*
X135582033Y-148254609D01*
X135637759Y-148279619D01*
X135681357Y-148281571D01*
X135764589Y-148267922D01*
X135798702Y-148218677D01*
X135801037Y-148205824D01*
X135783565Y-148118032D01*
X135717644Y-148064844D01*
X135626561Y-148063974D01*
X135626561Y-147662135D01*
X135738202Y-147681554D01*
X135924798Y-147773002D01*
X136074824Y-147908345D01*
X136083541Y-147919475D01*
X136130623Y-147986205D01*
X136161347Y-148050176D01*
X136179746Y-148129707D01*
X136189854Y-148243114D01*
X136195703Y-148408714D01*
X136196273Y-148431425D01*
X136197189Y-148586717D01*
X136192392Y-148710834D01*
G36*
X136188366Y-150036252D02*
X136144335Y-150139451D01*
X136064536Y-150204347D01*
X136018791Y-150215997D01*
X135953475Y-150215003D01*
X135918073Y-150179529D01*
X135894155Y-150090852D01*
X135893784Y-150088997D01*
X135877813Y-149990619D01*
X135873187Y-149922347D01*
X135874111Y-149914428D01*
X135860780Y-149915251D01*
X135817857Y-149962739D01*
X135803795Y-149980762D01*
X135690092Y-150089873D01*
X135566285Y-150128338D01*
X135431714Y-150100016D01*
X135288340Y-150010861D01*
X135196657Y-149892610D01*
X135161793Y-149759108D01*
X135188877Y-149624204D01*
X135230420Y-149556465D01*
X135296114Y-149500103D01*
X135375005Y-149465562D01*
X135444114Y-149458480D01*
X135480465Y-149484496D01*
X135481786Y-149494780D01*
X135493721Y-149551450D01*
X135499929Y-149570042D01*
X135499929Y-149751142D01*
X135481786Y-149769285D01*
X135499929Y-149787428D01*
X135518072Y-149769285D01*
X135499929Y-149751142D01*
X135499929Y-149570042D01*
X135517421Y-149622431D01*
X135553056Y-149716158D01*
X135630491Y-149638723D01*
X135730361Y-149585626D01*
X135858632Y-149579638D01*
X135990577Y-149618429D01*
X136083511Y-149681400D01*
X136160189Y-149788769D01*
X136194395Y-149913205D01*
X136188366Y-150036252D01*
X136188366Y-150036252D01*
G37*
X136188366Y-150036252D02*
X136144335Y-150139451D01*
X136064536Y-150204347D01*
X136018791Y-150215997D01*
X135953475Y-150215003D01*
X135918073Y-150179529D01*
X135894155Y-150090852D01*
X135893784Y-150088997D01*
X135877813Y-149990619D01*
X135873187Y-149922347D01*
X135874111Y-149914428D01*
X135860780Y-149915251D01*
X135817857Y-149962739D01*
X135803795Y-149980762D01*
X135690092Y-150089873D01*
X135566285Y-150128338D01*
X135431714Y-150100016D01*
X135288340Y-150010861D01*
X135196657Y-149892610D01*
X135161793Y-149759108D01*
X135188877Y-149624204D01*
X135230420Y-149556465D01*
X135296114Y-149500103D01*
X135375005Y-149465562D01*
X135444114Y-149458480D01*
X135480465Y-149484496D01*
X135481786Y-149494780D01*
X135493721Y-149551450D01*
X135499929Y-149570042D01*
X135499929Y-149751142D01*
X135481786Y-149769285D01*
X135499929Y-149787428D01*
X135518072Y-149769285D01*
X135499929Y-149751142D01*
X135499929Y-149570042D01*
X135517421Y-149622431D01*
X135553056Y-149716158D01*
X135630491Y-149638723D01*
X135730361Y-149585626D01*
X135858632Y-149579638D01*
X135990577Y-149618429D01*
X136083511Y-149681400D01*
X136160189Y-149788769D01*
X136194395Y-149913205D01*
X136188366Y-150036252D01*
G36*
X136206423Y-144604249D02*
X136195557Y-144643167D01*
X136163451Y-144662264D01*
X136098652Y-144662905D01*
X135989708Y-144646458D01*
X135825169Y-144614287D01*
X135748852Y-144598864D01*
X135543906Y-144557688D01*
X135399713Y-144527511D01*
X135306159Y-144503696D01*
X135253129Y-144481603D01*
X135230511Y-144456597D01*
X135228189Y-144424040D01*
X135236050Y-144379293D01*
X135238549Y-144364876D01*
X135244336Y-144238597D01*
X135231173Y-144121756D01*
X135221064Y-143998229D01*
X135234545Y-143884211D01*
X135303744Y-143743953D01*
X135420547Y-143656613D01*
X135579396Y-143625711D01*
X135638703Y-143628364D01*
X135708409Y-143645130D01*
X135708409Y-143983004D01*
X135637897Y-144002166D01*
X135603519Y-144037209D01*
X135578176Y-144119022D01*
X135607094Y-144191326D01*
X135676173Y-144228985D01*
X135711027Y-144228844D01*
X135769809Y-144202254D01*
X135789682Y-144132059D01*
X135790215Y-144109211D01*
X135766236Y-144021406D01*
X135708409Y-143983004D01*
X135708409Y-143645130D01*
X135822784Y-143672640D01*
X135974811Y-143772486D01*
X136092804Y-143912479D01*
X136145604Y-144006983D01*
X136165803Y-144104947D01*
X136162390Y-144226643D01*
X136159029Y-144332811D01*
X136166739Y-144401967D01*
X136177301Y-144417143D01*
X136197267Y-144449059D01*
X136207241Y-144527533D01*
X136207500Y-144544143D01*
X136206423Y-144604249D01*
X136206423Y-144604249D01*
G37*
X136206423Y-144604249D02*
X136195557Y-144643167D01*
X136163451Y-144662264D01*
X136098652Y-144662905D01*
X135989708Y-144646458D01*
X135825169Y-144614287D01*
X135748852Y-144598864D01*
X135543906Y-144557688D01*
X135399713Y-144527511D01*
X135306159Y-144503696D01*
X135253129Y-144481603D01*
X135230511Y-144456597D01*
X135228189Y-144424040D01*
X135236050Y-144379293D01*
X135238549Y-144364876D01*
X135244336Y-144238597D01*
X135231173Y-144121756D01*
X135221064Y-143998229D01*
X135234545Y-143884211D01*
X135303744Y-143743953D01*
X135420547Y-143656613D01*
X135579396Y-143625711D01*
X135638703Y-143628364D01*
X135708409Y-143645130D01*
X135708409Y-143983004D01*
X135637897Y-144002166D01*
X135603519Y-144037209D01*
X135578176Y-144119022D01*
X135607094Y-144191326D01*
X135676173Y-144228985D01*
X135711027Y-144228844D01*
X135769809Y-144202254D01*
X135789682Y-144132059D01*
X135790215Y-144109211D01*
X135766236Y-144021406D01*
X135708409Y-143983004D01*
X135708409Y-143645130D01*
X135822784Y-143672640D01*
X135974811Y-143772486D01*
X136092804Y-143912479D01*
X136145604Y-144006983D01*
X136165803Y-144104947D01*
X136162390Y-144226643D01*
X136159029Y-144332811D01*
X136166739Y-144401967D01*
X136177301Y-144417143D01*
X136197267Y-144449059D01*
X136207241Y-144527533D01*
X136207500Y-144544143D01*
X136206423Y-144604249D01*
G36*
X136199123Y-146059249D02*
X136116893Y-146184142D01*
X136089053Y-146207770D01*
X136032773Y-146245080D01*
X135977271Y-146262924D01*
X135901249Y-146263000D01*
X135783407Y-146247011D01*
X135722819Y-146237007D01*
X135569760Y-146209320D01*
X135426046Y-146180012D01*
X135323666Y-146155653D01*
X135245035Y-146129968D01*
X135206082Y-146094666D01*
X135192880Y-146026965D01*
X135191500Y-145939437D01*
X135196444Y-145836374D01*
X135209071Y-145771135D01*
X135218715Y-145759249D01*
X135265114Y-145766766D01*
X135362102Y-145787015D01*
X135489696Y-145815800D01*
X135504557Y-145819265D01*
X135678055Y-145853507D01*
X135790838Y-145859226D01*
X135849336Y-145835431D01*
X135859979Y-145781130D01*
X135856540Y-145765002D01*
X135827518Y-145720902D01*
X135757426Y-145683271D01*
X135632934Y-145645762D01*
X135578142Y-145632446D01*
X135441348Y-145600083D01*
X135326514Y-145572355D01*
X135257269Y-145554972D01*
X135255000Y-145554361D01*
X135214960Y-145526215D01*
X135195727Y-145458525D01*
X135191500Y-145358126D01*
X135197924Y-145255433D01*
X135214326Y-145190694D01*
X135226755Y-145179142D01*
X135277043Y-145186497D01*
X135378064Y-145205958D01*
X135509771Y-145233620D01*
X135536544Y-145239467D01*
X135694491Y-145269818D01*
X135794371Y-145277601D01*
X135846859Y-145263515D01*
X135850822Y-145260049D01*
X135879625Y-145200377D01*
X135840105Y-145145519D01*
X135730772Y-145094318D01*
X135584484Y-145053428D01*
X135446239Y-145020699D01*
X135329949Y-144992624D01*
X135258799Y-144974807D01*
X135255000Y-144973789D01*
X135214960Y-144945644D01*
X135195727Y-144877954D01*
X135191500Y-144777554D01*
X135200382Y-144654315D01*
X135227028Y-144601427D01*
X135236857Y-144599198D01*
X135292381Y-144607457D01*
X135398362Y-144628976D01*
X135538520Y-144659899D01*
X135696574Y-144696372D01*
X135856245Y-144734539D01*
X136001253Y-144770546D01*
X136115316Y-144800537D01*
X136182155Y-144820658D01*
X136192521Y-144825496D01*
X136207063Y-144874368D01*
X136217987Y-144974405D01*
X136224766Y-145104267D01*
X136226874Y-145242613D01*
X136223783Y-145368103D01*
X136214968Y-145459396D01*
X136208776Y-145484217D01*
X136195648Y-145590659D01*
X136214168Y-145717109D01*
X136233044Y-145897706D01*
X136199123Y-146059249D01*
X136199123Y-146059249D01*
G37*
X136199123Y-146059249D02*
X136116893Y-146184142D01*
X136089053Y-146207770D01*
X136032773Y-146245080D01*
X135977271Y-146262924D01*
X135901249Y-146263000D01*
X135783407Y-146247011D01*
X135722819Y-146237007D01*
X135569760Y-146209320D01*
X135426046Y-146180012D01*
X135323666Y-146155653D01*
X135245035Y-146129968D01*
X135206082Y-146094666D01*
X135192880Y-146026965D01*
X135191500Y-145939437D01*
X135196444Y-145836374D01*
X135209071Y-145771135D01*
X135218715Y-145759249D01*
X135265114Y-145766766D01*
X135362102Y-145787015D01*
X135489696Y-145815800D01*
X135504557Y-145819265D01*
X135678055Y-145853507D01*
X135790838Y-145859226D01*
X135849336Y-145835431D01*
X135859979Y-145781130D01*
X135856540Y-145765002D01*
X135827518Y-145720902D01*
X135757426Y-145683271D01*
X135632934Y-145645762D01*
X135578142Y-145632446D01*
X135441348Y-145600083D01*
X135326514Y-145572355D01*
X135257269Y-145554972D01*
X135255000Y-145554361D01*
X135214960Y-145526215D01*
X135195727Y-145458525D01*
X135191500Y-145358126D01*
X135197924Y-145255433D01*
X135214326Y-145190694D01*
X135226755Y-145179142D01*
X135277043Y-145186497D01*
X135378064Y-145205958D01*
X135509771Y-145233620D01*
X135536544Y-145239467D01*
X135694491Y-145269818D01*
X135794371Y-145277601D01*
X135846859Y-145263515D01*
X135850822Y-145260049D01*
X135879625Y-145200377D01*
X135840105Y-145145519D01*
X135730772Y-145094318D01*
X135584484Y-145053428D01*
X135446239Y-145020699D01*
X135329949Y-144992624D01*
X135258799Y-144974807D01*
X135255000Y-144973789D01*
X135214960Y-144945644D01*
X135195727Y-144877954D01*
X135191500Y-144777554D01*
X135200382Y-144654315D01*
X135227028Y-144601427D01*
X135236857Y-144599198D01*
X135292381Y-144607457D01*
X135398362Y-144628976D01*
X135538520Y-144659899D01*
X135696574Y-144696372D01*
X135856245Y-144734539D01*
X136001253Y-144770546D01*
X136115316Y-144800537D01*
X136182155Y-144820658D01*
X136192521Y-144825496D01*
X136207063Y-144874368D01*
X136217987Y-144974405D01*
X136224766Y-145104267D01*
X136226874Y-145242613D01*
X136223783Y-145368103D01*
X136214968Y-145459396D01*
X136208776Y-145484217D01*
X136195648Y-145590659D01*
X136214168Y-145717109D01*
X136233044Y-145897706D01*
X136199123Y-146059249D01*
G36*
X136129980Y-142616928D02*
X136084354Y-142704766D01*
X136015600Y-142764453D01*
X135941330Y-142793154D01*
X135834868Y-142797791D01*
X135685667Y-142777429D01*
X135483178Y-142731133D01*
X135403446Y-142710161D01*
X135313457Y-142680176D01*
X135273926Y-142638103D01*
X135264243Y-142557138D01*
X135264072Y-142528887D01*
X135265885Y-142453060D01*
X135280462Y-142408937D01*
X135321509Y-142392535D01*
X135402733Y-142399873D01*
X135537841Y-142426966D01*
X135582137Y-142436466D01*
X135701742Y-142457465D01*
X135790453Y-142464328D01*
X135827184Y-142456609D01*
X135832575Y-142392415D01*
X135777879Y-142336071D01*
X135675436Y-142299953D01*
X135670046Y-142299026D01*
X135538173Y-142272746D01*
X135404191Y-142239745D01*
X135400143Y-142238612D01*
X135311979Y-142207673D01*
X135273447Y-142164173D01*
X135264198Y-142080933D01*
X135264072Y-142056865D01*
X135274765Y-141955386D01*
X135304762Y-141913669D01*
X135309429Y-141913149D01*
X135361927Y-141920012D01*
X135468677Y-141938798D01*
X135612925Y-141966437D01*
X135741045Y-141992238D01*
X136127305Y-142071607D01*
X136143620Y-142310018D01*
X136148246Y-142490635D01*
X136129980Y-142616928D01*
X136129980Y-142616928D01*
G37*
X136129980Y-142616928D02*
X136084354Y-142704766D01*
X136015600Y-142764453D01*
X135941330Y-142793154D01*
X135834868Y-142797791D01*
X135685667Y-142777429D01*
X135483178Y-142731133D01*
X135403446Y-142710161D01*
X135313457Y-142680176D01*
X135273926Y-142638103D01*
X135264243Y-142557138D01*
X135264072Y-142528887D01*
X135265885Y-142453060D01*
X135280462Y-142408937D01*
X135321509Y-142392535D01*
X135402733Y-142399873D01*
X135537841Y-142426966D01*
X135582137Y-142436466D01*
X135701742Y-142457465D01*
X135790453Y-142464328D01*
X135827184Y-142456609D01*
X135832575Y-142392415D01*
X135777879Y-142336071D01*
X135675436Y-142299953D01*
X135670046Y-142299026D01*
X135538173Y-142272746D01*
X135404191Y-142239745D01*
X135400143Y-142238612D01*
X135311979Y-142207673D01*
X135273447Y-142164173D01*
X135264198Y-142080933D01*
X135264072Y-142056865D01*
X135274765Y-141955386D01*
X135304762Y-141913669D01*
X135309429Y-141913149D01*
X135361927Y-141920012D01*
X135468677Y-141938798D01*
X135612925Y-141966437D01*
X135741045Y-141992238D01*
X136127305Y-142071607D01*
X136143620Y-142310018D01*
X136148246Y-142490635D01*
X136129980Y-142616928D01*
D12*
X155106666Y-131079047D02*
X155106666Y-130602857D01*
X155392380Y-131174285D02*
X154392380Y-130840952D01*
X155392380Y-130507619D01*
X155392380Y-130174285D02*
X154725714Y-130174285D01*
X154916190Y-130174285D02*
X154820952Y-130126666D01*
X154773333Y-130079047D01*
X154725714Y-129983809D01*
X154725714Y-129888571D01*
X155392380Y-129126666D02*
X154392380Y-129126666D01*
X155344761Y-129126666D02*
X155392380Y-129221904D01*
X155392380Y-129412380D01*
X155344761Y-129507619D01*
X155297142Y-129555238D01*
X155201904Y-129602857D01*
X154916190Y-129602857D01*
X154820952Y-129555238D01*
X154773333Y-129507619D01*
X154725714Y-129412380D01*
X154725714Y-129221904D01*
X154773333Y-129126666D01*
X154725714Y-128221904D02*
X155392380Y-128221904D01*
X154725714Y-128650476D02*
X155249523Y-128650476D01*
X155344761Y-128602857D01*
X155392380Y-128507619D01*
X155392380Y-128364761D01*
X155344761Y-128269523D01*
X155297142Y-128221904D01*
X155392380Y-127745714D02*
X154725714Y-127745714D01*
X154392380Y-127745714D02*
X154440000Y-127793333D01*
X154487619Y-127745714D01*
X154440000Y-127698095D01*
X154392380Y-127745714D01*
X154487619Y-127745714D01*
X154725714Y-127269523D02*
X155392380Y-127269523D01*
X154820952Y-127269523D02*
X154773333Y-127221904D01*
X154725714Y-127126666D01*
X154725714Y-126983809D01*
X154773333Y-126888571D01*
X154868571Y-126840952D01*
X155392380Y-126840952D01*
X155392380Y-126221904D02*
X155344761Y-126317142D01*
X155297142Y-126364761D01*
X155201904Y-126412380D01*
X154916190Y-126412380D01*
X154820952Y-126364761D01*
X154773333Y-126317142D01*
X154725714Y-126221904D01*
X154725714Y-126079047D01*
X154773333Y-125983809D01*
X154820952Y-125936190D01*
X154916190Y-125888571D01*
X155201904Y-125888571D01*
X155297142Y-125936190D01*
X155344761Y-125983809D01*
X155392380Y-126079047D01*
X155392380Y-126221904D01*
X155487619Y-125698095D02*
X155487619Y-124936190D01*
X155392380Y-124698095D02*
X154392380Y-124698095D01*
X154392380Y-124317142D01*
X154440000Y-124221904D01*
X154487619Y-124174285D01*
X154582857Y-124126666D01*
X154725714Y-124126666D01*
X154820952Y-124174285D01*
X154868571Y-124221904D01*
X154916190Y-124317142D01*
X154916190Y-124698095D01*
X155392380Y-123698095D02*
X154725714Y-123698095D01*
X154916190Y-123698095D02*
X154820952Y-123650476D01*
X154773333Y-123602857D01*
X154725714Y-123507619D01*
X154725714Y-123412380D01*
X155392380Y-122936190D02*
X155344761Y-123031428D01*
X155297142Y-123079047D01*
X155201904Y-123126666D01*
X154916190Y-123126666D01*
X154820952Y-123079047D01*
X154773333Y-123031428D01*
X154725714Y-122936190D01*
X154725714Y-122793333D01*
X154773333Y-122698095D01*
X154820952Y-122650476D01*
X154916190Y-122602857D01*
X155201904Y-122602857D01*
X155297142Y-122650476D01*
X155344761Y-122698095D01*
X155392380Y-122793333D01*
X155392380Y-122936190D01*
X155487619Y-122412380D02*
X155487619Y-121650476D01*
X155392380Y-121412380D02*
X154392380Y-121412380D01*
X155106666Y-121079047D01*
X154392380Y-120745714D01*
X155392380Y-120745714D01*
X155392380Y-120269523D02*
X154725714Y-120269523D01*
X154392380Y-120269523D02*
X154440000Y-120317142D01*
X154487619Y-120269523D01*
X154440000Y-120221904D01*
X154392380Y-120269523D01*
X154487619Y-120269523D01*
X155344761Y-119364761D02*
X155392380Y-119460000D01*
X155392380Y-119650476D01*
X155344761Y-119745714D01*
X155297142Y-119793333D01*
X155201904Y-119840952D01*
X154916190Y-119840952D01*
X154820952Y-119793333D01*
X154773333Y-119745714D01*
X154725714Y-119650476D01*
X154725714Y-119460000D01*
X154773333Y-119364761D01*
X155392380Y-118936190D02*
X154725714Y-118936190D01*
X154916190Y-118936190D02*
X154820952Y-118888571D01*
X154773333Y-118840952D01*
X154725714Y-118745714D01*
X154725714Y-118650476D01*
X155392380Y-118174285D02*
X155344761Y-118269523D01*
X155297142Y-118317142D01*
X155201904Y-118364761D01*
X154916190Y-118364761D01*
X154820952Y-118317142D01*
X154773333Y-118269523D01*
X154725714Y-118174285D01*
X154725714Y-118031428D01*
X154773333Y-117936190D01*
X154820952Y-117888571D01*
X154916190Y-117840952D01*
X155201904Y-117840952D01*
X155297142Y-117888571D01*
X155344761Y-117936190D01*
X155392380Y-118031428D01*
X155392380Y-118174285D01*
%LPC*%
D15*
X142240000Y-106680000D03*
X142240000Y-109220000D03*
X142240000Y-111760000D03*
X142240000Y-114300000D03*
X142240000Y-116840000D03*
X142240000Y-119380000D03*
X142240000Y-121920000D03*
X142240000Y-124460000D03*
X142240000Y-127000000D03*
X142240000Y-129540000D03*
X142240000Y-132080000D03*
X142240000Y-134620000D03*
X157480000Y-134620000D03*
X157480000Y-132080000D03*
X157480000Y-129540000D03*
X157480000Y-127000000D03*
X157480000Y-124460000D03*
X157480000Y-121920000D03*
X157480000Y-119380000D03*
X157480000Y-116840000D03*
X157480000Y-114300000D03*
X157480000Y-111760000D03*
X157480000Y-109220000D03*
X157480000Y-106680000D03*
D16*
X127000000Y-106680000D03*
X127000000Y-109220000D03*
D17*
X127000000Y-137160000D03*
X127000000Y-134620000D03*
X127000000Y-132080000D03*
X127000000Y-129540000D03*
X127000000Y-127000000D03*
X127000000Y-124460000D03*
X127000000Y-121920000D03*
X127000000Y-119380000D03*
X127000000Y-116840000D03*
X127000000Y-114300000D03*
X124460000Y-137160000D03*
X124460000Y-134620000D03*
X124460000Y-132080000D03*
X124460000Y-129540000D03*
X124460000Y-127000000D03*
X124460000Y-124460000D03*
X124460000Y-121920000D03*
X124460000Y-119380000D03*
X124460000Y-116840000D03*
X124460000Y-114300000D03*
D16*
X160020000Y-106680000D03*
X160020000Y-109220000D03*
X160020000Y-111760000D03*
X160020000Y-114300000D03*
X160020000Y-116840000D03*
X160020000Y-119380000D03*
X160020000Y-121920000D03*
X160020000Y-124460000D03*
X160020000Y-127000000D03*
X160020000Y-129540000D03*
X160020000Y-132080000D03*
X160020000Y-134620000D03*
D18*
X134620000Y-114300000D03*
X137160000Y-114300000D03*
X129540000Y-114300000D03*
X132080000Y-114300000D03*
X132080000Y-116840000D03*
X129540000Y-116840000D03*
X137160000Y-116840000D03*
X134620000Y-116840000D03*
X134620000Y-119380000D03*
X137160000Y-119380000D03*
X129540000Y-119380000D03*
X132080000Y-119380000D03*
X132080000Y-132080000D03*
X129540000Y-132080000D03*
X137160000Y-132080000D03*
X134620000Y-132080000D03*
X134620000Y-121920000D03*
X137160000Y-121920000D03*
X129540000Y-121920000D03*
X132080000Y-121920000D03*
D16*
X139700000Y-114300000D03*
X139700000Y-116840000D03*
X139700000Y-119380000D03*
X139700000Y-121920000D03*
X139700000Y-124460000D03*
X139700000Y-127000000D03*
X139700000Y-129540000D03*
X139700000Y-132080000D03*
X139700000Y-134620000D03*
X139700000Y-137160000D03*
D19*
X130365500Y-147955000D03*
X130365500Y-146685000D03*
X130365500Y-145415000D03*
X130365500Y-144145000D03*
X159131000Y-147955000D03*
X159131000Y-146685000D03*
X159131000Y-145415000D03*
X159131000Y-144145000D03*
D16*
X132905500Y-144780000D03*
X132905500Y-142240000D03*
X132905500Y-149860000D03*
X132905500Y-147320000D03*
X156591000Y-144780000D03*
X156591000Y-142240000D03*
X156591000Y-149860000D03*
X156591000Y-147320000D03*
D18*
X132080000Y-124460000D03*
X129540000Y-124460000D03*
X137160000Y-124460000D03*
X134620000Y-124460000D03*
X134620000Y-127000000D03*
X137160000Y-127000000D03*
X129540000Y-127000000D03*
X132080000Y-127000000D03*
X132080000Y-134620000D03*
X129540000Y-134620000D03*
X137160000Y-134620000D03*
X134620000Y-134620000D03*
X134620000Y-129540000D03*
X137160000Y-129540000D03*
X129540000Y-129540000D03*
X132080000Y-129540000D03*
X132080000Y-137160000D03*
X129540000Y-137160000D03*
X137160000Y-137160000D03*
X134620000Y-137160000D03*
D20*
X151130000Y-111760000D03*
X153670000Y-111760000D03*
X146050000Y-111760000D03*
X148590000Y-111760000D03*
X133350000Y-111760000D03*
X130810000Y-111760000D03*
X138430000Y-111760000D03*
X135890000Y-111760000D03*
M02*
