G04 #@! TF.FileFunction,Soldermask,Top*
%FSLAX46Y46*%
G04 Gerber Fmt 4.6, Leading zero omitted, Abs format (unit mm)*
G04 Created by KiCad (PCBNEW 4.0.2+dfsg1-stable) date 2016年11月21日 00時06分46秒*
%MOMM*%
G01*
G04 APERTURE LIST*
%ADD10C,0.100000*%
%ADD11O,2.432000X2.127200*%
%ADD12O,2.127200X2.127200*%
%ADD13O,2.127200X2.432000*%
%ADD14C,1.924000*%
G04 APERTURE END LIST*
D10*
D11*
X121920000Y-115570000D03*
X124460000Y-115570000D03*
X127000000Y-115570000D03*
X121920000Y-118110000D03*
X124460000Y-118110000D03*
X127000000Y-118110000D03*
X121920000Y-120650000D03*
X124460000Y-120650000D03*
X127000000Y-120650000D03*
X121920000Y-123190000D03*
X124460000Y-123190000D03*
X127000000Y-123190000D03*
X121920000Y-125730000D03*
X124460000Y-125730000D03*
X127000000Y-125730000D03*
X121920000Y-128270000D03*
X124460000Y-128270000D03*
X127000000Y-128270000D03*
X121920000Y-130810000D03*
X124460000Y-130810000D03*
X127000000Y-130810000D03*
X121920000Y-133350000D03*
X124460000Y-133350000D03*
X127000000Y-133350000D03*
X121920000Y-135890000D03*
X124460000Y-135890000D03*
X127000000Y-135890000D03*
X121920000Y-138430000D03*
X124460000Y-138430000D03*
X127000000Y-138430000D03*
X132080000Y-115570000D03*
X134620000Y-115570000D03*
X137160000Y-115570000D03*
X132080000Y-118110000D03*
X134620000Y-118110000D03*
X137160000Y-118110000D03*
X132080000Y-120650000D03*
X134620000Y-120650000D03*
X137160000Y-120650000D03*
X132080000Y-123190000D03*
X134620000Y-123190000D03*
X137160000Y-123190000D03*
X132080000Y-125730000D03*
X134620000Y-125730000D03*
X137160000Y-125730000D03*
X132080000Y-128270000D03*
X134620000Y-128270000D03*
X137160000Y-128270000D03*
X132080000Y-130810000D03*
X134620000Y-130810000D03*
X137160000Y-130810000D03*
X132080000Y-133350000D03*
X134620000Y-133350000D03*
X137160000Y-133350000D03*
X132080000Y-135890000D03*
X134620000Y-135890000D03*
X137160000Y-135890000D03*
X132080000Y-138430000D03*
X134620000Y-138430000D03*
X137160000Y-138430000D03*
D12*
X151130000Y-113030000D03*
X151130000Y-115570000D03*
X148590000Y-113030000D03*
X148590000Y-115570000D03*
D13*
X151130000Y-110490000D03*
X153670000Y-110490000D03*
X146050000Y-110490000D03*
X148590000Y-110490000D03*
X132080000Y-113030000D03*
X134620000Y-113030000D03*
X132080000Y-110490000D03*
X129540000Y-110490000D03*
X137160000Y-110490000D03*
X134620000Y-110490000D03*
X119380000Y-138430000D03*
X119380000Y-135890000D03*
X119380000Y-133350000D03*
X119380000Y-130810000D03*
X119380000Y-128270000D03*
X119380000Y-125730000D03*
X119380000Y-123190000D03*
X119380000Y-120650000D03*
X119380000Y-118110000D03*
X119380000Y-115570000D03*
X116840000Y-138430000D03*
X116840000Y-135890000D03*
X116840000Y-133350000D03*
X116840000Y-130810000D03*
X116840000Y-128270000D03*
X116840000Y-125730000D03*
X116840000Y-123190000D03*
X116840000Y-120650000D03*
X116840000Y-118110000D03*
X116840000Y-115570000D03*
D11*
X139700000Y-110490000D03*
X139700000Y-113030000D03*
X139700000Y-115570000D03*
X139700000Y-118110000D03*
X139700000Y-120650000D03*
X139700000Y-123190000D03*
X139700000Y-125730000D03*
X139700000Y-128270000D03*
X139700000Y-130810000D03*
X139700000Y-133350000D03*
X139700000Y-135890000D03*
X139700000Y-138430000D03*
X160020000Y-105410000D03*
X160020000Y-107950000D03*
X160020000Y-110490000D03*
X160020000Y-113030000D03*
X160020000Y-115570000D03*
X160020000Y-118110000D03*
X160020000Y-120650000D03*
X160020000Y-123190000D03*
X160020000Y-125730000D03*
X160020000Y-128270000D03*
X160020000Y-130810000D03*
X160020000Y-133350000D03*
D14*
X142240000Y-105410000D03*
X142240000Y-107950000D03*
X142240000Y-110490000D03*
X142240000Y-113030000D03*
X142240000Y-115570000D03*
X142240000Y-118110000D03*
X142240000Y-120650000D03*
X142240000Y-123190000D03*
X142240000Y-125730000D03*
X142240000Y-128270000D03*
X142240000Y-130810000D03*
X142240000Y-133350000D03*
X157480000Y-133350000D03*
X157480000Y-130810000D03*
X157480000Y-128270000D03*
X157480000Y-125730000D03*
X157480000Y-123190000D03*
X157480000Y-120650000D03*
X157480000Y-118110000D03*
X157480000Y-115570000D03*
X157480000Y-113030000D03*
X157480000Y-110490000D03*
X157480000Y-107950000D03*
X157480000Y-105410000D03*
M02*
