G04 #@! TF.FileFunction,Soldermask,Bot*
%FSLAX46Y46*%
G04 Gerber Fmt 4.6, Leading zero omitted, Abs format (unit mm)*
G04 Created by KiCad (PCBNEW 4.0.5-e0-6337~52~ubuntu16.10.1) date Sat Feb 25 11:48:19 2017*
%MOMM*%
%LPD*%
G01*
G04 APERTURE LIST*
%ADD10C,0.100000*%
%ADD11C,1.924000*%
%ADD12O,2.432000X2.127200*%
%ADD13O,2.127200X2.432000*%
%ADD14O,2.400000X2.100000*%
%ADD15C,2.100000*%
G04 APERTURE END LIST*
D10*
D11*
X142240000Y-106680000D03*
X142240000Y-109220000D03*
X142240000Y-111760000D03*
X142240000Y-114300000D03*
X142240000Y-116840000D03*
X142240000Y-119380000D03*
X142240000Y-121920000D03*
X142240000Y-124460000D03*
X142240000Y-127000000D03*
X142240000Y-129540000D03*
X142240000Y-132080000D03*
X142240000Y-134620000D03*
X157480000Y-134620000D03*
X157480000Y-132080000D03*
X157480000Y-129540000D03*
X157480000Y-127000000D03*
X157480000Y-124460000D03*
X157480000Y-121920000D03*
X157480000Y-119380000D03*
X157480000Y-116840000D03*
X157480000Y-114300000D03*
X157480000Y-111760000D03*
X157480000Y-109220000D03*
X157480000Y-106680000D03*
D12*
X127000000Y-107950000D03*
X127000000Y-110490000D03*
D13*
X127000000Y-137160000D03*
X127000000Y-134620000D03*
X127000000Y-132080000D03*
X127000000Y-129540000D03*
X127000000Y-127000000D03*
X127000000Y-124460000D03*
X127000000Y-121920000D03*
X127000000Y-119380000D03*
X127000000Y-116840000D03*
X127000000Y-114300000D03*
X124460000Y-137160000D03*
X124460000Y-134620000D03*
X124460000Y-132080000D03*
X124460000Y-129540000D03*
X124460000Y-127000000D03*
X124460000Y-124460000D03*
X124460000Y-121920000D03*
X124460000Y-119380000D03*
X124460000Y-116840000D03*
X124460000Y-114300000D03*
D12*
X160020000Y-106680000D03*
X160020000Y-109220000D03*
X160020000Y-111760000D03*
X160020000Y-114300000D03*
X160020000Y-116840000D03*
X160020000Y-119380000D03*
X160020000Y-121920000D03*
X160020000Y-124460000D03*
X160020000Y-127000000D03*
X160020000Y-129540000D03*
X160020000Y-132080000D03*
X160020000Y-134620000D03*
D14*
X134620000Y-114300000D03*
X137160000Y-114300000D03*
X129540000Y-114300000D03*
X132080000Y-114300000D03*
X132080000Y-116840000D03*
X129540000Y-116840000D03*
X137160000Y-116840000D03*
X134620000Y-116840000D03*
X134620000Y-119380000D03*
X137160000Y-119380000D03*
X129540000Y-119380000D03*
X132080000Y-119380000D03*
X132080000Y-132080000D03*
X129540000Y-132080000D03*
X137160000Y-132080000D03*
X134620000Y-132080000D03*
X134620000Y-121920000D03*
X137160000Y-121920000D03*
X129540000Y-121920000D03*
X132080000Y-121920000D03*
D12*
X139700000Y-114300000D03*
X139700000Y-116840000D03*
X139700000Y-119380000D03*
X139700000Y-121920000D03*
X139700000Y-124460000D03*
X139700000Y-127000000D03*
X139700000Y-129540000D03*
X139700000Y-132080000D03*
X139700000Y-134620000D03*
X139700000Y-137160000D03*
X132905500Y-144780000D03*
X132905500Y-142240000D03*
X132905500Y-149860000D03*
X132905500Y-147320000D03*
X156591000Y-144780000D03*
X156591000Y-142240000D03*
X156591000Y-149860000D03*
X156591000Y-147320000D03*
D14*
X132080000Y-124460000D03*
X129540000Y-124460000D03*
X137160000Y-124460000D03*
X134620000Y-124460000D03*
X134620000Y-127000000D03*
X137160000Y-127000000D03*
X129540000Y-127000000D03*
X132080000Y-127000000D03*
X132080000Y-134620000D03*
X129540000Y-134620000D03*
X137160000Y-134620000D03*
X134620000Y-134620000D03*
X134620000Y-129540000D03*
X137160000Y-129540000D03*
X129540000Y-129540000D03*
X132080000Y-129540000D03*
X132080000Y-137160000D03*
X129540000Y-137160000D03*
X137160000Y-137160000D03*
X134620000Y-137160000D03*
D15*
X151130000Y-111760000D03*
X153670000Y-111760000D03*
X146050000Y-111760000D03*
X148590000Y-111760000D03*
X133350000Y-111760000D03*
X130810000Y-111760000D03*
X138430000Y-111760000D03*
X135890000Y-111760000D03*
D12*
X130302000Y-147320000D03*
X130302000Y-149860000D03*
X130302000Y-142240000D03*
X130302000Y-144780000D03*
X159258000Y-144780000D03*
X159258000Y-142240000D03*
X159258000Y-149860000D03*
X159258000Y-147320000D03*
M02*
