M48
;DRILL file {KiCad no-vcs-found-7452~57~ubuntu16.10.1} date Thu Jan 19 15:17:40 2017
;FORMAT={-:-/ absolute / metric / decimal}
FMAT,2
METRIC,TZ
T1C0.400
T2C0.500
T3C0.762
T4C1.016
%
G90
G05
M71
T1
X153.035Y-114.3
T2
X130.365Y-144.145
X130.365Y-145.415
X130.365Y-146.685
X130.365Y-147.955
X159.131Y-144.145
X159.131Y-145.415
X159.131Y-146.685
X159.131Y-147.955
T3
X142.24Y-106.68
X142.24Y-109.22
X142.24Y-111.76
X142.24Y-114.3
X142.24Y-116.84
X142.24Y-119.38
X142.24Y-121.92
X142.24Y-124.46
X142.24Y-127.
X142.24Y-129.54
X142.24Y-132.08
X142.24Y-134.62
X157.48Y-106.68
X157.48Y-109.22
X157.48Y-111.76
X157.48Y-114.3
X157.48Y-116.84
X157.48Y-119.38
X157.48Y-121.92
X157.48Y-124.46
X157.48Y-127.
X157.48Y-129.54
X157.48Y-132.08
X157.48Y-134.62
T4
X124.46Y-114.3
X124.46Y-116.84
X124.46Y-119.38
X124.46Y-121.92
X124.46Y-124.46
X124.46Y-127.
X124.46Y-129.54
X124.46Y-132.08
X124.46Y-134.62
X124.46Y-137.16
X127.Y-106.68
X127.Y-109.22
X127.Y-114.3
X127.Y-116.84
X127.Y-119.38
X127.Y-121.92
X127.Y-124.46
X127.Y-127.
X127.Y-129.54
X127.Y-132.08
X127.Y-134.62
X127.Y-137.16
X129.54Y-114.3
X129.54Y-116.84
X129.54Y-119.38
X129.54Y-121.92
X129.54Y-124.46
X129.54Y-127.
X129.54Y-129.54
X129.54Y-132.08
X129.54Y-134.62
X129.54Y-137.16
X130.81Y-111.76
X132.08Y-114.3
X132.08Y-116.84
X132.08Y-119.38
X132.08Y-121.92
X132.08Y-124.46
X132.08Y-127.
X132.08Y-129.54
X132.08Y-132.08
X132.08Y-134.62
X132.08Y-137.16
X132.905Y-142.24
X132.905Y-144.78
X132.905Y-147.32
X132.905Y-149.86
X133.35Y-111.76
X134.62Y-114.3
X134.62Y-116.84
X134.62Y-119.38
X134.62Y-121.92
X134.62Y-124.46
X134.62Y-127.
X134.62Y-129.54
X134.62Y-132.08
X134.62Y-134.62
X134.62Y-137.16
X135.89Y-111.76
X137.16Y-114.3
X137.16Y-116.84
X137.16Y-119.38
X137.16Y-121.92
X137.16Y-124.46
X137.16Y-127.
X137.16Y-129.54
X137.16Y-132.08
X137.16Y-134.62
X137.16Y-137.16
X138.43Y-111.76
X139.7Y-114.3
X139.7Y-116.84
X139.7Y-119.38
X139.7Y-121.92
X139.7Y-124.46
X139.7Y-127.
X139.7Y-129.54
X139.7Y-132.08
X139.7Y-134.62
X139.7Y-137.16
X146.05Y-111.76
X148.59Y-111.76
X151.13Y-111.76
X153.67Y-111.76
X156.591Y-142.24
X156.591Y-144.78
X156.591Y-147.32
X156.591Y-149.86
X160.02Y-106.68
X160.02Y-109.22
X160.02Y-111.76
X160.02Y-114.3
X160.02Y-116.84
X160.02Y-119.38
X160.02Y-121.92
X160.02Y-124.46
X160.02Y-127.
X160.02Y-129.54
X160.02Y-132.08
X160.02Y-134.62
T0
M30
