G04 #@! TF.FileFunction,Copper,L2,Bot,Signal*
%FSLAX46Y46*%
G04 Gerber Fmt 4.6, Leading zero omitted, Abs format (unit mm)*
G04 Created by KiCad (PCBNEW 4.0.2+dfsg1-stable) date 2016年11月21日 00時06分46秒*
%MOMM*%
G01*
G04 APERTURE LIST*
%ADD10C,0.100000*%
%ADD11O,2.032000X1.727200*%
%ADD12O,1.727200X1.727200*%
%ADD13O,1.727200X2.032000*%
%ADD14C,1.524000*%
%ADD15C,0.600000*%
%ADD16C,0.250000*%
%ADD17C,0.254000*%
G04 APERTURE END LIST*
D10*
D11*
X121920000Y-115570000D03*
X124460000Y-115570000D03*
X127000000Y-115570000D03*
X121920000Y-118110000D03*
X124460000Y-118110000D03*
X127000000Y-118110000D03*
X121920000Y-120650000D03*
X124460000Y-120650000D03*
X127000000Y-120650000D03*
X121920000Y-123190000D03*
X124460000Y-123190000D03*
X127000000Y-123190000D03*
X121920000Y-125730000D03*
X124460000Y-125730000D03*
X127000000Y-125730000D03*
X121920000Y-128270000D03*
X124460000Y-128270000D03*
X127000000Y-128270000D03*
X121920000Y-130810000D03*
X124460000Y-130810000D03*
X127000000Y-130810000D03*
X121920000Y-133350000D03*
X124460000Y-133350000D03*
X127000000Y-133350000D03*
X121920000Y-135890000D03*
X124460000Y-135890000D03*
X127000000Y-135890000D03*
X121920000Y-138430000D03*
X124460000Y-138430000D03*
X127000000Y-138430000D03*
X132080000Y-115570000D03*
X134620000Y-115570000D03*
X137160000Y-115570000D03*
X132080000Y-118110000D03*
X134620000Y-118110000D03*
X137160000Y-118110000D03*
X132080000Y-120650000D03*
X134620000Y-120650000D03*
X137160000Y-120650000D03*
X132080000Y-123190000D03*
X134620000Y-123190000D03*
X137160000Y-123190000D03*
X132080000Y-125730000D03*
X134620000Y-125730000D03*
X137160000Y-125730000D03*
X132080000Y-128270000D03*
X134620000Y-128270000D03*
X137160000Y-128270000D03*
X132080000Y-130810000D03*
X134620000Y-130810000D03*
X137160000Y-130810000D03*
X132080000Y-133350000D03*
X134620000Y-133350000D03*
X137160000Y-133350000D03*
X132080000Y-135890000D03*
X134620000Y-135890000D03*
X137160000Y-135890000D03*
X132080000Y-138430000D03*
X134620000Y-138430000D03*
X137160000Y-138430000D03*
D12*
X151130000Y-113030000D03*
X151130000Y-115570000D03*
X148590000Y-113030000D03*
X148590000Y-115570000D03*
D13*
X151130000Y-110490000D03*
X153670000Y-110490000D03*
X146050000Y-110490000D03*
X148590000Y-110490000D03*
X132080000Y-113030000D03*
X134620000Y-113030000D03*
X132080000Y-110490000D03*
X129540000Y-110490000D03*
X137160000Y-110490000D03*
X134620000Y-110490000D03*
X119380000Y-138430000D03*
X119380000Y-135890000D03*
X119380000Y-133350000D03*
X119380000Y-130810000D03*
X119380000Y-128270000D03*
X119380000Y-125730000D03*
X119380000Y-123190000D03*
X119380000Y-120650000D03*
X119380000Y-118110000D03*
X119380000Y-115570000D03*
X116840000Y-138430000D03*
X116840000Y-135890000D03*
X116840000Y-133350000D03*
X116840000Y-130810000D03*
X116840000Y-128270000D03*
X116840000Y-125730000D03*
X116840000Y-123190000D03*
X116840000Y-120650000D03*
X116840000Y-118110000D03*
X116840000Y-115570000D03*
D11*
X139700000Y-110490000D03*
X139700000Y-113030000D03*
X139700000Y-115570000D03*
X139700000Y-118110000D03*
X139700000Y-120650000D03*
X139700000Y-123190000D03*
X139700000Y-125730000D03*
X139700000Y-128270000D03*
X139700000Y-130810000D03*
X139700000Y-133350000D03*
X139700000Y-135890000D03*
X139700000Y-138430000D03*
X160020000Y-105410000D03*
X160020000Y-107950000D03*
X160020000Y-110490000D03*
X160020000Y-113030000D03*
X160020000Y-115570000D03*
X160020000Y-118110000D03*
X160020000Y-120650000D03*
X160020000Y-123190000D03*
X160020000Y-125730000D03*
X160020000Y-128270000D03*
X160020000Y-130810000D03*
X160020000Y-133350000D03*
D14*
X142240000Y-105410000D03*
X142240000Y-107950000D03*
X142240000Y-110490000D03*
X142240000Y-113030000D03*
X142240000Y-115570000D03*
X142240000Y-118110000D03*
X142240000Y-120650000D03*
X142240000Y-123190000D03*
X142240000Y-125730000D03*
X142240000Y-128270000D03*
X142240000Y-130810000D03*
X142240000Y-133350000D03*
X157480000Y-133350000D03*
X157480000Y-130810000D03*
X157480000Y-128270000D03*
X157480000Y-125730000D03*
X157480000Y-123190000D03*
X157480000Y-120650000D03*
X157480000Y-118110000D03*
X157480000Y-115570000D03*
X157480000Y-113030000D03*
X157480000Y-110490000D03*
X157480000Y-107950000D03*
X157480000Y-105410000D03*
D15*
X153797000Y-106807000D03*
X119507000Y-111379000D03*
D16*
X153670000Y-110490000D02*
X153670000Y-106934000D01*
X153670000Y-106934000D02*
X153797000Y-106807000D01*
X119380000Y-115570000D02*
X119380000Y-111506000D01*
X119380000Y-111506000D02*
X119507000Y-111379000D01*
D17*
G36*
X160580000Y-103986043D02*
X160204745Y-103911400D01*
X159835255Y-103911400D01*
X159261766Y-104025474D01*
X158775585Y-104350330D01*
X158623431Y-104578045D01*
X158272370Y-104226371D01*
X157759100Y-104013243D01*
X157203339Y-104012758D01*
X156689697Y-104224990D01*
X156296371Y-104617630D01*
X156083243Y-105130900D01*
X156082758Y-105686661D01*
X156294990Y-106200303D01*
X156687630Y-106593629D01*
X156895512Y-106679949D01*
X156689697Y-106764990D01*
X156296371Y-107157630D01*
X156083243Y-107670900D01*
X156082758Y-108226661D01*
X156294990Y-108740303D01*
X156687630Y-109133629D01*
X156895512Y-109219949D01*
X156689697Y-109304990D01*
X156296371Y-109697630D01*
X156083243Y-110210900D01*
X156082758Y-110766661D01*
X156294990Y-111280303D01*
X156687630Y-111673629D01*
X156879727Y-111753395D01*
X156748857Y-111807603D01*
X156679392Y-112049787D01*
X157480000Y-112850395D01*
X158280608Y-112049787D01*
X158211143Y-111807603D01*
X158070682Y-111757491D01*
X158270303Y-111675010D01*
X158623648Y-111322281D01*
X158775585Y-111549670D01*
X159085069Y-111756461D01*
X158669268Y-112127964D01*
X158600963Y-112269763D01*
X158460213Y-112229392D01*
X157659605Y-113030000D01*
X158460213Y-113830608D01*
X158600963Y-113790237D01*
X158669268Y-113932036D01*
X159085069Y-114303539D01*
X158775585Y-114510330D01*
X158623431Y-114738045D01*
X158272370Y-114386371D01*
X158080273Y-114306605D01*
X158211143Y-114252397D01*
X158280608Y-114010213D01*
X157480000Y-113209605D01*
X156679392Y-114010213D01*
X156748857Y-114252397D01*
X156889318Y-114302509D01*
X156689697Y-114384990D01*
X156296371Y-114777630D01*
X156083243Y-115290900D01*
X156082758Y-115846661D01*
X156294990Y-116360303D01*
X156687630Y-116753629D01*
X156895512Y-116839949D01*
X156689697Y-116924990D01*
X156296371Y-117317630D01*
X156083243Y-117830900D01*
X156082758Y-118386661D01*
X156294990Y-118900303D01*
X156687630Y-119293629D01*
X156895512Y-119379949D01*
X156689697Y-119464990D01*
X156296371Y-119857630D01*
X156083243Y-120370900D01*
X156082758Y-120926661D01*
X156294990Y-121440303D01*
X156687630Y-121833629D01*
X156895512Y-121919949D01*
X156689697Y-122004990D01*
X156296371Y-122397630D01*
X156083243Y-122910900D01*
X156082758Y-123466661D01*
X156294990Y-123980303D01*
X156687630Y-124373629D01*
X156895512Y-124459949D01*
X156689697Y-124544990D01*
X156296371Y-124937630D01*
X156083243Y-125450900D01*
X156082758Y-126006661D01*
X156294990Y-126520303D01*
X156687630Y-126913629D01*
X156895512Y-126999949D01*
X156689697Y-127084990D01*
X156296371Y-127477630D01*
X156083243Y-127990900D01*
X156082758Y-128546661D01*
X156294990Y-129060303D01*
X156687630Y-129453629D01*
X156895512Y-129539949D01*
X156689697Y-129624990D01*
X156296371Y-130017630D01*
X156083243Y-130530900D01*
X156082758Y-131086661D01*
X156294990Y-131600303D01*
X156687630Y-131993629D01*
X156895512Y-132079949D01*
X156689697Y-132164990D01*
X156296371Y-132557630D01*
X156083243Y-133070900D01*
X156082758Y-133626661D01*
X156294990Y-134140303D01*
X156687630Y-134533629D01*
X157200900Y-134746757D01*
X157756661Y-134747242D01*
X158270303Y-134535010D01*
X158623648Y-134182281D01*
X158775585Y-134409670D01*
X159261766Y-134734526D01*
X159835255Y-134848600D01*
X160204745Y-134848600D01*
X160580000Y-134773957D01*
X160580000Y-140260000D01*
X159165312Y-140260000D01*
X159252046Y-140202046D01*
X159795289Y-139389024D01*
X159986051Y-138430000D01*
X159795289Y-137470976D01*
X159252046Y-136657954D01*
X158439024Y-136114711D01*
X157480000Y-135923949D01*
X156520976Y-136114711D01*
X155707954Y-136657954D01*
X155164711Y-137470976D01*
X154973949Y-138430000D01*
X155164711Y-139389024D01*
X155707954Y-140202046D01*
X155794688Y-140260000D01*
X116280000Y-140260000D01*
X116280000Y-140001954D01*
X116840000Y-140113345D01*
X117413489Y-139999271D01*
X117899670Y-139674415D01*
X118106461Y-139364931D01*
X118477964Y-139780732D01*
X119005209Y-140034709D01*
X119020974Y-140037358D01*
X119253000Y-139916217D01*
X119253000Y-138557000D01*
X119233000Y-138557000D01*
X119233000Y-138303000D01*
X119253000Y-138303000D01*
X119253000Y-136017000D01*
X119233000Y-136017000D01*
X119233000Y-135763000D01*
X119253000Y-135763000D01*
X119253000Y-133477000D01*
X119233000Y-133477000D01*
X119233000Y-133223000D01*
X119253000Y-133223000D01*
X119253000Y-130937000D01*
X119233000Y-130937000D01*
X119233000Y-130683000D01*
X119253000Y-130683000D01*
X119253000Y-128397000D01*
X119233000Y-128397000D01*
X119233000Y-128143000D01*
X119253000Y-128143000D01*
X119253000Y-125857000D01*
X119233000Y-125857000D01*
X119233000Y-125603000D01*
X119253000Y-125603000D01*
X119253000Y-123317000D01*
X119233000Y-123317000D01*
X119233000Y-123063000D01*
X119253000Y-123063000D01*
X119253000Y-120777000D01*
X119233000Y-120777000D01*
X119233000Y-120523000D01*
X119253000Y-120523000D01*
X119253000Y-118237000D01*
X119233000Y-118237000D01*
X119233000Y-117983000D01*
X119253000Y-117983000D01*
X119253000Y-115697000D01*
X119233000Y-115697000D01*
X119233000Y-115443000D01*
X119253000Y-115443000D01*
X119253000Y-114083783D01*
X119507000Y-114083783D01*
X119507000Y-115443000D01*
X119527000Y-115443000D01*
X119527000Y-115697000D01*
X119507000Y-115697000D01*
X119507000Y-117983000D01*
X119527000Y-117983000D01*
X119527000Y-118237000D01*
X119507000Y-118237000D01*
X119507000Y-120523000D01*
X119527000Y-120523000D01*
X119527000Y-120777000D01*
X119507000Y-120777000D01*
X119507000Y-123063000D01*
X119527000Y-123063000D01*
X119527000Y-123317000D01*
X119507000Y-123317000D01*
X119507000Y-125603000D01*
X119527000Y-125603000D01*
X119527000Y-125857000D01*
X119507000Y-125857000D01*
X119507000Y-128143000D01*
X119527000Y-128143000D01*
X119527000Y-128397000D01*
X119507000Y-128397000D01*
X119507000Y-130683000D01*
X119527000Y-130683000D01*
X119527000Y-130937000D01*
X119507000Y-130937000D01*
X119507000Y-133223000D01*
X119527000Y-133223000D01*
X119527000Y-133477000D01*
X119507000Y-133477000D01*
X119507000Y-135763000D01*
X119527000Y-135763000D01*
X119527000Y-136017000D01*
X119507000Y-136017000D01*
X119507000Y-138303000D01*
X119527000Y-138303000D01*
X119527000Y-138557000D01*
X119507000Y-138557000D01*
X119507000Y-139916217D01*
X119739026Y-140037358D01*
X119754791Y-140034709D01*
X120282036Y-139780732D01*
X120618466Y-139404186D01*
X120675585Y-139489670D01*
X121161766Y-139814526D01*
X121735255Y-139928600D01*
X122104745Y-139928600D01*
X122678234Y-139814526D01*
X123164415Y-139489670D01*
X123190000Y-139451379D01*
X123215585Y-139489670D01*
X123701766Y-139814526D01*
X124275255Y-139928600D01*
X124644745Y-139928600D01*
X125218234Y-139814526D01*
X125704415Y-139489670D01*
X125730000Y-139451379D01*
X125755585Y-139489670D01*
X126241766Y-139814526D01*
X126815255Y-139928600D01*
X127184745Y-139928600D01*
X127758234Y-139814526D01*
X128244415Y-139489670D01*
X128569271Y-139003489D01*
X128683345Y-138430000D01*
X128569271Y-137856511D01*
X128244415Y-137370330D01*
X127929634Y-137160000D01*
X128244415Y-136949670D01*
X128569271Y-136463489D01*
X128683345Y-135890000D01*
X128569271Y-135316511D01*
X128244415Y-134830330D01*
X127929634Y-134620000D01*
X128244415Y-134409670D01*
X128569271Y-133923489D01*
X128683345Y-133350000D01*
X128569271Y-132776511D01*
X128244415Y-132290330D01*
X127929634Y-132080000D01*
X128244415Y-131869670D01*
X128569271Y-131383489D01*
X128683345Y-130810000D01*
X128569271Y-130236511D01*
X128244415Y-129750330D01*
X127929634Y-129540000D01*
X128244415Y-129329670D01*
X128569271Y-128843489D01*
X128683345Y-128270000D01*
X128569271Y-127696511D01*
X128244415Y-127210330D01*
X127929634Y-127000000D01*
X128244415Y-126789670D01*
X128569271Y-126303489D01*
X128683345Y-125730000D01*
X128569271Y-125156511D01*
X128244415Y-124670330D01*
X127929634Y-124460000D01*
X128244415Y-124249670D01*
X128569271Y-123763489D01*
X128683345Y-123190000D01*
X128569271Y-122616511D01*
X128244415Y-122130330D01*
X127929634Y-121920000D01*
X128244415Y-121709670D01*
X128569271Y-121223489D01*
X128683345Y-120650000D01*
X128569271Y-120076511D01*
X128244415Y-119590330D01*
X127929634Y-119380000D01*
X128244415Y-119169670D01*
X128569271Y-118683489D01*
X128683345Y-118110000D01*
X128569271Y-117536511D01*
X128244415Y-117050330D01*
X127929634Y-116840000D01*
X128244415Y-116629670D01*
X128569271Y-116143489D01*
X128683345Y-115570000D01*
X128569271Y-114996511D01*
X128244415Y-114510330D01*
X127758234Y-114185474D01*
X127184745Y-114071400D01*
X126815255Y-114071400D01*
X126241766Y-114185474D01*
X125755585Y-114510330D01*
X125730000Y-114548621D01*
X125704415Y-114510330D01*
X125218234Y-114185474D01*
X124644745Y-114071400D01*
X124275255Y-114071400D01*
X123701766Y-114185474D01*
X123215585Y-114510330D01*
X123190000Y-114548621D01*
X123164415Y-114510330D01*
X122678234Y-114185474D01*
X122104745Y-114071400D01*
X121735255Y-114071400D01*
X121161766Y-114185474D01*
X120675585Y-114510330D01*
X120618466Y-114595814D01*
X120282036Y-114219268D01*
X119754791Y-113965291D01*
X119739026Y-113962642D01*
X119507000Y-114083783D01*
X119253000Y-114083783D01*
X119020974Y-113962642D01*
X119005209Y-113965291D01*
X118477964Y-114219268D01*
X118106461Y-114635069D01*
X117899670Y-114325585D01*
X117413489Y-114000729D01*
X116840000Y-113886655D01*
X116280000Y-113998046D01*
X116280000Y-110851913D01*
X128054816Y-110851913D01*
X128248046Y-111404320D01*
X128637964Y-111840732D01*
X129165209Y-112094709D01*
X129180974Y-112097358D01*
X129413000Y-111976217D01*
X129413000Y-110617000D01*
X128199076Y-110617000D01*
X128054816Y-110851913D01*
X116280000Y-110851913D01*
X116280000Y-110128087D01*
X128054816Y-110128087D01*
X128199076Y-110363000D01*
X129413000Y-110363000D01*
X129413000Y-109003783D01*
X129667000Y-109003783D01*
X129667000Y-110363000D01*
X129687000Y-110363000D01*
X129687000Y-110617000D01*
X129667000Y-110617000D01*
X129667000Y-111976217D01*
X129899026Y-112097358D01*
X129914791Y-112094709D01*
X130442036Y-111840732D01*
X130813539Y-111424931D01*
X131020330Y-111734415D01*
X131058621Y-111760000D01*
X131020330Y-111785585D01*
X130695474Y-112271766D01*
X130581400Y-112845255D01*
X130581400Y-113214745D01*
X130695474Y-113788234D01*
X131020330Y-114274415D01*
X131104493Y-114330651D01*
X130835585Y-114510330D01*
X130510729Y-114996511D01*
X130396655Y-115570000D01*
X130510729Y-116143489D01*
X130835585Y-116629670D01*
X131150366Y-116840000D01*
X130835585Y-117050330D01*
X130510729Y-117536511D01*
X130396655Y-118110000D01*
X130510729Y-118683489D01*
X130835585Y-119169670D01*
X131150366Y-119380000D01*
X130835585Y-119590330D01*
X130510729Y-120076511D01*
X130396655Y-120650000D01*
X130510729Y-121223489D01*
X130835585Y-121709670D01*
X131150366Y-121920000D01*
X130835585Y-122130330D01*
X130510729Y-122616511D01*
X130396655Y-123190000D01*
X130510729Y-123763489D01*
X130835585Y-124249670D01*
X131150366Y-124460000D01*
X130835585Y-124670330D01*
X130510729Y-125156511D01*
X130396655Y-125730000D01*
X130510729Y-126303489D01*
X130835585Y-126789670D01*
X131150366Y-127000000D01*
X130835585Y-127210330D01*
X130510729Y-127696511D01*
X130396655Y-128270000D01*
X130510729Y-128843489D01*
X130835585Y-129329670D01*
X131150366Y-129540000D01*
X130835585Y-129750330D01*
X130510729Y-130236511D01*
X130396655Y-130810000D01*
X130510729Y-131383489D01*
X130835585Y-131869670D01*
X131150366Y-132080000D01*
X130835585Y-132290330D01*
X130510729Y-132776511D01*
X130396655Y-133350000D01*
X130510729Y-133923489D01*
X130835585Y-134409670D01*
X131150366Y-134620000D01*
X130835585Y-134830330D01*
X130510729Y-135316511D01*
X130396655Y-135890000D01*
X130510729Y-136463489D01*
X130835585Y-136949670D01*
X131150366Y-137160000D01*
X130835585Y-137370330D01*
X130510729Y-137856511D01*
X130396655Y-138430000D01*
X130510729Y-139003489D01*
X130835585Y-139489670D01*
X131321766Y-139814526D01*
X131895255Y-139928600D01*
X132264745Y-139928600D01*
X132838234Y-139814526D01*
X133324415Y-139489670D01*
X133350000Y-139451379D01*
X133375585Y-139489670D01*
X133861766Y-139814526D01*
X134435255Y-139928600D01*
X134804745Y-139928600D01*
X135378234Y-139814526D01*
X135864415Y-139489670D01*
X135890000Y-139451379D01*
X135915585Y-139489670D01*
X136401766Y-139814526D01*
X136975255Y-139928600D01*
X137344745Y-139928600D01*
X137918234Y-139814526D01*
X138404415Y-139489670D01*
X138430000Y-139451379D01*
X138455585Y-139489670D01*
X138941766Y-139814526D01*
X139515255Y-139928600D01*
X139884745Y-139928600D01*
X140458234Y-139814526D01*
X140944415Y-139489670D01*
X141269271Y-139003489D01*
X141383345Y-138430000D01*
X141269271Y-137856511D01*
X140944415Y-137370330D01*
X140629634Y-137160000D01*
X140944415Y-136949670D01*
X141269271Y-136463489D01*
X141383345Y-135890000D01*
X141269271Y-135316511D01*
X140944415Y-134830330D01*
X140629634Y-134620000D01*
X140944415Y-134409670D01*
X141096569Y-134181955D01*
X141447630Y-134533629D01*
X141960900Y-134746757D01*
X142516661Y-134747242D01*
X143030303Y-134535010D01*
X143423629Y-134142370D01*
X143636757Y-133629100D01*
X143637242Y-133073339D01*
X143425010Y-132559697D01*
X143032370Y-132166371D01*
X142824488Y-132080051D01*
X143030303Y-131995010D01*
X143423629Y-131602370D01*
X143636757Y-131089100D01*
X143637242Y-130533339D01*
X143425010Y-130019697D01*
X143032370Y-129626371D01*
X142824488Y-129540051D01*
X143030303Y-129455010D01*
X143423629Y-129062370D01*
X143636757Y-128549100D01*
X143637242Y-127993339D01*
X143425010Y-127479697D01*
X143032370Y-127086371D01*
X142824488Y-127000051D01*
X143030303Y-126915010D01*
X143423629Y-126522370D01*
X143636757Y-126009100D01*
X143637242Y-125453339D01*
X143425010Y-124939697D01*
X143032370Y-124546371D01*
X142824488Y-124460051D01*
X143030303Y-124375010D01*
X143423629Y-123982370D01*
X143636757Y-123469100D01*
X143637242Y-122913339D01*
X143425010Y-122399697D01*
X143032370Y-122006371D01*
X142824488Y-121920051D01*
X143030303Y-121835010D01*
X143423629Y-121442370D01*
X143636757Y-120929100D01*
X143637242Y-120373339D01*
X143425010Y-119859697D01*
X143032370Y-119466371D01*
X142824488Y-119380051D01*
X143030303Y-119295010D01*
X143423629Y-118902370D01*
X143636757Y-118389100D01*
X143637242Y-117833339D01*
X143425010Y-117319697D01*
X143032370Y-116926371D01*
X142824488Y-116840051D01*
X143030303Y-116755010D01*
X143423629Y-116362370D01*
X143636757Y-115849100D01*
X143637242Y-115293339D01*
X143425010Y-114779697D01*
X143032370Y-114386371D01*
X142840273Y-114306605D01*
X142971143Y-114252397D01*
X143040608Y-114010213D01*
X142240000Y-113209605D01*
X141439392Y-114010213D01*
X141508857Y-114252397D01*
X141649318Y-114302509D01*
X141449697Y-114384990D01*
X141096352Y-114737719D01*
X140944415Y-114510330D01*
X140634931Y-114303539D01*
X141050732Y-113932036D01*
X141119037Y-113790237D01*
X141259787Y-113830608D01*
X142060395Y-113030000D01*
X142419605Y-113030000D01*
X143220213Y-113830608D01*
X143462397Y-113761143D01*
X143649144Y-113237698D01*
X143621362Y-112682632D01*
X143462397Y-112298857D01*
X143220213Y-112229392D01*
X142419605Y-113030000D01*
X142060395Y-113030000D01*
X141259787Y-112229392D01*
X141119037Y-112269763D01*
X141050732Y-112127964D01*
X140638892Y-111760000D01*
X140963233Y-111470213D01*
X141439392Y-111470213D01*
X141508857Y-111712397D01*
X141632344Y-111756453D01*
X141508857Y-111807603D01*
X141439392Y-112049787D01*
X142240000Y-112850395D01*
X143040608Y-112049787D01*
X142971143Y-111807603D01*
X142847656Y-111763547D01*
X142971143Y-111712397D01*
X143040608Y-111470213D01*
X142240000Y-110669605D01*
X141439392Y-111470213D01*
X140963233Y-111470213D01*
X141050732Y-111392036D01*
X141119037Y-111250237D01*
X141259787Y-111290608D01*
X142060395Y-110490000D01*
X142419605Y-110490000D01*
X143220213Y-111290608D01*
X143462397Y-111221143D01*
X143649144Y-110697698D01*
X143629502Y-110305255D01*
X144551400Y-110305255D01*
X144551400Y-110674745D01*
X144665474Y-111248234D01*
X144990330Y-111734415D01*
X145476511Y-112059271D01*
X146050000Y-112173345D01*
X146623489Y-112059271D01*
X147109670Y-111734415D01*
X147320000Y-111419634D01*
X147530330Y-111734415D01*
X147684896Y-111837693D01*
X147530330Y-111940971D01*
X147205474Y-112427152D01*
X147091400Y-113000641D01*
X147091400Y-113059359D01*
X147205474Y-113632848D01*
X147530330Y-114119029D01*
X147801172Y-114300000D01*
X147530330Y-114480971D01*
X147205474Y-114967152D01*
X147091400Y-115540641D01*
X147091400Y-115599359D01*
X147205474Y-116172848D01*
X147530330Y-116659029D01*
X148016511Y-116983885D01*
X148590000Y-117097959D01*
X149163489Y-116983885D01*
X149649670Y-116659029D01*
X149860000Y-116344248D01*
X150070330Y-116659029D01*
X150556511Y-116983885D01*
X151130000Y-117097959D01*
X151703489Y-116983885D01*
X152189670Y-116659029D01*
X152514526Y-116172848D01*
X152628600Y-115599359D01*
X152628600Y-115540641D01*
X152514526Y-114967152D01*
X152189670Y-114480971D01*
X151918828Y-114300000D01*
X152189670Y-114119029D01*
X152514526Y-113632848D01*
X152628600Y-113059359D01*
X152628600Y-113000641D01*
X152593127Y-112822302D01*
X156070856Y-112822302D01*
X156098638Y-113377368D01*
X156257603Y-113761143D01*
X156499787Y-113830608D01*
X157300395Y-113030000D01*
X156499787Y-112229392D01*
X156257603Y-112298857D01*
X156070856Y-112822302D01*
X152593127Y-112822302D01*
X152514526Y-112427152D01*
X152189670Y-111940971D01*
X152035104Y-111837693D01*
X152189670Y-111734415D01*
X152396461Y-111424931D01*
X152767964Y-111840732D01*
X153295209Y-112094709D01*
X153310974Y-112097358D01*
X153543000Y-111976217D01*
X153543000Y-110617000D01*
X153797000Y-110617000D01*
X153797000Y-111976217D01*
X154029026Y-112097358D01*
X154044791Y-112094709D01*
X154572036Y-111840732D01*
X154961954Y-111404320D01*
X155155184Y-110851913D01*
X155010924Y-110617000D01*
X153797000Y-110617000D01*
X153543000Y-110617000D01*
X153523000Y-110617000D01*
X153523000Y-110363000D01*
X153543000Y-110363000D01*
X153543000Y-109003783D01*
X153797000Y-109003783D01*
X153797000Y-110363000D01*
X155010924Y-110363000D01*
X155155184Y-110128087D01*
X154961954Y-109575680D01*
X154572036Y-109139268D01*
X154044791Y-108885291D01*
X154029026Y-108882642D01*
X153797000Y-109003783D01*
X153543000Y-109003783D01*
X153310974Y-108882642D01*
X153295209Y-108885291D01*
X152767964Y-109139268D01*
X152396461Y-109555069D01*
X152189670Y-109245585D01*
X151703489Y-108920729D01*
X151130000Y-108806655D01*
X150556511Y-108920729D01*
X150070330Y-109245585D01*
X149860000Y-109560366D01*
X149649670Y-109245585D01*
X149163489Y-108920729D01*
X148590000Y-108806655D01*
X148016511Y-108920729D01*
X147530330Y-109245585D01*
X147320000Y-109560366D01*
X147109670Y-109245585D01*
X146623489Y-108920729D01*
X146050000Y-108806655D01*
X145476511Y-108920729D01*
X144990330Y-109245585D01*
X144665474Y-109731766D01*
X144551400Y-110305255D01*
X143629502Y-110305255D01*
X143621362Y-110142632D01*
X143462397Y-109758857D01*
X143220213Y-109689392D01*
X142419605Y-110490000D01*
X142060395Y-110490000D01*
X141259787Y-109689392D01*
X141119037Y-109729763D01*
X141050732Y-109587964D01*
X140614320Y-109198046D01*
X140061913Y-109004816D01*
X139827000Y-109149076D01*
X139827000Y-110363000D01*
X139847000Y-110363000D01*
X139847000Y-110617000D01*
X139827000Y-110617000D01*
X139827000Y-112903000D01*
X139847000Y-112903000D01*
X139847000Y-113157000D01*
X139827000Y-113157000D01*
X139827000Y-113177000D01*
X139573000Y-113177000D01*
X139573000Y-113157000D01*
X138213783Y-113157000D01*
X138092642Y-113389026D01*
X138095291Y-113404791D01*
X138349268Y-113932036D01*
X138765069Y-114303539D01*
X138455585Y-114510330D01*
X138430000Y-114548621D01*
X138404415Y-114510330D01*
X137918234Y-114185474D01*
X137344745Y-114071400D01*
X136975255Y-114071400D01*
X136401766Y-114185474D01*
X135915585Y-114510330D01*
X135890000Y-114548621D01*
X135864415Y-114510330D01*
X135595507Y-114330651D01*
X135679670Y-114274415D01*
X136004526Y-113788234D01*
X136118600Y-113214745D01*
X136118600Y-112845255D01*
X136004526Y-112271766D01*
X135679670Y-111785585D01*
X135641379Y-111760000D01*
X135679670Y-111734415D01*
X135890000Y-111419634D01*
X136100330Y-111734415D01*
X136586511Y-112059271D01*
X137160000Y-112173345D01*
X137733489Y-112059271D01*
X138219670Y-111734415D01*
X138411368Y-111447520D01*
X138761108Y-111760000D01*
X138349268Y-112127964D01*
X138095291Y-112655209D01*
X138092642Y-112670974D01*
X138213783Y-112903000D01*
X139573000Y-112903000D01*
X139573000Y-110617000D01*
X139553000Y-110617000D01*
X139553000Y-110363000D01*
X139573000Y-110363000D01*
X139573000Y-109149076D01*
X139338087Y-109004816D01*
X138785680Y-109198046D01*
X138411368Y-109532480D01*
X138219670Y-109245585D01*
X137733489Y-108920729D01*
X137160000Y-108806655D01*
X136586511Y-108920729D01*
X136100330Y-109245585D01*
X135890000Y-109560366D01*
X135679670Y-109245585D01*
X135193489Y-108920729D01*
X134620000Y-108806655D01*
X134046511Y-108920729D01*
X133560330Y-109245585D01*
X133350000Y-109560366D01*
X133139670Y-109245585D01*
X132653489Y-108920729D01*
X132080000Y-108806655D01*
X131506511Y-108920729D01*
X131020330Y-109245585D01*
X130813539Y-109555069D01*
X130442036Y-109139268D01*
X129914791Y-108885291D01*
X129899026Y-108882642D01*
X129667000Y-109003783D01*
X129413000Y-109003783D01*
X129180974Y-108882642D01*
X129165209Y-108885291D01*
X128637964Y-109139268D01*
X128248046Y-109575680D01*
X128054816Y-110128087D01*
X116280000Y-110128087D01*
X116280000Y-106680000D01*
X116873949Y-106680000D01*
X117064711Y-107639024D01*
X117607954Y-108452046D01*
X118420976Y-108995289D01*
X119380000Y-109186051D01*
X120339024Y-108995289D01*
X121152046Y-108452046D01*
X121695289Y-107639024D01*
X121886051Y-106680000D01*
X121695289Y-105720976D01*
X121672361Y-105686661D01*
X140842758Y-105686661D01*
X141054990Y-106200303D01*
X141447630Y-106593629D01*
X141655512Y-106679949D01*
X141449697Y-106764990D01*
X141056371Y-107157630D01*
X140843243Y-107670900D01*
X140842758Y-108226661D01*
X141054990Y-108740303D01*
X141447630Y-109133629D01*
X141639727Y-109213395D01*
X141508857Y-109267603D01*
X141439392Y-109509787D01*
X142240000Y-110310395D01*
X143040608Y-109509787D01*
X142971143Y-109267603D01*
X142830682Y-109217491D01*
X143030303Y-109135010D01*
X143423629Y-108742370D01*
X143636757Y-108229100D01*
X143637242Y-107673339D01*
X143425010Y-107159697D01*
X143032370Y-106766371D01*
X142824488Y-106680051D01*
X143030303Y-106595010D01*
X143423629Y-106202370D01*
X143636757Y-105689100D01*
X143637242Y-105133339D01*
X143425010Y-104619697D01*
X143032370Y-104226371D01*
X142519100Y-104013243D01*
X141963339Y-104012758D01*
X141449697Y-104224990D01*
X141056371Y-104617630D01*
X140843243Y-105130900D01*
X140842758Y-105686661D01*
X121672361Y-105686661D01*
X121152046Y-104907954D01*
X120339024Y-104364711D01*
X119380000Y-104173949D01*
X118420976Y-104364711D01*
X117607954Y-104907954D01*
X117064711Y-105720976D01*
X116873949Y-106680000D01*
X116280000Y-106680000D01*
X116280000Y-103580000D01*
X160580000Y-103580000D01*
X160580000Y-103986043D01*
X160580000Y-103986043D01*
G37*
X160580000Y-103986043D02*
X160204745Y-103911400D01*
X159835255Y-103911400D01*
X159261766Y-104025474D01*
X158775585Y-104350330D01*
X158623431Y-104578045D01*
X158272370Y-104226371D01*
X157759100Y-104013243D01*
X157203339Y-104012758D01*
X156689697Y-104224990D01*
X156296371Y-104617630D01*
X156083243Y-105130900D01*
X156082758Y-105686661D01*
X156294990Y-106200303D01*
X156687630Y-106593629D01*
X156895512Y-106679949D01*
X156689697Y-106764990D01*
X156296371Y-107157630D01*
X156083243Y-107670900D01*
X156082758Y-108226661D01*
X156294990Y-108740303D01*
X156687630Y-109133629D01*
X156895512Y-109219949D01*
X156689697Y-109304990D01*
X156296371Y-109697630D01*
X156083243Y-110210900D01*
X156082758Y-110766661D01*
X156294990Y-111280303D01*
X156687630Y-111673629D01*
X156879727Y-111753395D01*
X156748857Y-111807603D01*
X156679392Y-112049787D01*
X157480000Y-112850395D01*
X158280608Y-112049787D01*
X158211143Y-111807603D01*
X158070682Y-111757491D01*
X158270303Y-111675010D01*
X158623648Y-111322281D01*
X158775585Y-111549670D01*
X159085069Y-111756461D01*
X158669268Y-112127964D01*
X158600963Y-112269763D01*
X158460213Y-112229392D01*
X157659605Y-113030000D01*
X158460213Y-113830608D01*
X158600963Y-113790237D01*
X158669268Y-113932036D01*
X159085069Y-114303539D01*
X158775585Y-114510330D01*
X158623431Y-114738045D01*
X158272370Y-114386371D01*
X158080273Y-114306605D01*
X158211143Y-114252397D01*
X158280608Y-114010213D01*
X157480000Y-113209605D01*
X156679392Y-114010213D01*
X156748857Y-114252397D01*
X156889318Y-114302509D01*
X156689697Y-114384990D01*
X156296371Y-114777630D01*
X156083243Y-115290900D01*
X156082758Y-115846661D01*
X156294990Y-116360303D01*
X156687630Y-116753629D01*
X156895512Y-116839949D01*
X156689697Y-116924990D01*
X156296371Y-117317630D01*
X156083243Y-117830900D01*
X156082758Y-118386661D01*
X156294990Y-118900303D01*
X156687630Y-119293629D01*
X156895512Y-119379949D01*
X156689697Y-119464990D01*
X156296371Y-119857630D01*
X156083243Y-120370900D01*
X156082758Y-120926661D01*
X156294990Y-121440303D01*
X156687630Y-121833629D01*
X156895512Y-121919949D01*
X156689697Y-122004990D01*
X156296371Y-122397630D01*
X156083243Y-122910900D01*
X156082758Y-123466661D01*
X156294990Y-123980303D01*
X156687630Y-124373629D01*
X156895512Y-124459949D01*
X156689697Y-124544990D01*
X156296371Y-124937630D01*
X156083243Y-125450900D01*
X156082758Y-126006661D01*
X156294990Y-126520303D01*
X156687630Y-126913629D01*
X156895512Y-126999949D01*
X156689697Y-127084990D01*
X156296371Y-127477630D01*
X156083243Y-127990900D01*
X156082758Y-128546661D01*
X156294990Y-129060303D01*
X156687630Y-129453629D01*
X156895512Y-129539949D01*
X156689697Y-129624990D01*
X156296371Y-130017630D01*
X156083243Y-130530900D01*
X156082758Y-131086661D01*
X156294990Y-131600303D01*
X156687630Y-131993629D01*
X156895512Y-132079949D01*
X156689697Y-132164990D01*
X156296371Y-132557630D01*
X156083243Y-133070900D01*
X156082758Y-133626661D01*
X156294990Y-134140303D01*
X156687630Y-134533629D01*
X157200900Y-134746757D01*
X157756661Y-134747242D01*
X158270303Y-134535010D01*
X158623648Y-134182281D01*
X158775585Y-134409670D01*
X159261766Y-134734526D01*
X159835255Y-134848600D01*
X160204745Y-134848600D01*
X160580000Y-134773957D01*
X160580000Y-140260000D01*
X159165312Y-140260000D01*
X159252046Y-140202046D01*
X159795289Y-139389024D01*
X159986051Y-138430000D01*
X159795289Y-137470976D01*
X159252046Y-136657954D01*
X158439024Y-136114711D01*
X157480000Y-135923949D01*
X156520976Y-136114711D01*
X155707954Y-136657954D01*
X155164711Y-137470976D01*
X154973949Y-138430000D01*
X155164711Y-139389024D01*
X155707954Y-140202046D01*
X155794688Y-140260000D01*
X116280000Y-140260000D01*
X116280000Y-140001954D01*
X116840000Y-140113345D01*
X117413489Y-139999271D01*
X117899670Y-139674415D01*
X118106461Y-139364931D01*
X118477964Y-139780732D01*
X119005209Y-140034709D01*
X119020974Y-140037358D01*
X119253000Y-139916217D01*
X119253000Y-138557000D01*
X119233000Y-138557000D01*
X119233000Y-138303000D01*
X119253000Y-138303000D01*
X119253000Y-136017000D01*
X119233000Y-136017000D01*
X119233000Y-135763000D01*
X119253000Y-135763000D01*
X119253000Y-133477000D01*
X119233000Y-133477000D01*
X119233000Y-133223000D01*
X119253000Y-133223000D01*
X119253000Y-130937000D01*
X119233000Y-130937000D01*
X119233000Y-130683000D01*
X119253000Y-130683000D01*
X119253000Y-128397000D01*
X119233000Y-128397000D01*
X119233000Y-128143000D01*
X119253000Y-128143000D01*
X119253000Y-125857000D01*
X119233000Y-125857000D01*
X119233000Y-125603000D01*
X119253000Y-125603000D01*
X119253000Y-123317000D01*
X119233000Y-123317000D01*
X119233000Y-123063000D01*
X119253000Y-123063000D01*
X119253000Y-120777000D01*
X119233000Y-120777000D01*
X119233000Y-120523000D01*
X119253000Y-120523000D01*
X119253000Y-118237000D01*
X119233000Y-118237000D01*
X119233000Y-117983000D01*
X119253000Y-117983000D01*
X119253000Y-115697000D01*
X119233000Y-115697000D01*
X119233000Y-115443000D01*
X119253000Y-115443000D01*
X119253000Y-114083783D01*
X119507000Y-114083783D01*
X119507000Y-115443000D01*
X119527000Y-115443000D01*
X119527000Y-115697000D01*
X119507000Y-115697000D01*
X119507000Y-117983000D01*
X119527000Y-117983000D01*
X119527000Y-118237000D01*
X119507000Y-118237000D01*
X119507000Y-120523000D01*
X119527000Y-120523000D01*
X119527000Y-120777000D01*
X119507000Y-120777000D01*
X119507000Y-123063000D01*
X119527000Y-123063000D01*
X119527000Y-123317000D01*
X119507000Y-123317000D01*
X119507000Y-125603000D01*
X119527000Y-125603000D01*
X119527000Y-125857000D01*
X119507000Y-125857000D01*
X119507000Y-128143000D01*
X119527000Y-128143000D01*
X119527000Y-128397000D01*
X119507000Y-128397000D01*
X119507000Y-130683000D01*
X119527000Y-130683000D01*
X119527000Y-130937000D01*
X119507000Y-130937000D01*
X119507000Y-133223000D01*
X119527000Y-133223000D01*
X119527000Y-133477000D01*
X119507000Y-133477000D01*
X119507000Y-135763000D01*
X119527000Y-135763000D01*
X119527000Y-136017000D01*
X119507000Y-136017000D01*
X119507000Y-138303000D01*
X119527000Y-138303000D01*
X119527000Y-138557000D01*
X119507000Y-138557000D01*
X119507000Y-139916217D01*
X119739026Y-140037358D01*
X119754791Y-140034709D01*
X120282036Y-139780732D01*
X120618466Y-139404186D01*
X120675585Y-139489670D01*
X121161766Y-139814526D01*
X121735255Y-139928600D01*
X122104745Y-139928600D01*
X122678234Y-139814526D01*
X123164415Y-139489670D01*
X123190000Y-139451379D01*
X123215585Y-139489670D01*
X123701766Y-139814526D01*
X124275255Y-139928600D01*
X124644745Y-139928600D01*
X125218234Y-139814526D01*
X125704415Y-139489670D01*
X125730000Y-139451379D01*
X125755585Y-139489670D01*
X126241766Y-139814526D01*
X126815255Y-139928600D01*
X127184745Y-139928600D01*
X127758234Y-139814526D01*
X128244415Y-139489670D01*
X128569271Y-139003489D01*
X128683345Y-138430000D01*
X128569271Y-137856511D01*
X128244415Y-137370330D01*
X127929634Y-137160000D01*
X128244415Y-136949670D01*
X128569271Y-136463489D01*
X128683345Y-135890000D01*
X128569271Y-135316511D01*
X128244415Y-134830330D01*
X127929634Y-134620000D01*
X128244415Y-134409670D01*
X128569271Y-133923489D01*
X128683345Y-133350000D01*
X128569271Y-132776511D01*
X128244415Y-132290330D01*
X127929634Y-132080000D01*
X128244415Y-131869670D01*
X128569271Y-131383489D01*
X128683345Y-130810000D01*
X128569271Y-130236511D01*
X128244415Y-129750330D01*
X127929634Y-129540000D01*
X128244415Y-129329670D01*
X128569271Y-128843489D01*
X128683345Y-128270000D01*
X128569271Y-127696511D01*
X128244415Y-127210330D01*
X127929634Y-127000000D01*
X128244415Y-126789670D01*
X128569271Y-126303489D01*
X128683345Y-125730000D01*
X128569271Y-125156511D01*
X128244415Y-124670330D01*
X127929634Y-124460000D01*
X128244415Y-124249670D01*
X128569271Y-123763489D01*
X128683345Y-123190000D01*
X128569271Y-122616511D01*
X128244415Y-122130330D01*
X127929634Y-121920000D01*
X128244415Y-121709670D01*
X128569271Y-121223489D01*
X128683345Y-120650000D01*
X128569271Y-120076511D01*
X128244415Y-119590330D01*
X127929634Y-119380000D01*
X128244415Y-119169670D01*
X128569271Y-118683489D01*
X128683345Y-118110000D01*
X128569271Y-117536511D01*
X128244415Y-117050330D01*
X127929634Y-116840000D01*
X128244415Y-116629670D01*
X128569271Y-116143489D01*
X128683345Y-115570000D01*
X128569271Y-114996511D01*
X128244415Y-114510330D01*
X127758234Y-114185474D01*
X127184745Y-114071400D01*
X126815255Y-114071400D01*
X126241766Y-114185474D01*
X125755585Y-114510330D01*
X125730000Y-114548621D01*
X125704415Y-114510330D01*
X125218234Y-114185474D01*
X124644745Y-114071400D01*
X124275255Y-114071400D01*
X123701766Y-114185474D01*
X123215585Y-114510330D01*
X123190000Y-114548621D01*
X123164415Y-114510330D01*
X122678234Y-114185474D01*
X122104745Y-114071400D01*
X121735255Y-114071400D01*
X121161766Y-114185474D01*
X120675585Y-114510330D01*
X120618466Y-114595814D01*
X120282036Y-114219268D01*
X119754791Y-113965291D01*
X119739026Y-113962642D01*
X119507000Y-114083783D01*
X119253000Y-114083783D01*
X119020974Y-113962642D01*
X119005209Y-113965291D01*
X118477964Y-114219268D01*
X118106461Y-114635069D01*
X117899670Y-114325585D01*
X117413489Y-114000729D01*
X116840000Y-113886655D01*
X116280000Y-113998046D01*
X116280000Y-110851913D01*
X128054816Y-110851913D01*
X128248046Y-111404320D01*
X128637964Y-111840732D01*
X129165209Y-112094709D01*
X129180974Y-112097358D01*
X129413000Y-111976217D01*
X129413000Y-110617000D01*
X128199076Y-110617000D01*
X128054816Y-110851913D01*
X116280000Y-110851913D01*
X116280000Y-110128087D01*
X128054816Y-110128087D01*
X128199076Y-110363000D01*
X129413000Y-110363000D01*
X129413000Y-109003783D01*
X129667000Y-109003783D01*
X129667000Y-110363000D01*
X129687000Y-110363000D01*
X129687000Y-110617000D01*
X129667000Y-110617000D01*
X129667000Y-111976217D01*
X129899026Y-112097358D01*
X129914791Y-112094709D01*
X130442036Y-111840732D01*
X130813539Y-111424931D01*
X131020330Y-111734415D01*
X131058621Y-111760000D01*
X131020330Y-111785585D01*
X130695474Y-112271766D01*
X130581400Y-112845255D01*
X130581400Y-113214745D01*
X130695474Y-113788234D01*
X131020330Y-114274415D01*
X131104493Y-114330651D01*
X130835585Y-114510330D01*
X130510729Y-114996511D01*
X130396655Y-115570000D01*
X130510729Y-116143489D01*
X130835585Y-116629670D01*
X131150366Y-116840000D01*
X130835585Y-117050330D01*
X130510729Y-117536511D01*
X130396655Y-118110000D01*
X130510729Y-118683489D01*
X130835585Y-119169670D01*
X131150366Y-119380000D01*
X130835585Y-119590330D01*
X130510729Y-120076511D01*
X130396655Y-120650000D01*
X130510729Y-121223489D01*
X130835585Y-121709670D01*
X131150366Y-121920000D01*
X130835585Y-122130330D01*
X130510729Y-122616511D01*
X130396655Y-123190000D01*
X130510729Y-123763489D01*
X130835585Y-124249670D01*
X131150366Y-124460000D01*
X130835585Y-124670330D01*
X130510729Y-125156511D01*
X130396655Y-125730000D01*
X130510729Y-126303489D01*
X130835585Y-126789670D01*
X131150366Y-127000000D01*
X130835585Y-127210330D01*
X130510729Y-127696511D01*
X130396655Y-128270000D01*
X130510729Y-128843489D01*
X130835585Y-129329670D01*
X131150366Y-129540000D01*
X130835585Y-129750330D01*
X130510729Y-130236511D01*
X130396655Y-130810000D01*
X130510729Y-131383489D01*
X130835585Y-131869670D01*
X131150366Y-132080000D01*
X130835585Y-132290330D01*
X130510729Y-132776511D01*
X130396655Y-133350000D01*
X130510729Y-133923489D01*
X130835585Y-134409670D01*
X131150366Y-134620000D01*
X130835585Y-134830330D01*
X130510729Y-135316511D01*
X130396655Y-135890000D01*
X130510729Y-136463489D01*
X130835585Y-136949670D01*
X131150366Y-137160000D01*
X130835585Y-137370330D01*
X130510729Y-137856511D01*
X130396655Y-138430000D01*
X130510729Y-139003489D01*
X130835585Y-139489670D01*
X131321766Y-139814526D01*
X131895255Y-139928600D01*
X132264745Y-139928600D01*
X132838234Y-139814526D01*
X133324415Y-139489670D01*
X133350000Y-139451379D01*
X133375585Y-139489670D01*
X133861766Y-139814526D01*
X134435255Y-139928600D01*
X134804745Y-139928600D01*
X135378234Y-139814526D01*
X135864415Y-139489670D01*
X135890000Y-139451379D01*
X135915585Y-139489670D01*
X136401766Y-139814526D01*
X136975255Y-139928600D01*
X137344745Y-139928600D01*
X137918234Y-139814526D01*
X138404415Y-139489670D01*
X138430000Y-139451379D01*
X138455585Y-139489670D01*
X138941766Y-139814526D01*
X139515255Y-139928600D01*
X139884745Y-139928600D01*
X140458234Y-139814526D01*
X140944415Y-139489670D01*
X141269271Y-139003489D01*
X141383345Y-138430000D01*
X141269271Y-137856511D01*
X140944415Y-137370330D01*
X140629634Y-137160000D01*
X140944415Y-136949670D01*
X141269271Y-136463489D01*
X141383345Y-135890000D01*
X141269271Y-135316511D01*
X140944415Y-134830330D01*
X140629634Y-134620000D01*
X140944415Y-134409670D01*
X141096569Y-134181955D01*
X141447630Y-134533629D01*
X141960900Y-134746757D01*
X142516661Y-134747242D01*
X143030303Y-134535010D01*
X143423629Y-134142370D01*
X143636757Y-133629100D01*
X143637242Y-133073339D01*
X143425010Y-132559697D01*
X143032370Y-132166371D01*
X142824488Y-132080051D01*
X143030303Y-131995010D01*
X143423629Y-131602370D01*
X143636757Y-131089100D01*
X143637242Y-130533339D01*
X143425010Y-130019697D01*
X143032370Y-129626371D01*
X142824488Y-129540051D01*
X143030303Y-129455010D01*
X143423629Y-129062370D01*
X143636757Y-128549100D01*
X143637242Y-127993339D01*
X143425010Y-127479697D01*
X143032370Y-127086371D01*
X142824488Y-127000051D01*
X143030303Y-126915010D01*
X143423629Y-126522370D01*
X143636757Y-126009100D01*
X143637242Y-125453339D01*
X143425010Y-124939697D01*
X143032370Y-124546371D01*
X142824488Y-124460051D01*
X143030303Y-124375010D01*
X143423629Y-123982370D01*
X143636757Y-123469100D01*
X143637242Y-122913339D01*
X143425010Y-122399697D01*
X143032370Y-122006371D01*
X142824488Y-121920051D01*
X143030303Y-121835010D01*
X143423629Y-121442370D01*
X143636757Y-120929100D01*
X143637242Y-120373339D01*
X143425010Y-119859697D01*
X143032370Y-119466371D01*
X142824488Y-119380051D01*
X143030303Y-119295010D01*
X143423629Y-118902370D01*
X143636757Y-118389100D01*
X143637242Y-117833339D01*
X143425010Y-117319697D01*
X143032370Y-116926371D01*
X142824488Y-116840051D01*
X143030303Y-116755010D01*
X143423629Y-116362370D01*
X143636757Y-115849100D01*
X143637242Y-115293339D01*
X143425010Y-114779697D01*
X143032370Y-114386371D01*
X142840273Y-114306605D01*
X142971143Y-114252397D01*
X143040608Y-114010213D01*
X142240000Y-113209605D01*
X141439392Y-114010213D01*
X141508857Y-114252397D01*
X141649318Y-114302509D01*
X141449697Y-114384990D01*
X141096352Y-114737719D01*
X140944415Y-114510330D01*
X140634931Y-114303539D01*
X141050732Y-113932036D01*
X141119037Y-113790237D01*
X141259787Y-113830608D01*
X142060395Y-113030000D01*
X142419605Y-113030000D01*
X143220213Y-113830608D01*
X143462397Y-113761143D01*
X143649144Y-113237698D01*
X143621362Y-112682632D01*
X143462397Y-112298857D01*
X143220213Y-112229392D01*
X142419605Y-113030000D01*
X142060395Y-113030000D01*
X141259787Y-112229392D01*
X141119037Y-112269763D01*
X141050732Y-112127964D01*
X140638892Y-111760000D01*
X140963233Y-111470213D01*
X141439392Y-111470213D01*
X141508857Y-111712397D01*
X141632344Y-111756453D01*
X141508857Y-111807603D01*
X141439392Y-112049787D01*
X142240000Y-112850395D01*
X143040608Y-112049787D01*
X142971143Y-111807603D01*
X142847656Y-111763547D01*
X142971143Y-111712397D01*
X143040608Y-111470213D01*
X142240000Y-110669605D01*
X141439392Y-111470213D01*
X140963233Y-111470213D01*
X141050732Y-111392036D01*
X141119037Y-111250237D01*
X141259787Y-111290608D01*
X142060395Y-110490000D01*
X142419605Y-110490000D01*
X143220213Y-111290608D01*
X143462397Y-111221143D01*
X143649144Y-110697698D01*
X143629502Y-110305255D01*
X144551400Y-110305255D01*
X144551400Y-110674745D01*
X144665474Y-111248234D01*
X144990330Y-111734415D01*
X145476511Y-112059271D01*
X146050000Y-112173345D01*
X146623489Y-112059271D01*
X147109670Y-111734415D01*
X147320000Y-111419634D01*
X147530330Y-111734415D01*
X147684896Y-111837693D01*
X147530330Y-111940971D01*
X147205474Y-112427152D01*
X147091400Y-113000641D01*
X147091400Y-113059359D01*
X147205474Y-113632848D01*
X147530330Y-114119029D01*
X147801172Y-114300000D01*
X147530330Y-114480971D01*
X147205474Y-114967152D01*
X147091400Y-115540641D01*
X147091400Y-115599359D01*
X147205474Y-116172848D01*
X147530330Y-116659029D01*
X148016511Y-116983885D01*
X148590000Y-117097959D01*
X149163489Y-116983885D01*
X149649670Y-116659029D01*
X149860000Y-116344248D01*
X150070330Y-116659029D01*
X150556511Y-116983885D01*
X151130000Y-117097959D01*
X151703489Y-116983885D01*
X152189670Y-116659029D01*
X152514526Y-116172848D01*
X152628600Y-115599359D01*
X152628600Y-115540641D01*
X152514526Y-114967152D01*
X152189670Y-114480971D01*
X151918828Y-114300000D01*
X152189670Y-114119029D01*
X152514526Y-113632848D01*
X152628600Y-113059359D01*
X152628600Y-113000641D01*
X152593127Y-112822302D01*
X156070856Y-112822302D01*
X156098638Y-113377368D01*
X156257603Y-113761143D01*
X156499787Y-113830608D01*
X157300395Y-113030000D01*
X156499787Y-112229392D01*
X156257603Y-112298857D01*
X156070856Y-112822302D01*
X152593127Y-112822302D01*
X152514526Y-112427152D01*
X152189670Y-111940971D01*
X152035104Y-111837693D01*
X152189670Y-111734415D01*
X152396461Y-111424931D01*
X152767964Y-111840732D01*
X153295209Y-112094709D01*
X153310974Y-112097358D01*
X153543000Y-111976217D01*
X153543000Y-110617000D01*
X153797000Y-110617000D01*
X153797000Y-111976217D01*
X154029026Y-112097358D01*
X154044791Y-112094709D01*
X154572036Y-111840732D01*
X154961954Y-111404320D01*
X155155184Y-110851913D01*
X155010924Y-110617000D01*
X153797000Y-110617000D01*
X153543000Y-110617000D01*
X153523000Y-110617000D01*
X153523000Y-110363000D01*
X153543000Y-110363000D01*
X153543000Y-109003783D01*
X153797000Y-109003783D01*
X153797000Y-110363000D01*
X155010924Y-110363000D01*
X155155184Y-110128087D01*
X154961954Y-109575680D01*
X154572036Y-109139268D01*
X154044791Y-108885291D01*
X154029026Y-108882642D01*
X153797000Y-109003783D01*
X153543000Y-109003783D01*
X153310974Y-108882642D01*
X153295209Y-108885291D01*
X152767964Y-109139268D01*
X152396461Y-109555069D01*
X152189670Y-109245585D01*
X151703489Y-108920729D01*
X151130000Y-108806655D01*
X150556511Y-108920729D01*
X150070330Y-109245585D01*
X149860000Y-109560366D01*
X149649670Y-109245585D01*
X149163489Y-108920729D01*
X148590000Y-108806655D01*
X148016511Y-108920729D01*
X147530330Y-109245585D01*
X147320000Y-109560366D01*
X147109670Y-109245585D01*
X146623489Y-108920729D01*
X146050000Y-108806655D01*
X145476511Y-108920729D01*
X144990330Y-109245585D01*
X144665474Y-109731766D01*
X144551400Y-110305255D01*
X143629502Y-110305255D01*
X143621362Y-110142632D01*
X143462397Y-109758857D01*
X143220213Y-109689392D01*
X142419605Y-110490000D01*
X142060395Y-110490000D01*
X141259787Y-109689392D01*
X141119037Y-109729763D01*
X141050732Y-109587964D01*
X140614320Y-109198046D01*
X140061913Y-109004816D01*
X139827000Y-109149076D01*
X139827000Y-110363000D01*
X139847000Y-110363000D01*
X139847000Y-110617000D01*
X139827000Y-110617000D01*
X139827000Y-112903000D01*
X139847000Y-112903000D01*
X139847000Y-113157000D01*
X139827000Y-113157000D01*
X139827000Y-113177000D01*
X139573000Y-113177000D01*
X139573000Y-113157000D01*
X138213783Y-113157000D01*
X138092642Y-113389026D01*
X138095291Y-113404791D01*
X138349268Y-113932036D01*
X138765069Y-114303539D01*
X138455585Y-114510330D01*
X138430000Y-114548621D01*
X138404415Y-114510330D01*
X137918234Y-114185474D01*
X137344745Y-114071400D01*
X136975255Y-114071400D01*
X136401766Y-114185474D01*
X135915585Y-114510330D01*
X135890000Y-114548621D01*
X135864415Y-114510330D01*
X135595507Y-114330651D01*
X135679670Y-114274415D01*
X136004526Y-113788234D01*
X136118600Y-113214745D01*
X136118600Y-112845255D01*
X136004526Y-112271766D01*
X135679670Y-111785585D01*
X135641379Y-111760000D01*
X135679670Y-111734415D01*
X135890000Y-111419634D01*
X136100330Y-111734415D01*
X136586511Y-112059271D01*
X137160000Y-112173345D01*
X137733489Y-112059271D01*
X138219670Y-111734415D01*
X138411368Y-111447520D01*
X138761108Y-111760000D01*
X138349268Y-112127964D01*
X138095291Y-112655209D01*
X138092642Y-112670974D01*
X138213783Y-112903000D01*
X139573000Y-112903000D01*
X139573000Y-110617000D01*
X139553000Y-110617000D01*
X139553000Y-110363000D01*
X139573000Y-110363000D01*
X139573000Y-109149076D01*
X139338087Y-109004816D01*
X138785680Y-109198046D01*
X138411368Y-109532480D01*
X138219670Y-109245585D01*
X137733489Y-108920729D01*
X137160000Y-108806655D01*
X136586511Y-108920729D01*
X136100330Y-109245585D01*
X135890000Y-109560366D01*
X135679670Y-109245585D01*
X135193489Y-108920729D01*
X134620000Y-108806655D01*
X134046511Y-108920729D01*
X133560330Y-109245585D01*
X133350000Y-109560366D01*
X133139670Y-109245585D01*
X132653489Y-108920729D01*
X132080000Y-108806655D01*
X131506511Y-108920729D01*
X131020330Y-109245585D01*
X130813539Y-109555069D01*
X130442036Y-109139268D01*
X129914791Y-108885291D01*
X129899026Y-108882642D01*
X129667000Y-109003783D01*
X129413000Y-109003783D01*
X129180974Y-108882642D01*
X129165209Y-108885291D01*
X128637964Y-109139268D01*
X128248046Y-109575680D01*
X128054816Y-110128087D01*
X116280000Y-110128087D01*
X116280000Y-106680000D01*
X116873949Y-106680000D01*
X117064711Y-107639024D01*
X117607954Y-108452046D01*
X118420976Y-108995289D01*
X119380000Y-109186051D01*
X120339024Y-108995289D01*
X121152046Y-108452046D01*
X121695289Y-107639024D01*
X121886051Y-106680000D01*
X121695289Y-105720976D01*
X121672361Y-105686661D01*
X140842758Y-105686661D01*
X141054990Y-106200303D01*
X141447630Y-106593629D01*
X141655512Y-106679949D01*
X141449697Y-106764990D01*
X141056371Y-107157630D01*
X140843243Y-107670900D01*
X140842758Y-108226661D01*
X141054990Y-108740303D01*
X141447630Y-109133629D01*
X141639727Y-109213395D01*
X141508857Y-109267603D01*
X141439392Y-109509787D01*
X142240000Y-110310395D01*
X143040608Y-109509787D01*
X142971143Y-109267603D01*
X142830682Y-109217491D01*
X143030303Y-109135010D01*
X143423629Y-108742370D01*
X143636757Y-108229100D01*
X143637242Y-107673339D01*
X143425010Y-107159697D01*
X143032370Y-106766371D01*
X142824488Y-106680051D01*
X143030303Y-106595010D01*
X143423629Y-106202370D01*
X143636757Y-105689100D01*
X143637242Y-105133339D01*
X143425010Y-104619697D01*
X143032370Y-104226371D01*
X142519100Y-104013243D01*
X141963339Y-104012758D01*
X141449697Y-104224990D01*
X141056371Y-104617630D01*
X140843243Y-105130900D01*
X140842758Y-105686661D01*
X121672361Y-105686661D01*
X121152046Y-104907954D01*
X120339024Y-104364711D01*
X119380000Y-104173949D01*
X118420976Y-104364711D01*
X117607954Y-104907954D01*
X117064711Y-105720976D01*
X116873949Y-106680000D01*
X116280000Y-106680000D01*
X116280000Y-103580000D01*
X160580000Y-103580000D01*
X160580000Y-103986043D01*
G36*
X160147000Y-112903000D02*
X160167000Y-112903000D01*
X160167000Y-113157000D01*
X160147000Y-113157000D01*
X160147000Y-113177000D01*
X159893000Y-113177000D01*
X159893000Y-113157000D01*
X159873000Y-113157000D01*
X159873000Y-112903000D01*
X159893000Y-112903000D01*
X159893000Y-112883000D01*
X160147000Y-112883000D01*
X160147000Y-112903000D01*
X160147000Y-112903000D01*
G37*
X160147000Y-112903000D02*
X160167000Y-112903000D01*
X160167000Y-113157000D01*
X160147000Y-113157000D01*
X160147000Y-113177000D01*
X159893000Y-113177000D01*
X159893000Y-113157000D01*
X159873000Y-113157000D01*
X159873000Y-112903000D01*
X159893000Y-112903000D01*
X159893000Y-112883000D01*
X160147000Y-112883000D01*
X160147000Y-112903000D01*
M02*
