G04 #@! TF.FileFunction,Legend,Top*
%FSLAX46Y46*%
G04 Gerber Fmt 4.6, Leading zero omitted, Abs format (unit mm)*
G04 Created by KiCad (PCBNEW 4.0.2+dfsg1-stable) date 2016年11月21日 00時06分46秒*
%MOMM*%
G01*
G04 APERTURE LIST*
%ADD10C,0.100000*%
%ADD11C,0.200000*%
%ADD12C,0.010000*%
%ADD13O,2.432000X2.127200*%
%ADD14O,2.127200X2.127200*%
%ADD15O,2.127200X2.432000*%
%ADD16C,1.924000*%
G04 APERTURE END LIST*
D10*
D11*
X144057762Y-139263381D02*
X144057762Y-138263381D01*
X144057762Y-138644333D02*
X144153000Y-138596714D01*
X144343477Y-138596714D01*
X144438715Y-138644333D01*
X144486334Y-138691952D01*
X144533953Y-138787190D01*
X144533953Y-139072905D01*
X144486334Y-139168143D01*
X144438715Y-139215762D01*
X144343477Y-139263381D01*
X144153000Y-139263381D01*
X144057762Y-139215762D01*
X144867286Y-138596714D02*
X145105381Y-139263381D01*
X145343477Y-138596714D02*
X145105381Y-139263381D01*
X145010143Y-139501476D01*
X144962524Y-139549095D01*
X144867286Y-139596714D01*
X146042381Y-136945714D02*
X146280476Y-137612381D01*
X146518572Y-136945714D01*
X147280477Y-137564762D02*
X147185239Y-137612381D01*
X146994762Y-137612381D01*
X146899524Y-137564762D01*
X146851905Y-137469524D01*
X146851905Y-137088571D01*
X146899524Y-136993333D01*
X146994762Y-136945714D01*
X147185239Y-136945714D01*
X147280477Y-136993333D01*
X147328096Y-137088571D01*
X147328096Y-137183810D01*
X146851905Y-137279048D01*
X147756667Y-137612381D02*
X147756667Y-136945714D01*
X147756667Y-137136190D02*
X147804286Y-137040952D01*
X147851905Y-136993333D01*
X147947143Y-136945714D01*
X148042382Y-136945714D01*
X149661430Y-137612381D02*
X149090001Y-137612381D01*
X149375715Y-137612381D02*
X149375715Y-136612381D01*
X149280477Y-136755238D01*
X149185239Y-136850476D01*
X149090001Y-136898095D01*
X150090001Y-137517143D02*
X150137620Y-137564762D01*
X150090001Y-137612381D01*
X150042382Y-137564762D01*
X150090001Y-137517143D01*
X150090001Y-137612381D01*
X150756667Y-136612381D02*
X150851906Y-136612381D01*
X150947144Y-136660000D01*
X150994763Y-136707619D01*
X151042382Y-136802857D01*
X151090001Y-136993333D01*
X151090001Y-137231429D01*
X151042382Y-137421905D01*
X150994763Y-137517143D01*
X150947144Y-137564762D01*
X150851906Y-137612381D01*
X150756667Y-137612381D01*
X150661429Y-137564762D01*
X150613810Y-137517143D01*
X150566191Y-137421905D01*
X150518572Y-137231429D01*
X150518572Y-136993333D01*
X150566191Y-136802857D01*
X150613810Y-136707619D01*
X150661429Y-136660000D01*
X150756667Y-136612381D01*
X143597952Y-135961381D02*
X143597952Y-134961381D01*
X143597952Y-135437571D02*
X144169381Y-135437571D01*
X144169381Y-135961381D02*
X144169381Y-134961381D01*
X145074143Y-135961381D02*
X145074143Y-135437571D01*
X145026524Y-135342333D01*
X144931286Y-135294714D01*
X144740809Y-135294714D01*
X144645571Y-135342333D01*
X145074143Y-135913762D02*
X144978905Y-135961381D01*
X144740809Y-135961381D01*
X144645571Y-135913762D01*
X144597952Y-135818524D01*
X144597952Y-135723286D01*
X144645571Y-135628048D01*
X144740809Y-135580429D01*
X144978905Y-135580429D01*
X145074143Y-135532810D01*
X146026524Y-135961381D02*
X145550333Y-135961381D01*
X145550333Y-134961381D01*
X146788429Y-135961381D02*
X146788429Y-135437571D01*
X146740810Y-135342333D01*
X146645572Y-135294714D01*
X146455095Y-135294714D01*
X146359857Y-135342333D01*
X146788429Y-135913762D02*
X146693191Y-135961381D01*
X146455095Y-135961381D01*
X146359857Y-135913762D01*
X146312238Y-135818524D01*
X146312238Y-135723286D01*
X146359857Y-135628048D01*
X146455095Y-135580429D01*
X146693191Y-135580429D01*
X146788429Y-135532810D01*
X147264619Y-135961381D02*
X147264619Y-134961381D01*
X147359857Y-135580429D02*
X147645572Y-135961381D01*
X147645572Y-135294714D02*
X147264619Y-135675667D01*
X148455096Y-135913762D02*
X148359858Y-135961381D01*
X148169381Y-135961381D01*
X148074143Y-135913762D01*
X148026524Y-135818524D01*
X148026524Y-135437571D01*
X148074143Y-135342333D01*
X148169381Y-135294714D01*
X148359858Y-135294714D01*
X148455096Y-135342333D01*
X148502715Y-135437571D01*
X148502715Y-135532810D01*
X148026524Y-135628048D01*
X148931286Y-135961381D02*
X148931286Y-134961381D01*
X149502715Y-135961381D02*
X149074143Y-135389952D01*
X149502715Y-134961381D02*
X148931286Y-135532810D01*
X149931286Y-135961381D02*
X149931286Y-135294714D01*
X149931286Y-134961381D02*
X149883667Y-135009000D01*
X149931286Y-135056619D01*
X149978905Y-135009000D01*
X149931286Y-134961381D01*
X149931286Y-135056619D01*
X150264619Y-135294714D02*
X150645571Y-135294714D01*
X150407476Y-134961381D02*
X150407476Y-135818524D01*
X150455095Y-135913762D01*
X150550333Y-135961381D01*
X150645571Y-135961381D01*
X151312239Y-135437571D02*
X150978905Y-135437571D01*
X150978905Y-135961381D02*
X150978905Y-134961381D01*
X151455096Y-134961381D01*
X151836048Y-135961381D02*
X151836048Y-135294714D01*
X151836048Y-134961381D02*
X151788429Y-135009000D01*
X151836048Y-135056619D01*
X151883667Y-135009000D01*
X151836048Y-134961381D01*
X151836048Y-135056619D01*
X152312238Y-135961381D02*
X152312238Y-135294714D01*
X152312238Y-135485190D02*
X152359857Y-135389952D01*
X152407476Y-135342333D01*
X152502714Y-135294714D01*
X152597953Y-135294714D01*
X152883667Y-135913762D02*
X152978905Y-135961381D01*
X153169381Y-135961381D01*
X153264620Y-135913762D01*
X153312239Y-135818524D01*
X153312239Y-135770905D01*
X153264620Y-135675667D01*
X153169381Y-135628048D01*
X153026524Y-135628048D01*
X152931286Y-135580429D01*
X152883667Y-135485190D01*
X152883667Y-135437571D01*
X152931286Y-135342333D01*
X153026524Y-135294714D01*
X153169381Y-135294714D01*
X153264620Y-135342333D01*
X153597953Y-135294714D02*
X153978905Y-135294714D01*
X153740810Y-134961381D02*
X153740810Y-135818524D01*
X153788429Y-135913762D01*
X153883667Y-135961381D01*
X153978905Y-135961381D01*
D10*
X141941495Y-138277620D02*
X141941495Y-137896667D01*
X141560543Y-137858572D01*
X141598638Y-137896667D01*
X141636733Y-137972858D01*
X141636733Y-138163334D01*
X141598638Y-138239524D01*
X141560543Y-138277620D01*
X141484352Y-138315715D01*
X141293876Y-138315715D01*
X141217686Y-138277620D01*
X141179590Y-138239524D01*
X141141495Y-138163334D01*
X141141495Y-137972858D01*
X141179590Y-137896667D01*
X141217686Y-137858572D01*
X141941495Y-138544286D02*
X141141495Y-138810953D01*
X141941495Y-139077620D01*
X141916095Y-135686820D02*
X141916095Y-135305867D01*
X141535143Y-135267772D01*
X141573238Y-135305867D01*
X141611333Y-135382058D01*
X141611333Y-135572534D01*
X141573238Y-135648724D01*
X141535143Y-135686820D01*
X141458952Y-135724915D01*
X141268476Y-135724915D01*
X141192286Y-135686820D01*
X141154190Y-135648724D01*
X141116095Y-135572534D01*
X141116095Y-135382058D01*
X141154190Y-135305867D01*
X141192286Y-135267772D01*
X141916095Y-135953486D02*
X141116095Y-136220153D01*
X141916095Y-136486820D01*
X118795877Y-139960400D02*
X118719686Y-139922305D01*
X118605401Y-139922305D01*
X118491115Y-139960400D01*
X118414924Y-140036590D01*
X118376829Y-140112781D01*
X118338734Y-140265162D01*
X118338734Y-140379448D01*
X118376829Y-140531829D01*
X118414924Y-140608019D01*
X118491115Y-140684210D01*
X118605401Y-140722305D01*
X118681591Y-140722305D01*
X118795877Y-140684210D01*
X118833972Y-140646114D01*
X118833972Y-140379448D01*
X118681591Y-140379448D01*
X119176829Y-140722305D02*
X119176829Y-139922305D01*
X119633972Y-140722305D01*
X119633972Y-139922305D01*
X120014924Y-140722305D02*
X120014924Y-139922305D01*
X120205400Y-139922305D01*
X120319686Y-139960400D01*
X120395877Y-140036590D01*
X120433972Y-140112781D01*
X120472067Y-140265162D01*
X120472067Y-140379448D01*
X120433972Y-140531829D01*
X120395877Y-140608019D01*
X120319686Y-140684210D01*
X120205400Y-140722305D01*
X120014924Y-140722305D01*
X116687620Y-139922305D02*
X116306667Y-139922305D01*
X116268572Y-140303257D01*
X116306667Y-140265162D01*
X116382858Y-140227067D01*
X116573334Y-140227067D01*
X116649524Y-140265162D01*
X116687620Y-140303257D01*
X116725715Y-140379448D01*
X116725715Y-140569924D01*
X116687620Y-140646114D01*
X116649524Y-140684210D01*
X116573334Y-140722305D01*
X116382858Y-140722305D01*
X116306667Y-140684210D01*
X116268572Y-140646114D01*
X116954286Y-139922305D02*
X117220953Y-140722305D01*
X117487620Y-139922305D01*
X119938723Y-114141200D02*
X120014914Y-114179295D01*
X120129199Y-114179295D01*
X120243485Y-114141200D01*
X120319676Y-114065010D01*
X120357771Y-113988819D01*
X120395866Y-113836438D01*
X120395866Y-113722152D01*
X120357771Y-113569771D01*
X120319676Y-113493581D01*
X120243485Y-113417390D01*
X120129199Y-113379295D01*
X120053009Y-113379295D01*
X119938723Y-113417390D01*
X119900628Y-113455486D01*
X119900628Y-113722152D01*
X120053009Y-113722152D01*
X119557771Y-113379295D02*
X119557771Y-114179295D01*
X119100628Y-113379295D01*
X119100628Y-114179295D01*
X118719676Y-113379295D02*
X118719676Y-114179295D01*
X118529200Y-114179295D01*
X118414914Y-114141200D01*
X118338723Y-114065010D01*
X118300628Y-113988819D01*
X118262533Y-113836438D01*
X118262533Y-113722152D01*
X118300628Y-113569771D01*
X118338723Y-113493581D01*
X118414914Y-113417390D01*
X118529200Y-113379295D01*
X118719676Y-113379295D01*
X116966980Y-114204695D02*
X117347933Y-114204695D01*
X117386028Y-113823743D01*
X117347933Y-113861838D01*
X117271742Y-113899933D01*
X117081266Y-113899933D01*
X117005076Y-113861838D01*
X116966980Y-113823743D01*
X116928885Y-113747552D01*
X116928885Y-113557076D01*
X116966980Y-113480886D01*
X117005076Y-113442790D01*
X117081266Y-113404695D01*
X117271742Y-113404695D01*
X117347933Y-113442790D01*
X117386028Y-113480886D01*
X116700314Y-114204695D02*
X116433647Y-113404695D01*
X116166980Y-114204695D01*
D12*
G36*
X150481954Y-138334727D02*
X150505280Y-138344263D01*
X150581604Y-138356924D01*
X150703638Y-138363719D01*
X150841599Y-138363240D01*
X151046345Y-138373855D01*
X151205828Y-138426565D01*
X151339191Y-138530019D01*
X151416949Y-138623160D01*
X151473383Y-138748896D01*
X151496239Y-138908858D01*
X151485466Y-139073586D01*
X151441011Y-139213617D01*
X151418043Y-139250597D01*
X151266488Y-139399527D01*
X151085154Y-139489982D01*
X150888048Y-139517839D01*
X150689179Y-139478978D01*
X150669054Y-139470981D01*
X150601787Y-139443915D01*
X150556360Y-139437164D01*
X150525523Y-139461362D01*
X150502025Y-139527144D01*
X150478618Y-139645146D01*
X150454961Y-139785022D01*
X150408277Y-140062857D01*
X150035996Y-140062857D01*
X150207426Y-139281558D01*
X150219084Y-139228285D01*
X151106337Y-139228285D01*
X151197670Y-139228285D01*
X151272234Y-139218702D01*
X151303571Y-139201071D01*
X151306457Y-139147700D01*
X151296641Y-139098113D01*
X151279267Y-139052366D01*
X151254462Y-139054103D01*
X151205264Y-139107684D01*
X151190740Y-139125327D01*
X151106337Y-139228285D01*
X150219084Y-139228285D01*
X150270439Y-138993632D01*
X150319745Y-138768945D01*
X150331547Y-138716450D01*
X150529720Y-138716450D01*
X150543829Y-138850311D01*
X150556141Y-138900234D01*
X150572766Y-138949785D01*
X150590879Y-138949709D01*
X150620615Y-138892954D01*
X150642033Y-138843348D01*
X150718880Y-138843348D01*
X150734940Y-138939792D01*
X150794137Y-138999584D01*
X150874843Y-139012638D01*
X150955432Y-138968871D01*
X150965056Y-138958140D01*
X150995232Y-138881822D01*
X150996714Y-138822068D01*
X150975373Y-138764357D01*
X150918864Y-138741292D01*
X150857857Y-138738428D01*
X150771021Y-138745685D01*
X150732186Y-138779575D01*
X150718880Y-138843348D01*
X150642033Y-138843348D01*
X150643813Y-138839227D01*
X150711449Y-138725053D01*
X150795463Y-138642328D01*
X150809953Y-138633517D01*
X150912285Y-138578048D01*
X150803428Y-138577091D01*
X150652828Y-138588584D01*
X150563822Y-138632122D01*
X150529720Y-138716450D01*
X150331547Y-138716450D01*
X150357735Y-138599971D01*
X150386801Y-138479186D01*
X150409333Y-138399065D01*
X150427724Y-138352084D01*
X150444363Y-138330717D01*
X150461643Y-138327440D01*
X150481954Y-138334727D01*
X150481954Y-138334727D01*
G37*
X150481954Y-138334727D02*
X150505280Y-138344263D01*
X150581604Y-138356924D01*
X150703638Y-138363719D01*
X150841599Y-138363240D01*
X151046345Y-138373855D01*
X151205828Y-138426565D01*
X151339191Y-138530019D01*
X151416949Y-138623160D01*
X151473383Y-138748896D01*
X151496239Y-138908858D01*
X151485466Y-139073586D01*
X151441011Y-139213617D01*
X151418043Y-139250597D01*
X151266488Y-139399527D01*
X151085154Y-139489982D01*
X150888048Y-139517839D01*
X150689179Y-139478978D01*
X150669054Y-139470981D01*
X150601787Y-139443915D01*
X150556360Y-139437164D01*
X150525523Y-139461362D01*
X150502025Y-139527144D01*
X150478618Y-139645146D01*
X150454961Y-139785022D01*
X150408277Y-140062857D01*
X150035996Y-140062857D01*
X150207426Y-139281558D01*
X150219084Y-139228285D01*
X151106337Y-139228285D01*
X151197670Y-139228285D01*
X151272234Y-139218702D01*
X151303571Y-139201071D01*
X151306457Y-139147700D01*
X151296641Y-139098113D01*
X151279267Y-139052366D01*
X151254462Y-139054103D01*
X151205264Y-139107684D01*
X151190740Y-139125327D01*
X151106337Y-139228285D01*
X150219084Y-139228285D01*
X150270439Y-138993632D01*
X150319745Y-138768945D01*
X150331547Y-138716450D01*
X150529720Y-138716450D01*
X150543829Y-138850311D01*
X150556141Y-138900234D01*
X150572766Y-138949785D01*
X150590879Y-138949709D01*
X150620615Y-138892954D01*
X150642033Y-138843348D01*
X150718880Y-138843348D01*
X150734940Y-138939792D01*
X150794137Y-138999584D01*
X150874843Y-139012638D01*
X150955432Y-138968871D01*
X150965056Y-138958140D01*
X150995232Y-138881822D01*
X150996714Y-138822068D01*
X150975373Y-138764357D01*
X150918864Y-138741292D01*
X150857857Y-138738428D01*
X150771021Y-138745685D01*
X150732186Y-138779575D01*
X150718880Y-138843348D01*
X150642033Y-138843348D01*
X150643813Y-138839227D01*
X150711449Y-138725053D01*
X150795463Y-138642328D01*
X150809953Y-138633517D01*
X150912285Y-138578048D01*
X150803428Y-138577091D01*
X150652828Y-138588584D01*
X150563822Y-138632122D01*
X150529720Y-138716450D01*
X150331547Y-138716450D01*
X150357735Y-138599971D01*
X150386801Y-138479186D01*
X150409333Y-138399065D01*
X150427724Y-138352084D01*
X150444363Y-138330717D01*
X150461643Y-138327440D01*
X150481954Y-138334727D01*
G36*
X147586287Y-138467784D02*
X147629267Y-138477542D01*
X147649348Y-138503453D01*
X147644357Y-138553410D01*
X147612122Y-138635306D01*
X147550470Y-138757035D01*
X147457228Y-138926489D01*
X147337504Y-139138700D01*
X147040375Y-139663714D01*
X146880830Y-139663714D01*
X146784718Y-139659916D01*
X146727884Y-139650332D01*
X146721285Y-139645021D01*
X146737788Y-139606106D01*
X146780836Y-139523075D01*
X146834829Y-139425141D01*
X146948372Y-139223953D01*
X146875852Y-138860305D01*
X146842413Y-138685285D01*
X146828086Y-138569854D01*
X146837038Y-138502587D01*
X146873437Y-138472057D01*
X146941450Y-138466837D01*
X147017188Y-138472800D01*
X147104680Y-138492234D01*
X147143163Y-138539295D01*
X147150715Y-138575142D01*
X147174323Y-138669047D01*
X147211583Y-138692005D01*
X147264140Y-138644248D01*
X147295686Y-138595595D01*
X147354535Y-138511251D01*
X147418205Y-138474465D01*
X147519943Y-138466287D01*
X147522579Y-138466285D01*
X147586287Y-138467784D01*
X147586287Y-138467784D01*
G37*
X147586287Y-138467784D02*
X147629267Y-138477542D01*
X147649348Y-138503453D01*
X147644357Y-138553410D01*
X147612122Y-138635306D01*
X147550470Y-138757035D01*
X147457228Y-138926489D01*
X147337504Y-139138700D01*
X147040375Y-139663714D01*
X146880830Y-139663714D01*
X146784718Y-139659916D01*
X146727884Y-139650332D01*
X146721285Y-139645021D01*
X146737788Y-139606106D01*
X146780836Y-139523075D01*
X146834829Y-139425141D01*
X146948372Y-139223953D01*
X146875852Y-138860305D01*
X146842413Y-138685285D01*
X146828086Y-138569854D01*
X146837038Y-138502587D01*
X146873437Y-138472057D01*
X146941450Y-138466837D01*
X147017188Y-138472800D01*
X147104680Y-138492234D01*
X147143163Y-138539295D01*
X147150715Y-138575142D01*
X147174323Y-138669047D01*
X147211583Y-138692005D01*
X147264140Y-138644248D01*
X147295686Y-138595595D01*
X147354535Y-138511251D01*
X147418205Y-138474465D01*
X147519943Y-138466287D01*
X147522579Y-138466285D01*
X147586287Y-138467784D01*
G36*
X153316815Y-138468843D02*
X153374820Y-138505205D01*
X153455720Y-138590103D01*
X153465341Y-138661672D01*
X153403614Y-138720177D01*
X153309259Y-138755979D01*
X153148089Y-138801103D01*
X153254830Y-138890920D01*
X153340197Y-138993319D01*
X153361571Y-139088170D01*
X153333890Y-139240352D01*
X153260145Y-139366346D01*
X153154289Y-139458220D01*
X153030272Y-139508044D01*
X152902044Y-139507884D01*
X152783556Y-139449811D01*
X152761207Y-139429506D01*
X152686060Y-139329384D01*
X152680793Y-139248162D01*
X152745603Y-139184482D01*
X152799755Y-139160433D01*
X152862978Y-139137571D01*
X152962428Y-139137571D01*
X152980571Y-139155714D01*
X152998714Y-139137571D01*
X152980571Y-139119428D01*
X152962428Y-139137571D01*
X152862978Y-139137571D01*
X152927367Y-139114288D01*
X152854183Y-139021250D01*
X152795720Y-138920921D01*
X152786804Y-138816455D01*
X152825936Y-138683271D01*
X152832570Y-138667101D01*
X152918460Y-138541213D01*
X153040293Y-138462476D01*
X153179325Y-138436487D01*
X153316815Y-138468843D01*
X153316815Y-138468843D01*
G37*
X153316815Y-138468843D02*
X153374820Y-138505205D01*
X153455720Y-138590103D01*
X153465341Y-138661672D01*
X153403614Y-138720177D01*
X153309259Y-138755979D01*
X153148089Y-138801103D01*
X153254830Y-138890920D01*
X153340197Y-138993319D01*
X153361571Y-139088170D01*
X153333890Y-139240352D01*
X153260145Y-139366346D01*
X153154289Y-139458220D01*
X153030272Y-139508044D01*
X152902044Y-139507884D01*
X152783556Y-139449811D01*
X152761207Y-139429506D01*
X152686060Y-139329384D01*
X152680793Y-139248162D01*
X152745603Y-139184482D01*
X152799755Y-139160433D01*
X152862978Y-139137571D01*
X152962428Y-139137571D01*
X152980571Y-139155714D01*
X152998714Y-139137571D01*
X152980571Y-139119428D01*
X152962428Y-139137571D01*
X152862978Y-139137571D01*
X152927367Y-139114288D01*
X152854183Y-139021250D01*
X152795720Y-138920921D01*
X152786804Y-138816455D01*
X152825936Y-138683271D01*
X152832570Y-138667101D01*
X152918460Y-138541213D01*
X153040293Y-138462476D01*
X153179325Y-138436487D01*
X153316815Y-138468843D01*
G36*
X152647834Y-138445108D02*
X152725711Y-138454690D01*
X152744714Y-138464367D01*
X152737447Y-138510360D01*
X152718026Y-138610385D01*
X152690016Y-138747627D01*
X152656985Y-138905269D01*
X152622498Y-139066497D01*
X152590124Y-139214493D01*
X152563429Y-139332442D01*
X152545979Y-139403528D01*
X152544197Y-139409714D01*
X152520296Y-139436493D01*
X152459964Y-139454469D01*
X152351252Y-139465683D01*
X152182209Y-139472176D01*
X152178057Y-139472274D01*
X151828433Y-139480405D01*
X151706002Y-139357974D01*
X151623974Y-139260487D01*
X151589038Y-139167472D01*
X151584368Y-139095843D01*
X151599135Y-139010939D01*
X152000974Y-139010939D01*
X152041296Y-139068099D01*
X152121900Y-139076181D01*
X152191609Y-139055467D01*
X152216619Y-138999741D01*
X152218571Y-138956143D01*
X152204922Y-138872911D01*
X152155677Y-138838798D01*
X152142824Y-138836463D01*
X152055032Y-138853935D01*
X152001844Y-138919856D01*
X152000974Y-139010939D01*
X151599135Y-139010939D01*
X151618554Y-138899298D01*
X151710002Y-138712702D01*
X151845345Y-138562676D01*
X151856475Y-138553959D01*
X151923205Y-138506877D01*
X151987176Y-138476153D01*
X152066707Y-138457754D01*
X152180114Y-138447646D01*
X152345714Y-138441797D01*
X152368425Y-138441227D01*
X152523717Y-138440311D01*
X152647834Y-138445108D01*
X152647834Y-138445108D01*
G37*
X152647834Y-138445108D02*
X152725711Y-138454690D01*
X152744714Y-138464367D01*
X152737447Y-138510360D01*
X152718026Y-138610385D01*
X152690016Y-138747627D01*
X152656985Y-138905269D01*
X152622498Y-139066497D01*
X152590124Y-139214493D01*
X152563429Y-139332442D01*
X152545979Y-139403528D01*
X152544197Y-139409714D01*
X152520296Y-139436493D01*
X152459964Y-139454469D01*
X152351252Y-139465683D01*
X152182209Y-139472176D01*
X152178057Y-139472274D01*
X151828433Y-139480405D01*
X151706002Y-139357974D01*
X151623974Y-139260487D01*
X151589038Y-139167472D01*
X151584368Y-139095843D01*
X151599135Y-139010939D01*
X152000974Y-139010939D01*
X152041296Y-139068099D01*
X152121900Y-139076181D01*
X152191609Y-139055467D01*
X152216619Y-138999741D01*
X152218571Y-138956143D01*
X152204922Y-138872911D01*
X152155677Y-138838798D01*
X152142824Y-138836463D01*
X152055032Y-138853935D01*
X152001844Y-138919856D01*
X152000974Y-139010939D01*
X151599135Y-139010939D01*
X151618554Y-138899298D01*
X151710002Y-138712702D01*
X151845345Y-138562676D01*
X151856475Y-138553959D01*
X151923205Y-138506877D01*
X151987176Y-138476153D01*
X152066707Y-138457754D01*
X152180114Y-138447646D01*
X152345714Y-138441797D01*
X152368425Y-138441227D01*
X152523717Y-138440311D01*
X152647834Y-138445108D01*
G36*
X153973252Y-138449134D02*
X154076451Y-138493165D01*
X154141347Y-138572964D01*
X154152997Y-138618709D01*
X154152003Y-138684025D01*
X154116529Y-138719427D01*
X154027852Y-138743345D01*
X154025997Y-138743716D01*
X153927619Y-138759687D01*
X153859347Y-138764313D01*
X153851428Y-138763389D01*
X153852251Y-138776720D01*
X153899739Y-138819643D01*
X153917762Y-138833705D01*
X154026873Y-138947408D01*
X154065338Y-139071215D01*
X154037016Y-139205786D01*
X153947861Y-139349160D01*
X153829610Y-139440843D01*
X153696108Y-139475707D01*
X153561204Y-139448623D01*
X153493465Y-139407080D01*
X153437103Y-139341386D01*
X153402562Y-139262495D01*
X153395480Y-139193386D01*
X153421496Y-139157035D01*
X153431780Y-139155714D01*
X153488450Y-139143779D01*
X153507042Y-139137571D01*
X153688142Y-139137571D01*
X153706285Y-139155714D01*
X153724428Y-139137571D01*
X153706285Y-139119428D01*
X153688142Y-139137571D01*
X153507042Y-139137571D01*
X153559431Y-139120079D01*
X153653158Y-139084444D01*
X153575723Y-139007009D01*
X153522626Y-138907139D01*
X153516638Y-138778868D01*
X153555429Y-138646923D01*
X153618400Y-138553989D01*
X153725769Y-138477311D01*
X153850205Y-138443105D01*
X153973252Y-138449134D01*
X153973252Y-138449134D01*
G37*
X153973252Y-138449134D02*
X154076451Y-138493165D01*
X154141347Y-138572964D01*
X154152997Y-138618709D01*
X154152003Y-138684025D01*
X154116529Y-138719427D01*
X154027852Y-138743345D01*
X154025997Y-138743716D01*
X153927619Y-138759687D01*
X153859347Y-138764313D01*
X153851428Y-138763389D01*
X153852251Y-138776720D01*
X153899739Y-138819643D01*
X153917762Y-138833705D01*
X154026873Y-138947408D01*
X154065338Y-139071215D01*
X154037016Y-139205786D01*
X153947861Y-139349160D01*
X153829610Y-139440843D01*
X153696108Y-139475707D01*
X153561204Y-139448623D01*
X153493465Y-139407080D01*
X153437103Y-139341386D01*
X153402562Y-139262495D01*
X153395480Y-139193386D01*
X153421496Y-139157035D01*
X153431780Y-139155714D01*
X153488450Y-139143779D01*
X153507042Y-139137571D01*
X153688142Y-139137571D01*
X153706285Y-139155714D01*
X153724428Y-139137571D01*
X153706285Y-139119428D01*
X153688142Y-139137571D01*
X153507042Y-139137571D01*
X153559431Y-139120079D01*
X153653158Y-139084444D01*
X153575723Y-139007009D01*
X153522626Y-138907139D01*
X153516638Y-138778868D01*
X153555429Y-138646923D01*
X153618400Y-138553989D01*
X153725769Y-138477311D01*
X153850205Y-138443105D01*
X153973252Y-138449134D01*
G36*
X148541249Y-138431077D02*
X148580167Y-138441943D01*
X148599264Y-138474049D01*
X148599905Y-138538848D01*
X148583458Y-138647792D01*
X148551287Y-138812331D01*
X148535864Y-138888648D01*
X148494688Y-139093594D01*
X148464511Y-139237787D01*
X148440696Y-139331341D01*
X148418603Y-139384371D01*
X148393597Y-139406989D01*
X148361040Y-139409311D01*
X148316293Y-139401450D01*
X148301876Y-139398951D01*
X148175597Y-139393164D01*
X148058756Y-139406327D01*
X147935229Y-139416436D01*
X147821211Y-139402955D01*
X147680953Y-139333756D01*
X147593613Y-139216953D01*
X147562711Y-139058104D01*
X147565364Y-138998797D01*
X147582130Y-138929091D01*
X147920004Y-138929091D01*
X147939166Y-138999603D01*
X147974209Y-139033981D01*
X148056022Y-139059324D01*
X148128326Y-139030406D01*
X148165985Y-138961327D01*
X148165844Y-138926473D01*
X148139254Y-138867691D01*
X148069059Y-138847818D01*
X148046211Y-138847285D01*
X147958406Y-138871264D01*
X147920004Y-138929091D01*
X147582130Y-138929091D01*
X147609640Y-138814716D01*
X147709486Y-138662689D01*
X147849479Y-138544696D01*
X147943983Y-138491896D01*
X148041947Y-138471697D01*
X148163643Y-138475110D01*
X148269811Y-138478471D01*
X148338967Y-138470761D01*
X148354143Y-138460199D01*
X148386059Y-138440233D01*
X148464533Y-138430259D01*
X148481143Y-138430000D01*
X148541249Y-138431077D01*
X148541249Y-138431077D01*
G37*
X148541249Y-138431077D02*
X148580167Y-138441943D01*
X148599264Y-138474049D01*
X148599905Y-138538848D01*
X148583458Y-138647792D01*
X148551287Y-138812331D01*
X148535864Y-138888648D01*
X148494688Y-139093594D01*
X148464511Y-139237787D01*
X148440696Y-139331341D01*
X148418603Y-139384371D01*
X148393597Y-139406989D01*
X148361040Y-139409311D01*
X148316293Y-139401450D01*
X148301876Y-139398951D01*
X148175597Y-139393164D01*
X148058756Y-139406327D01*
X147935229Y-139416436D01*
X147821211Y-139402955D01*
X147680953Y-139333756D01*
X147593613Y-139216953D01*
X147562711Y-139058104D01*
X147565364Y-138998797D01*
X147582130Y-138929091D01*
X147920004Y-138929091D01*
X147939166Y-138999603D01*
X147974209Y-139033981D01*
X148056022Y-139059324D01*
X148128326Y-139030406D01*
X148165985Y-138961327D01*
X148165844Y-138926473D01*
X148139254Y-138867691D01*
X148069059Y-138847818D01*
X148046211Y-138847285D01*
X147958406Y-138871264D01*
X147920004Y-138929091D01*
X147582130Y-138929091D01*
X147609640Y-138814716D01*
X147709486Y-138662689D01*
X147849479Y-138544696D01*
X147943983Y-138491896D01*
X148041947Y-138471697D01*
X148163643Y-138475110D01*
X148269811Y-138478471D01*
X148338967Y-138470761D01*
X148354143Y-138460199D01*
X148386059Y-138440233D01*
X148464533Y-138430259D01*
X148481143Y-138430000D01*
X148541249Y-138431077D01*
G36*
X149996249Y-138438377D02*
X150121142Y-138520607D01*
X150144770Y-138548447D01*
X150182080Y-138604727D01*
X150199924Y-138660229D01*
X150200000Y-138736251D01*
X150184011Y-138854093D01*
X150174007Y-138914681D01*
X150146320Y-139067740D01*
X150117012Y-139211454D01*
X150092653Y-139313834D01*
X150066968Y-139392465D01*
X150031666Y-139431418D01*
X149963965Y-139444620D01*
X149876437Y-139446000D01*
X149773374Y-139441056D01*
X149708135Y-139428429D01*
X149696249Y-139418785D01*
X149703766Y-139372386D01*
X149724015Y-139275398D01*
X149752800Y-139147804D01*
X149756265Y-139132943D01*
X149790507Y-138959445D01*
X149796226Y-138846662D01*
X149772431Y-138788164D01*
X149718130Y-138777521D01*
X149702002Y-138780960D01*
X149657902Y-138809982D01*
X149620271Y-138880074D01*
X149582762Y-139004566D01*
X149569446Y-139059358D01*
X149537083Y-139196152D01*
X149509355Y-139310986D01*
X149491972Y-139380231D01*
X149491361Y-139382500D01*
X149463215Y-139422540D01*
X149395525Y-139441773D01*
X149295126Y-139446000D01*
X149192433Y-139439576D01*
X149127694Y-139423174D01*
X149116142Y-139410745D01*
X149123497Y-139360457D01*
X149142958Y-139259436D01*
X149170620Y-139127729D01*
X149176467Y-139100956D01*
X149206818Y-138943009D01*
X149214601Y-138843129D01*
X149200515Y-138790641D01*
X149197049Y-138786678D01*
X149137377Y-138757875D01*
X149082519Y-138797395D01*
X149031318Y-138906728D01*
X148990428Y-139053016D01*
X148957699Y-139191261D01*
X148929624Y-139307551D01*
X148911807Y-139378701D01*
X148910789Y-139382500D01*
X148882644Y-139422540D01*
X148814954Y-139441773D01*
X148714554Y-139446000D01*
X148591315Y-139437118D01*
X148538427Y-139410472D01*
X148536198Y-139400643D01*
X148544457Y-139345119D01*
X148565976Y-139239138D01*
X148596899Y-139098980D01*
X148633372Y-138940926D01*
X148671539Y-138781255D01*
X148707546Y-138636247D01*
X148737537Y-138522184D01*
X148757658Y-138455345D01*
X148762496Y-138444979D01*
X148811368Y-138430437D01*
X148911405Y-138419513D01*
X149041267Y-138412734D01*
X149179613Y-138410626D01*
X149305103Y-138413717D01*
X149396396Y-138422532D01*
X149421217Y-138428724D01*
X149527659Y-138441852D01*
X149654109Y-138423332D01*
X149834706Y-138404456D01*
X149996249Y-138438377D01*
X149996249Y-138438377D01*
G37*
X149996249Y-138438377D02*
X150121142Y-138520607D01*
X150144770Y-138548447D01*
X150182080Y-138604727D01*
X150199924Y-138660229D01*
X150200000Y-138736251D01*
X150184011Y-138854093D01*
X150174007Y-138914681D01*
X150146320Y-139067740D01*
X150117012Y-139211454D01*
X150092653Y-139313834D01*
X150066968Y-139392465D01*
X150031666Y-139431418D01*
X149963965Y-139444620D01*
X149876437Y-139446000D01*
X149773374Y-139441056D01*
X149708135Y-139428429D01*
X149696249Y-139418785D01*
X149703766Y-139372386D01*
X149724015Y-139275398D01*
X149752800Y-139147804D01*
X149756265Y-139132943D01*
X149790507Y-138959445D01*
X149796226Y-138846662D01*
X149772431Y-138788164D01*
X149718130Y-138777521D01*
X149702002Y-138780960D01*
X149657902Y-138809982D01*
X149620271Y-138880074D01*
X149582762Y-139004566D01*
X149569446Y-139059358D01*
X149537083Y-139196152D01*
X149509355Y-139310986D01*
X149491972Y-139380231D01*
X149491361Y-139382500D01*
X149463215Y-139422540D01*
X149395525Y-139441773D01*
X149295126Y-139446000D01*
X149192433Y-139439576D01*
X149127694Y-139423174D01*
X149116142Y-139410745D01*
X149123497Y-139360457D01*
X149142958Y-139259436D01*
X149170620Y-139127729D01*
X149176467Y-139100956D01*
X149206818Y-138943009D01*
X149214601Y-138843129D01*
X149200515Y-138790641D01*
X149197049Y-138786678D01*
X149137377Y-138757875D01*
X149082519Y-138797395D01*
X149031318Y-138906728D01*
X148990428Y-139053016D01*
X148957699Y-139191261D01*
X148929624Y-139307551D01*
X148911807Y-139378701D01*
X148910789Y-139382500D01*
X148882644Y-139422540D01*
X148814954Y-139441773D01*
X148714554Y-139446000D01*
X148591315Y-139437118D01*
X148538427Y-139410472D01*
X148536198Y-139400643D01*
X148544457Y-139345119D01*
X148565976Y-139239138D01*
X148596899Y-139098980D01*
X148633372Y-138940926D01*
X148671539Y-138781255D01*
X148707546Y-138636247D01*
X148737537Y-138522184D01*
X148757658Y-138455345D01*
X148762496Y-138444979D01*
X148811368Y-138430437D01*
X148911405Y-138419513D01*
X149041267Y-138412734D01*
X149179613Y-138410626D01*
X149305103Y-138413717D01*
X149396396Y-138422532D01*
X149421217Y-138428724D01*
X149527659Y-138441852D01*
X149654109Y-138423332D01*
X149834706Y-138404456D01*
X149996249Y-138438377D01*
G36*
X146553928Y-138507520D02*
X146641766Y-138553146D01*
X146701453Y-138621900D01*
X146730154Y-138696170D01*
X146734791Y-138802632D01*
X146714429Y-138951833D01*
X146668133Y-139154322D01*
X146647161Y-139234054D01*
X146617176Y-139324043D01*
X146575103Y-139363574D01*
X146494138Y-139373257D01*
X146465887Y-139373428D01*
X146390060Y-139371615D01*
X146345937Y-139357038D01*
X146329535Y-139315991D01*
X146336873Y-139234767D01*
X146363966Y-139099659D01*
X146373466Y-139055363D01*
X146394465Y-138935758D01*
X146401328Y-138847047D01*
X146393609Y-138810316D01*
X146329415Y-138804925D01*
X146273071Y-138859621D01*
X146236953Y-138962064D01*
X146236026Y-138967454D01*
X146209746Y-139099327D01*
X146176745Y-139233309D01*
X146175612Y-139237357D01*
X146144673Y-139325521D01*
X146101173Y-139364053D01*
X146017933Y-139373302D01*
X145993865Y-139373428D01*
X145892386Y-139362735D01*
X145850669Y-139332738D01*
X145850149Y-139328071D01*
X145857012Y-139275573D01*
X145875798Y-139168823D01*
X145903437Y-139024575D01*
X145929238Y-138896455D01*
X146008607Y-138510195D01*
X146247018Y-138493880D01*
X146427635Y-138489254D01*
X146553928Y-138507520D01*
X146553928Y-138507520D01*
G37*
X146553928Y-138507520D02*
X146641766Y-138553146D01*
X146701453Y-138621900D01*
X146730154Y-138696170D01*
X146734791Y-138802632D01*
X146714429Y-138951833D01*
X146668133Y-139154322D01*
X146647161Y-139234054D01*
X146617176Y-139324043D01*
X146575103Y-139363574D01*
X146494138Y-139373257D01*
X146465887Y-139373428D01*
X146390060Y-139371615D01*
X146345937Y-139357038D01*
X146329535Y-139315991D01*
X146336873Y-139234767D01*
X146363966Y-139099659D01*
X146373466Y-139055363D01*
X146394465Y-138935758D01*
X146401328Y-138847047D01*
X146393609Y-138810316D01*
X146329415Y-138804925D01*
X146273071Y-138859621D01*
X146236953Y-138962064D01*
X146236026Y-138967454D01*
X146209746Y-139099327D01*
X146176745Y-139233309D01*
X146175612Y-139237357D01*
X146144673Y-139325521D01*
X146101173Y-139364053D01*
X146017933Y-139373302D01*
X145993865Y-139373428D01*
X145892386Y-139362735D01*
X145850669Y-139332738D01*
X145850149Y-139328071D01*
X145857012Y-139275573D01*
X145875798Y-139168823D01*
X145903437Y-139024575D01*
X145929238Y-138896455D01*
X146008607Y-138510195D01*
X146247018Y-138493880D01*
X146427635Y-138489254D01*
X146553928Y-138507520D01*
%LPC*%
D13*
X121920000Y-115570000D03*
X124460000Y-115570000D03*
X127000000Y-115570000D03*
X121920000Y-118110000D03*
X124460000Y-118110000D03*
X127000000Y-118110000D03*
X121920000Y-120650000D03*
X124460000Y-120650000D03*
X127000000Y-120650000D03*
X121920000Y-123190000D03*
X124460000Y-123190000D03*
X127000000Y-123190000D03*
X121920000Y-125730000D03*
X124460000Y-125730000D03*
X127000000Y-125730000D03*
X121920000Y-128270000D03*
X124460000Y-128270000D03*
X127000000Y-128270000D03*
X121920000Y-130810000D03*
X124460000Y-130810000D03*
X127000000Y-130810000D03*
X121920000Y-133350000D03*
X124460000Y-133350000D03*
X127000000Y-133350000D03*
X121920000Y-135890000D03*
X124460000Y-135890000D03*
X127000000Y-135890000D03*
X121920000Y-138430000D03*
X124460000Y-138430000D03*
X127000000Y-138430000D03*
X132080000Y-115570000D03*
X134620000Y-115570000D03*
X137160000Y-115570000D03*
X132080000Y-118110000D03*
X134620000Y-118110000D03*
X137160000Y-118110000D03*
X132080000Y-120650000D03*
X134620000Y-120650000D03*
X137160000Y-120650000D03*
X132080000Y-123190000D03*
X134620000Y-123190000D03*
X137160000Y-123190000D03*
X132080000Y-125730000D03*
X134620000Y-125730000D03*
X137160000Y-125730000D03*
X132080000Y-128270000D03*
X134620000Y-128270000D03*
X137160000Y-128270000D03*
X132080000Y-130810000D03*
X134620000Y-130810000D03*
X137160000Y-130810000D03*
X132080000Y-133350000D03*
X134620000Y-133350000D03*
X137160000Y-133350000D03*
X132080000Y-135890000D03*
X134620000Y-135890000D03*
X137160000Y-135890000D03*
X132080000Y-138430000D03*
X134620000Y-138430000D03*
X137160000Y-138430000D03*
D14*
X151130000Y-113030000D03*
X151130000Y-115570000D03*
X148590000Y-113030000D03*
X148590000Y-115570000D03*
D15*
X151130000Y-110490000D03*
X153670000Y-110490000D03*
X146050000Y-110490000D03*
X148590000Y-110490000D03*
X132080000Y-113030000D03*
X134620000Y-113030000D03*
X132080000Y-110490000D03*
X129540000Y-110490000D03*
X137160000Y-110490000D03*
X134620000Y-110490000D03*
X119380000Y-138430000D03*
X119380000Y-135890000D03*
X119380000Y-133350000D03*
X119380000Y-130810000D03*
X119380000Y-128270000D03*
X119380000Y-125730000D03*
X119380000Y-123190000D03*
X119380000Y-120650000D03*
X119380000Y-118110000D03*
X119380000Y-115570000D03*
X116840000Y-138430000D03*
X116840000Y-135890000D03*
X116840000Y-133350000D03*
X116840000Y-130810000D03*
X116840000Y-128270000D03*
X116840000Y-125730000D03*
X116840000Y-123190000D03*
X116840000Y-120650000D03*
X116840000Y-118110000D03*
X116840000Y-115570000D03*
D13*
X139700000Y-110490000D03*
X139700000Y-113030000D03*
X139700000Y-115570000D03*
X139700000Y-118110000D03*
X139700000Y-120650000D03*
X139700000Y-123190000D03*
X139700000Y-125730000D03*
X139700000Y-128270000D03*
X139700000Y-130810000D03*
X139700000Y-133350000D03*
X139700000Y-135890000D03*
X139700000Y-138430000D03*
X160020000Y-105410000D03*
X160020000Y-107950000D03*
X160020000Y-110490000D03*
X160020000Y-113030000D03*
X160020000Y-115570000D03*
X160020000Y-118110000D03*
X160020000Y-120650000D03*
X160020000Y-123190000D03*
X160020000Y-125730000D03*
X160020000Y-128270000D03*
X160020000Y-130810000D03*
X160020000Y-133350000D03*
D16*
X142240000Y-105410000D03*
X142240000Y-107950000D03*
X142240000Y-110490000D03*
X142240000Y-113030000D03*
X142240000Y-115570000D03*
X142240000Y-118110000D03*
X142240000Y-120650000D03*
X142240000Y-123190000D03*
X142240000Y-125730000D03*
X142240000Y-128270000D03*
X142240000Y-130810000D03*
X142240000Y-133350000D03*
X157480000Y-133350000D03*
X157480000Y-130810000D03*
X157480000Y-128270000D03*
X157480000Y-125730000D03*
X157480000Y-123190000D03*
X157480000Y-120650000D03*
X157480000Y-118110000D03*
X157480000Y-115570000D03*
X157480000Y-113030000D03*
X157480000Y-110490000D03*
X157480000Y-107950000D03*
X157480000Y-105410000D03*
M02*
