M48
;DRILL file {KiCad 4.0.2+dfsg1-stable} date 2016年11月21日 00時07分20秒
;FORMAT={3:3/ absolute / metric / suppress trailing zeros}
FMAT,2
METRIC,LZ
T1C0.400
T2C0.762
T3C1.016
%
G90
G05
M71
T1
X119507Y-111379
X153797Y-106807
T2
X14224Y-10541
X14224Y-10795
X14224Y-11049
X14224Y-11303
X14224Y-11557
X14224Y-11811
X14224Y-12065
X14224Y-12319
X14224Y-12573
X14224Y-12827
X14224Y-13081
X14224Y-13335
X15748Y-10541
X15748Y-10795
X15748Y-11049
X15748Y-11303
X15748Y-11557
X15748Y-11811
X15748Y-12065
X15748Y-12319
X15748Y-12573
X15748Y-12827
X15748Y-13081
X15748Y-13335
T3
X11684Y-11557
X11684Y-11811
X11684Y-12065
X11684Y-12319
X11684Y-12573
X11684Y-12827
X11684Y-13081
X11684Y-13335
X11684Y-13589
X11684Y-13843
X11938Y-11557
X11938Y-11811
X11938Y-12065
X11938Y-12319
X11938Y-12573
X11938Y-12827
X11938Y-13081
X11938Y-13335
X11938Y-13589
X11938Y-13843
X12192Y-11557
X12192Y-11811
X12192Y-12065
X12192Y-12319
X12192Y-12573
X12192Y-12827
X12192Y-13081
X12192Y-13335
X12192Y-13589
X12192Y-13843
X12446Y-11557
X12446Y-11811
X12446Y-12065
X12446Y-12319
X12446Y-12573
X12446Y-12827
X12446Y-13081
X12446Y-13335
X12446Y-13589
X12446Y-13843
X127Y-11557
X127Y-11811
X127Y-12065
X127Y-12319
X127Y-12573
X127Y-12827
X127Y-13081
X127Y-13335
X127Y-13589
X127Y-13843
X12954Y-11049
X13208Y-11049
X13208Y-11303
X13208Y-11557
X13208Y-11811
X13208Y-12065
X13208Y-12319
X13208Y-12573
X13208Y-12827
X13208Y-13081
X13208Y-13335
X13208Y-13589
X13208Y-13843
X13462Y-11049
X13462Y-11303
X13462Y-11557
X13462Y-11811
X13462Y-12065
X13462Y-12319
X13462Y-12573
X13462Y-12827
X13462Y-13081
X13462Y-13335
X13462Y-13589
X13462Y-13843
X13716Y-11049
X13716Y-11557
X13716Y-11811
X13716Y-12065
X13716Y-12319
X13716Y-12573
X13716Y-12827
X13716Y-13081
X13716Y-13335
X13716Y-13589
X13716Y-13843
X1397Y-11049
X1397Y-11303
X1397Y-11557
X1397Y-11811
X1397Y-12065
X1397Y-12319
X1397Y-12573
X1397Y-12827
X1397Y-13081
X1397Y-13335
X1397Y-13589
X1397Y-13843
X14605Y-11049
X14859Y-11049
X14859Y-11303
X14859Y-11557
X15113Y-11049
X15113Y-11303
X15113Y-11557
X15367Y-11049
X16002Y-10541
X16002Y-10795
X16002Y-11049
X16002Y-11303
X16002Y-11557
X16002Y-11811
X16002Y-12065
X16002Y-12319
X16002Y-12573
X16002Y-12827
X16002Y-13081
X16002Y-13335
T0
M30
